COMMENT @(#)89	1.1  src/bos/usr/lpp/jls/fonts/Kanji23G.bdf, fontKJI, bos411, 9428A410j 2/24/94 10:17:22
COMMENT
COMMENT   COMPONENT_NAME: fontKJI
COMMENT
COMMENT   FUNCTIONS: none
COMMENT
COMMENT   ORIGINS: 27
COMMENT
COMMENT   IBM CONFIDENTIAL -- (IBM Confidential Restricted when
COMMENT   combined with the aggregated modules for this product)
COMMENT                    SOURCE MATERIALS
COMMENT
COMMENT   (C) COPYRIGHT International Business Machines Corp. 1991,1993
COMMENT   All Rights Reserved
COMMENT   US Government Users Restricted Rights - Use, duplication or
COMMENT   disclosure restricted by GSA ADP Schedule Contract with IBM Corp.
COMMENT
STARTFONT 2.1
FONT -IBM_AIX-Gothic-Medium-R-Normal--35-230-100-100-M-340-jisx0208.1983-0
SIZE 230 100 100
FONTBOUNDINGBOX 34 35 0 0
STARTPROPERTIES 27
FONTNAME_REGISTRY "-"
FOUNDRY "IBM_AIX"
FAMILY_NAME "Gothic"
WEIGHT_NAME "Medium"
SLANT "R"
SETWIDTH_NAME "Normal"
ADD_STYLE_NAME ""
PIXEL_SIZE 35
POINT_SIZE 230
RESOLUTION_X 100
RESOLUTION_Y 100
SPACING "M"
AVERAGE_WIDTH 340
CHARSET_REGISTRY "jisx0208.1983"
CHARSET_ENCODING "0"
CAP_HEIGHT 35
CHARSET_COLLECTIONS ""
COPYRIGHT "Copyright 1989 by IBM."
_IBM_AIX_CODESET "AIXstdNLS"
_IBM_AIX_SINGLEBYTE_CODEPAGE_SHIFTS ""
WEIGHT 27437
RESOLUTION 138
X_HEIGHT 34
QUAD_WIDTH 34
FONT_DESCENT 1
FONT_ASCENT 34
DEFAULT_CHAR 8481
ENDPROPERTIES
CHARS 6879
STARTCHAR 2121
ENCODING 8481
SWIDTH	-8531 0
DWIDTH	34 0
BBX 34	35 0 -1
BITMAP
0000000000
0000000000
0000000000
0000000000
0000000000
0000000000
0000000000
0000000000
0000000000
0000000000
0000000000
0000000000
0000000000
0000000000
0000000000
0000000000
0000000000
0000000000
0000000000
0000000000
0000000000
0000000000
0000000000
0000000000
0000000000
0000000000
0000000000
0000000000
0000000000
0000000000
0000000000
0000000000
0000000000
0000000000
0000000000
ENDCHAR
STARTCHAR 2122
ENCODING 8482
SWIDTH	-8531 0
DWIDTH	34 0
BBX 34	35 0 -1
BITMAP
0000000000
0000000000
0000000000
0000000000
0000000000
0000000000
0000000000
0000000000
0000000000
0000000000
0000000000
0000000000
0000000000
0000000000
0000000000
0000000000
0000000000
0000000000
0000000000
0000000000
0000000000
0000000000
0000000000
0000000000
0000000000
1800000000
3c00000000
1e00000000
0f00000000
0780000000
03c0000000
01e0000000
00e0000000
0040000000
0000000000
ENDCHAR
STARTCHAR 2123
ENCODING 8483
SWIDTH	-8531 0
DWIDTH	34 0
BBX 34	35 0 -1
BITMAP
0000000000
0000000000
0000000000
0000000000
0000000000
0000000000
0000000000
0000000000
0000000000
0000000000
0000000000
0000000000
0000000000
0000000000
0000000000
0000000000
0000000000
0000000000
0000000000
0000000000
0000000000
0000000000
0000000000
0000000000
0000000000
0f80000000
1fc0000000
38e0000000
3060000000
3060000000
3060000000
38e0000000
1fc0000000
0f80000000
0000000000
ENDCHAR
STARTCHAR 2124
ENCODING 8484
SWIDTH	-8531 0
DWIDTH	34 0
BBX 34	35 0 -1
BITMAP
0000000000
0000000000
0000000000
0000000000
0000000000
0000000000
0000000000
0000000000
0000000000
0000000000
0000000000
0000000000
0000000000
0000000000
0000000000
0000000000
0000000000
0000000000
0000000000
0000000000
0000000000
0000000000
0000000000
0000000000
0000000000
0000000000
0000000000
0f00000000
0f00000000
0f00000000
0f00000000
0300000000
0600000000
0c00000000
0000000000
ENDCHAR
STARTCHAR 2125
ENCODING 8485
SWIDTH	-8531 0
DWIDTH	34 0
BBX 34	35 0 -1
BITMAP
0000000000
0000000000
0000000000
0000000000
0000000000
0000000000
0000000000
0000000000
0000000000
0000000000
0000000000
0000000000
0000000000
0000000000
0000000000
0000000000
0000000000
0000000000
0000000000
0000000000
0000000000
0000000000
0000000000
0000000000
0000000000
0000000000
0000000000
0000000000
0f00000000
0f00000000
0f00000000
0f00000000
0000000000
0000000000
0000000000
ENDCHAR
STARTCHAR 2126
ENCODING 8486
SWIDTH	-8531 0
DWIDTH	34 0
BBX 34	35 0 -1
BITMAP
0000000000
0000000000
0000000000
0000000000
0000000000
0000000000
0000000000
0000000000
0000000000
0000000000
0000000000
0000000000
0000000000
0000000000
0000000000
0000000000
0003c00000
0003c00000
0003c00000
0003c00000
0000000000
0000000000
0000000000
0000000000
0000000000
0000000000
0000000000
0000000000
0000000000
0000000000
0000000000
0000000000
0000000000
0000000000
0000000000
ENDCHAR
STARTCHAR 2127
ENCODING 8487
SWIDTH	-8531 0
DWIDTH	34 0
BBX 34	35 0 -1
BITMAP
0000000000
0000000000
0000000000
0000000000
0000000000
0000000000
0000000000
0000000000
0000000000
0000000000
0001e00000
0001e00000
0001e00000
0001e00000
0000000000
0000000000
0000000000
0000000000
0000000000
0000000000
0000000000
0000000000
0001e00000
0001e00000
0001e00000
0001e00000
0000000000
0000000000
0000000000
0000000000
0000000000
0000000000
0000000000
0000000000
0000000000
ENDCHAR
STARTCHAR 2128
ENCODING 8488
SWIDTH	-8531 0
DWIDTH	34 0
BBX 34	35 0 -1
BITMAP
0000000000
0000000000
0000000000
0000000000
0000000000
0000000000
0000000000
0000000000
0000000000
0000000000
0001e00000
0001e00000
0001e00000
0001e00000
0000000000
0000000000
0000000000
0000000000
0000000000
0000000000
0000000000
0000000000
0001e00000
0001e00000
0001e00000
0001e00000
0000600000
0000c00000
0001800000
0000000000
0000000000
0000000000
0000000000
0000000000
0000000000
ENDCHAR
STARTCHAR 2129
ENCODING 8489
SWIDTH	-8531 0
DWIDTH	34 0
BBX 34	35 0 -1
BITMAP
0000000000
0000000000
0000000000
0000000000
0003f00000
000ffc0000
001ffe0000
003c0f0000
0038070000
0070038000
0070038000
0070038000
0070038000
0000070000
00000f0000
00001e0000
00003c0000
0000380000
0000700000
0000700000
0000e00000
0000e00000
0000e00000
0000e00000
0000e00000
0000000000
0000000000
0000000000
0000e00000
0000e00000
0000e00000
0000e00000
0000000000
0000000000
0000000000
ENDCHAR
STARTCHAR 212a
ENCODING 8490
SWIDTH	-8531 0
DWIDTH	34 0
BBX 34	35 0 -1
BITMAP
0000000000
0000000000
0000000000
0000000000
0001e00000
0001e00000
0001e00000
0001e00000
0001e00000
0001e00000
0001e00000
0001e00000
0001e00000
0001e00000
0001e00000
0001e00000
0000c00000
0000c00000
0000c00000
0000c00000
0000c00000
0000c00000
0000c00000
0000c00000
0000c00000
0000000000
0000000000
0000000000
0001e00000
0001e00000
0001e00000
0001e00000
0000000000
0000000000
0000000000
ENDCHAR
STARTCHAR 212b
ENCODING 8491
SWIDTH	-8531 0
DWIDTH	34 0
BBX 34	35 0 -1
BITMAP
0000000000
0000000000
0200000000
0700000000
1380000000
39c0000000
1c80000000
0e00000000
0400000000
0000000000
0000000000
0000000000
0000000000
0000000000
0000000000
0000000000
0000000000
0000000000
0000000000
0000000000
0000000000
0000000000
0000000000
0000000000
0000000000
0000000000
0000000000
0000000000
0000000000
0000000000
0000000000
0000000000
0000000000
0000000000
0000000000
ENDCHAR
STARTCHAR 212c
ENCODING 8492
SWIDTH	-8531 0
DWIDTH	34 0
BBX 34	35 0 -1
BITMAP
0000000000
0000000000
0000000000
0f00000000
1f80000000
39c0000000
30c0000000
30c0000000
39c0000000
1f80000000
0f00000000
0000000000
0000000000
0000000000
0000000000
0000000000
0000000000
0000000000
0000000000
0000000000
0000000000
0000000000
0000000000
0000000000
0000000000
0000000000
0000000000
0000000000
0000000000
0000000000
0000000000
0000000000
0000000000
0000000000
0000000000
ENDCHAR
STARTCHAR 212d
ENCODING 8493
SWIDTH	-8531 0
DWIDTH	34 0
BBX 34	35 0 -1
BITMAP
0000000000
0000000000
0000100000
0000780000
0001f80000
0007e00000
0007800000
0002000000
0000000000
0000000000
0000000000
0000000000
0000000000
0000000000
0000000000
0000000000
0000000000
0000000000
0000000000
0000000000
0000000000
0000000000
0000000000
0000000000
0000000000
0000000000
0000000000
0000000000
0000000000
0000000000
0000000000
0000000000
0000000000
0000000000
0000000000
ENDCHAR
STARTCHAR 212e
ENCODING 8494
SWIDTH	-8531 0
DWIDTH	34 0
BBX 34	35 0 -1
BITMAP
0000000000
0000000000
0002000000
0007800000
0007e00000
0001f80000
0000780000
0000100000
0000000000
0000000000
0000000000
0000000000
0000000000
0000000000
0000000000
0000000000
0000000000
0000000000
0000000000
0000000000
0000000000
0000000000
0000000000
0000000000
0000000000
0000000000
0000000000
0000000000
0000000000
0000000000
0000000000
0000000000
0000000000
0000000000
0000000000
ENDCHAR
STARTCHAR 212f
ENCODING 8495
SWIDTH	-8531 0
DWIDTH	34 0
BBX 34	35 0 -1
BITMAP
0000000000
0000000000
003c0f0000
003c0f0000
003c0f0000
003c0f0000
0000000000
0000000000
0000000000
0000000000
0000000000
0000000000
0000000000
0000000000
0000000000
0000000000
0000000000
0000000000
0000000000
0000000000
0000000000
0000000000
0000000000
0000000000
0000000000
0000000000
0000000000
0000000000
0000000000
0000000000
0000000000
0000000000
0000000000
0000000000
0000000000
ENDCHAR
STARTCHAR 2130
ENCODING 8496
SWIDTH	-8531 0
DWIDTH	34 0
BBX 34	35 0 -1
BITMAP
0000000000
0000000000
0000c00000
0001e00000
0003f00000
0007380000
000e1c0000
001c0e0000
0008040000
0000000000
0000000000
0000000000
0000000000
0000000000
0000000000
0000000000
0000000000
0000000000
0000000000
0000000000
0000000000
0000000000
0000000000
0000000000
0000000000
0000000000
0000000000
0000000000
0000000000
0000000000
0000000000
0000000000
0000000000
0000000000
0000000000
ENDCHAR
STARTCHAR 2131
ENCODING 8497
SWIDTH	-8531 0
DWIDTH	34 0
BBX 34	35 0 -1
BITMAP
0000000000
0000000000
7fffffff80
7fffffff80
0000000000
0000000000
0000000000
0000000000
0000000000
0000000000
0000000000
0000000000
0000000000
0000000000
0000000000
0000000000
0000000000
0000000000
0000000000
0000000000
0000000000
0000000000
0000000000
0000000000
0000000000
0000000000
0000000000
0000000000
0000000000
0000000000
0000000000
0000000000
0000000000
0000000000
0000000000
ENDCHAR
STARTCHAR 2132
ENCODING 8498
SWIDTH	-8531 0
DWIDTH	34 0
BBX 34	35 0 -1
BITMAP
0000000000
0000000000
0000000000
0000000000
0000000000
0000000000
0000000000
0000000000
0000000000
0000000000
0000000000
0000000000
0000000000
0000000000
0000000000
0000000000
0000000000
0000000000
0000000000
0000000000
0000000000
0000000000
0000000000
0000000000
0000000000
0000000000
0000000000
0000000000
0000000000
0000000000
0000000000
0000000000
7fffffff80
7fffffff80
0000000000
ENDCHAR
STARTCHAR 2133
ENCODING 8499
SWIDTH	-8531 0
DWIDTH	34 0
BBX 34	35 0 -1
BITMAP
0000000000
0000000000
0000000000
0000000000
0000000000
0000000000
0000000000
0000000000
0000000000
0000000000
0000000000
0000000000
0000000000
0004000000
000e000000
000f000000
0007800000
0003800000
0001c00000
0001e00000
0000e00000
0000700000
0000780000
0000300000
0000000000
0000000000
0000000000
0000000000
0000000000
0000000000
0000000000
0000000000
0000000000
0000000000
0000000000
ENDCHAR
STARTCHAR 2134
ENCODING 8500
SWIDTH	-8531 0
DWIDTH	34 0
BBX 34	35 0 -1
BITMAP
0000000000
0000000000
0000000000
0000000000
0000000000
0000000000
0000000000
0000000000
0000000000
0000000000
0000040000
00000e0000
0000270000
0004738000
000e390000
000f1c0000
0007880000
0003800000
0001c00000
0001e00000
0000e00000
0000700000
0000780000
0000300000
0000000000
0000000000
0000000000
0000000000
0000000000
0000000000
0000000000
0000000000
0000000000
0000000000
0000000000
ENDCHAR
STARTCHAR 2135
ENCODING 8501
SWIDTH	-8531 0
DWIDTH	34 0
BBX 34	35 0 -1
BITMAP
0000000000
0000000000
0000000000
0000000000
0000000000
0000000000
0000000000
0000000000
0000000000
0000000000
000c000000
001e000000
000f000000
0007800000
0003c00000
0001e00000
0000f00000
0000780000
00003c0000
00001e0000
00000f0000
0000070000
00000f0000
00003e0000
00007c0000
0000300000
0000000000
0000000000
0000000000
0000000000
0000000000
0000000000
0000000000
0000000000
0000000000
ENDCHAR
STARTCHAR 2136
ENCODING 8502
SWIDTH	-8531 0
DWIDTH	34 0
BBX 34	35 0 -1
BITMAP
0000000000
0000000000
0000000000
0000000000
0000000000
0000000000
0000000000
0000000000
0000020000
0000070000
000c138000
001e39c000
000f1c8000
00078e0000
0003c40000
0001e00000
0000f00000
0000780000
00003c0000
00001e0000
00000f0000
0000070000
00000f0000
00003e0000
00007c0000
0000300000
0000000000
0000000000
0000000000
0000000000
0000000000
0000000000
0000000000
0000000000
0000000000
ENDCHAR
STARTCHAR 2137
ENCODING 8503
SWIDTH	-8531 0
DWIDTH	34 0
BBX 34	35 0 -1
BITMAP
0000000000
0000000000
0000000000
0000000000
0000000000
0000000000
0000000000
0000000000
0000000000
0000000000
0000000000
0000000000
00071c0000
00071c0000
00071c0000
000e380000
000e380000
000e380000
001c700000
001c700000
0038e00000
0038e00000
0010400000
0000000000
0000000000
0000000000
0000000000
0000000000
0000000000
0000000000
0000000000
0000000000
0000000000
0000000000
0000000000
ENDCHAR
STARTCHAR 2138
ENCODING 8504
SWIDTH	-8531 0
DWIDTH	34 0
BBX 34	35 0 -1
BITMAP
0000000000
0000000000
0000400000
0000e00000
0001f00000
0003f80000
0007bc0000
000f1e0000
001e0f0000
003c078000
007803c000
01f001f000
03e000f800
0780003c00
1f00001f00
3e00000f80
3800000380
13fffff900
03fffff800
03fffff800
0000e00000
0000e00000
0000e00000
0000e00000
0000e00000
0000e00000
0000e00000
0000e00000
0000e00000
1fffffff00
1fffffff00
1fffffff00
0000000000
0000000000
0000000000
ENDCHAR
STARTCHAR 2139
ENCODING 8505
SWIDTH	-8531 0
DWIDTH	34 0
BBX 34	35 0 -1
BITMAP
0000000000
0000000000
0000000000
0000200000
0000700000
0000700000
0000e00000
0001c00000
0003c00000
0003800000
0007000000
000fffe000
001ffff000
003ffff800
007800f000
00f000e000
01e001c000
03c003c000
0780078000
0f000f0000
06081e0000
001e7c0000
001ff00000
0007e00000
0001f00000
00007c0000
00001e0000
00000f0000
0000060000
0000000000
0000000000
0000000000
0000000000
0000000000
0000000000
ENDCHAR
STARTCHAR 213a
ENCODING 8506
SWIDTH	-8531 0
DWIDTH	34 0
BBX 34	35 0 -1
BITMAP
0000000000
0000000000
0000000000
0000000000
0000070000
0000070000
0000070000
0000070000
00000e0000
00000e0000
00000e0000
00080e0000
001e1c0000
001f1c0000
0007dc0000
0003f80000
0000f80000
00007c0000
00007e0000
0000ff0000
0001e78000
0001c3c000
000381c000
0007808000
000f000000
001e000000
003c000000
0078000000
00f0000000
03e0000000
07c0000000
0300000000
0000000000
0000000000
0000000000
ENDCHAR
STARTCHAR 213b
ENCODING 8507
SWIDTH	-8531 0
DWIDTH	34 0
BBX 34	35 0 -1
BITMAP
0000000000
0000000000
0000000000
0000000000
0000000000
0000000000
0007fc0000
003fff0000
00ffffc000
01f807e000
03c000f000
0780007800
0700003800
0e00001c00
0e00001c00
1c00000e00
1c00000e00
1c00000e00
1c00000e00
1c00000e00
1c00000e00
0e00001e00
0e00001c00
0700003c00
0780007800
03c000f000
01f807e000
00ffffc000
003fff0000
0007f80000
0000000000
0000000000
0000000000
0000000000
0000000000
ENDCHAR
STARTCHAR 213c
ENCODING 8508
SWIDTH	-8531 0
DWIDTH	34 0
BBX 34	35 0 -1
BITMAP
0000000000
0000000000
0000000000
0000000000
0000000000
0000000000
0000000000
0000000000
0000000000
0000000000
0000000000
0000000000
0000000000
0000000000
0000000000
0000000000
0ffffffc00
0ffffffc00
0ffffffc00
0000000000
0000000000
0000000000
0000000000
0000000000
0000000000
0000000000
0000000000
0000000000
0000000000
0000000000
0000000000
0000000000
0000000000
0000000000
0000000000
ENDCHAR
STARTCHAR 213d
ENCODING 8509
SWIDTH	-8531 0
DWIDTH	34 0
BBX 34	35 0 -1
BITMAP
0000000000
0000000000
0000000000
0000000000
0000000000
0000000000
0000000000
0000000000
0000000000
0000000000
0000000000
0000000000
0000000000
0000000000
0000000000
0000000000
1ffffffe00
1ffffffe00
0000000000
0000000000
0000000000
0000000000
0000000000
0000000000
0000000000
0000000000
0000000000
0000000000
0000000000
0000000000
0000000000
0000000000
0000000000
0000000000
0000000000
ENDCHAR
STARTCHAR 213e
ENCODING 8510
SWIDTH	-8531 0
DWIDTH	34 0
BBX 34	35 0 -1
BITMAP
0000000000
0000000000
0000000000
0000000000
0000000000
0000000000
0000000000
0000000000
0000000000
0000000000
0000000000
0000000000
0000000000
0000000000
0000000000
0000000000
0000000000
001ffe0000
001ffe0000
0000000000
0000000000
0000000000
0000000000
0000000000
0000000000
0000000000
0000000000
0000000000
0000000000
0000000000
0000000000
0000000000
0000000000
0000000000
0000000000
ENDCHAR
STARTCHAR 213f
ENCODING 8511
SWIDTH	-8531 0
DWIDTH	34 0
BBX 34	35 0 -1
BITMAP
0000000000
0000000000
0000000100
0000000380
0000000700
0000000e00
0000001c00
0000003800
0000007000
000000e000
000001c000
0000038000
0000070000
00000e0000
00001c0000
0000380000
0000700000
0000e00000
0001c00000
0003800000
0007000000
000e000000
001c000000
0038000000
0070000000
00e0000000
01c0000000
0380000000
0700000000
0e00000000
1c00000000
3800000000
7000000000
2000000000
0000000000
ENDCHAR
STARTCHAR 2140
ENCODING 8512
SWIDTH	-8531 0
DWIDTH	34 0
BBX 34	35 0 -1
BITMAP
0000000000
0000000000
2000000000
7000000000
3800000000
1c00000000
0e00000000
0700000000
0380000000
01c0000000
00e0000000
0070000000
0038000000
001c000000
000e000000
0007000000
0003800000
0001c00000
0000e00000
0000700000
0000380000
00001c0000
00000e0000
0000070000
0000038000
000001c000
000000e000
0000007000
0000003800
0000001c00
0000000e00
0000000700
0000000380
0000000100
0000000000
ENDCHAR
STARTCHAR 2141
ENCODING 8513
SWIDTH	-8531 0
DWIDTH	34 0
BBX 34	35 0 -1
BITMAP
0000000000
0000000000
0000000000
0000000000
0000000000
0000000000
0000000000
0000000000
0000000000
0000000000
0000000000
0000000000
0000000000
0000000000
00fc000000
03ff000c00
07ffc01e00
0f03f03c00
1e00fff800
0c003ff000
00000fc000
0000000000
0000000000
0000000000
0000000000
0000000000
0000000000
0000000000
0000000000
0000000000
0000000000
0000000000
0000000000
0000000000
0000000000
ENDCHAR
STARTCHAR 2142
ENCODING 8514
SWIDTH	-8531 0
DWIDTH	34 0
BBX 34	35 0 -1
BITMAP
0000000000
0000000000
0006180000
0006180000
0006180000
0006180000
0006180000
0006180000
0006180000
0006180000
0006180000
0006180000
0006180000
0006180000
0006180000
0006180000
0006180000
0006180000
0006180000
0006180000
0006180000
0006180000
0006180000
0006180000
0006180000
0006180000
0006180000
0006180000
0006180000
0006180000
0006180000
0006180000
0006180000
0006180000
0000000000
ENDCHAR
STARTCHAR 2143
ENCODING 8515
SWIDTH	-8531 0
DWIDTH	34 0
BBX 34	35 0 -1
BITMAP
0000000000
0000000000
0000c00000
0000c00000
0000c00000
0000c00000
0000c00000
0000c00000
0000c00000
0000c00000
0000c00000
0000c00000
0000c00000
0000c00000
0000c00000
0000c00000
0000c00000
0000c00000
0000c00000
0000c00000
0000c00000
0000c00000
0000c00000
0000c00000
0000c00000
0000c00000
0000c00000
0000c00000
0000c00000
0000c00000
0000c00000
0000c00000
0000c00000
0000c00000
0000000000
ENDCHAR
STARTCHAR 2144
ENCODING 8516
SWIDTH	-8531 0
DWIDTH	34 0
BBX 34	35 0 -1
BITMAP
0000000000
0000000000
0000000000
0000000000
0000000000
0000000000
0000000000
0000000000
0000000000
0000000000
0000000000
0000000000
0000000000
0000000000
0000000000
0000000000
0781e07800
0781e07800
0781e07800
0781e07800
0000000000
0000000000
0000000000
0000000000
0000000000
0000000000
0000000000
0000000000
0000000000
0000000000
0000000000
0000000000
0000000000
0000000000
0000000000
ENDCHAR
STARTCHAR 2145
ENCODING 8517
SWIDTH	-8531 0
DWIDTH	34 0
BBX 34	35 0 -1
BITMAP
0000000000
0000000000
0000000000
0000000000
0000000000
0000000000
0000000000
0000000000
0000000000
0000000000
0000000000
0000000000
0000000000
0000000000
0000000000
0000000000
00f003c000
00f003c000
00f003c000
00f003c000
0000000000
0000000000
0000000000
0000000000
0000000000
0000000000
0000000000
0000000000
0000000000
0000000000
0000000000
0000000000
0000000000
0000000000
0000000000
ENDCHAR
STARTCHAR 2146
ENCODING 8518
SWIDTH	-8531 0
DWIDTH	34 0
BBX 34	35 0 -1
BITMAP
0000000000
0000000000
0000000600
0000000c00
0000001800
0000001e00
0000001e00
0000001e00
0000001e00
0000000000
0000000000
0000000000
0000000000
0000000000
0000000000
0000000000
0000000000
0000000000
0000000000
0000000000
0000000000
0000000000
0000000000
0000000000
0000000000
0000000000
0000000000
0000000000
0000000000
0000000000
0000000000
0000000000
0000000000
0000000000
0000000000
ENDCHAR
STARTCHAR 2147
ENCODING 8519
SWIDTH	-8531 0
DWIDTH	34 0
BBX 34	35 0 -1
BITMAP
0000000000
0000000000
1e00000000
1e00000000
1e00000000
1e00000000
0600000000
0c00000000
1800000000
0000000000
0000000000
0000000000
0000000000
0000000000
0000000000
0000000000
0000000000
0000000000
0000000000
0000000000
0000000000
0000000000
0000000000
0000000000
0000000000
0000000000
0000000000
0000000000
0000000000
0000000000
0000000000
0000000000
0000000000
0000000000
0000000000
ENDCHAR
STARTCHAR 2148
ENCODING 8520
SWIDTH	-8531 0
DWIDTH	34 0
BBX 34	35 0 -1
BITMAP
0000000000
0000000000
0000030600
0000060c00
00000c1800
00000f1e00
00000f1e00
00000f1e00
00000f1e00
0000000000
0000000000
0000000000
0000000000
0000000000
0000000000
0000000000
0000000000
0000000000
0000000000
0000000000
0000000000
0000000000
0000000000
0000000000
0000000000
0000000000
0000000000
0000000000
0000000000
0000000000
0000000000
0000000000
0000000000
0000000000
0000000000
ENDCHAR
STARTCHAR 2149
ENCODING 8521
SWIDTH	-8531 0
DWIDTH	34 0
BBX 34	35 0 -1
BITMAP
0000000000
0000000000
1e3c000000
1e3c000000
1e3c000000
1e3c000000
060c000000
0c18000000
1830000000
0000000000
0000000000
0000000000
0000000000
0000000000
0000000000
0000000000
0000000000
0000000000
0000000000
0000000000
0000000000
0000000000
0000000000
0000000000
0000000000
0000000000
0000000000
0000000000
0000000000
0000000000
0000000000
0000000000
0000000000
0000000000
0000000000
ENDCHAR
STARTCHAR 214a
ENCODING 8522
SWIDTH	-8531 0
DWIDTH	34 0
BBX 34	35 0 -1
BITMAP
0000000000
0000000000
0000000800
0000001c00
0000003800
0000003000
0000007000
000000e000
000000e000
000000c000
000001c000
000001c000
000001c000
0000038000
0000038000
0000038000
0000038000
0000038000
0000038000
0000038000
0000038000
0000038000
0000038000
000001c000
000001c000
000001c000
000000c000
000000e000
000000e000
0000007000
0000003000
0000003800
0000001c00
0000000800
0000000000
ENDCHAR
STARTCHAR 214b
ENCODING 8523
SWIDTH	-8531 0
DWIDTH	34 0
BBX 34	35 0 -1
BITMAP
0000000000
0000000000
0400000000
0e00000000
0700000000
0300000000
0380000000
01c0000000
01c0000000
00c0000000
00e0000000
00e0000000
00e0000000
0070000000
0070000000
0070000000
0070000000
0070000000
0070000000
0070000000
0070000000
0070000000
0070000000
00e0000000
00e0000000
00e0000000
00c0000000
01c0000000
01c0000000
0380000000
0300000000
0700000000
0e00000000
0400000000
0000000000
ENDCHAR
STARTCHAR 214c
ENCODING 8524
SWIDTH	-8531 0
DWIDTH	34 0
BBX 34	35 0 -1
BITMAP
0000000000
0000000000
0000000c00
0000003c00
000000f000
000003c000
0000030000
0000030000
0000030000
0000030000
0000030000
0000030000
0000030000
0000030000
0000030000
0000030000
0000030000
0000030000
0000030000
0000030000
0000030000
0000030000
0000030000
0000030000
0000030000
0000030000
0000030000
0000030000
0000030000
0000030000
000003c000
000000f000
0000003c00
0000000c00
0000000000
ENDCHAR
STARTCHAR 214d
ENCODING 8525
SWIDTH	-8531 0
DWIDTH	34 0
BBX 34	35 0 -1
BITMAP
0000000000
0000000000
0c00000000
0f00000000
03c0000000
00f0000000
0030000000
0030000000
0030000000
0030000000
0030000000
0030000000
0030000000
0030000000
0030000000
0030000000
0030000000
0030000000
0030000000
0030000000
0030000000
0030000000
0030000000
0030000000
0030000000
0030000000
0030000000
0030000000
0030000000
0030000000
00f0000000
03c0000000
0f00000000
0c00000000
0000000000
ENDCHAR
STARTCHAR 214e
ENCODING 8526
SWIDTH	-8531 0
DWIDTH	34 0
BBX 34	35 0 -1
BITMAP
0000000000
0000000000
000003fe00
000003fe00
0000030000
0000030000
0000030000
0000030000
0000030000
0000030000
0000030000
0000030000
0000030000
0000030000
0000030000
0000030000
0000030000
0000030000
0000030000
0000030000
0000030000
0000030000
0000030000
0000030000
0000030000
0000030000
0000030000
0000030000
0000030000
0000030000
0000030000
0000030000
000003fe00
000003fe00
0000000000
ENDCHAR
STARTCHAR 214f
ENCODING 8527
SWIDTH	-8531 0
DWIDTH	34 0
BBX 34	35 0 -1
BITMAP
0000000000
0000000000
1ff0000000
1ff0000000
0030000000
0030000000
0030000000
0030000000
0030000000
0030000000
0030000000
0030000000
0030000000
0030000000
0030000000
0030000000
0030000000
0030000000
0030000000
0030000000
0030000000
0030000000
0030000000
0030000000
0030000000
0030000000
0030000000
0030000000
0030000000
0030000000
0030000000
0030000000
1ff0000000
1ff0000000
0000000000
ENDCHAR
STARTCHAR 2150
ENCODING 8528
SWIDTH	-8531 0
DWIDTH	34 0
BBX 34	35 0 -1
BITMAP
0000000000
0000000000
0000001c00
0000003800
0000007000
0000006000
000000e000
000000e000
000000e000
000000e000
000000e000
0000007000
0000007000
0000007000
0000007000
0000007000
000000e000
000003c000
000003c000
000000e000
0000007000
0000007000
0000007000
0000007000
0000007000
000000e000
000000e000
000000e000
000000e000
000000e000
0000006000
0000007000
0000003800
0000001c00
0000000000
ENDCHAR
STARTCHAR 2151
ENCODING 8529
SWIDTH	-8531 0
DWIDTH	34 0
BBX 34	35 0 -1
BITMAP
0000000000
0000000000
0e00000000
0700000000
0380000000
0180000000
01c0000000
01c0000000
01c0000000
01c0000000
01c0000000
0380000000
0380000000
0380000000
0380000000
0380000000
01c0000000
00f0000000
00f0000000
01c0000000
0380000000
0380000000
0380000000
0380000000
0380000000
01c0000000
01c0000000
01c0000000
01c0000000
01c0000000
0180000000
0380000000
0700000000
0e00000000
0000000000
ENDCHAR
STARTCHAR 2152
ENCODING 8530
SWIDTH	-8531 0
DWIDTH	34 0
BBX 34	35 0 -1
BITMAP
0000000000
0000000000
0000000c00
0000000c00
0000001800
0000001800
0000003000
0000003000
0000006000
0000006000
000000c000
000000c000
0000018000
0000018000
0000030000
0000030000
0000060000
0000060000
0000060000
0000060000
0000030000
0000030000
0000018000
0000018000
000000c000
000000c000
0000006000
0000006000
0000003000
0000003000
0000001800
0000001800
0000000c00
0000000c00
0000000000
ENDCHAR
STARTCHAR 2153
ENCODING 8531
SWIDTH	-8531 0
DWIDTH	34 0
BBX 34	35 0 -1
BITMAP
0000000000
0000000000
0c00000000
0c00000000
0600000000
0600000000
0300000000
0300000000
0180000000
0180000000
00c0000000
00c0000000
0060000000
0060000000
0030000000
0030000000
0018000000
0018000000
0018000000
0018000000
0030000000
0030000000
0060000000
0060000000
00c0000000
00c0000000
0180000000
0180000000
0300000000
0300000000
0600000000
0600000000
0c00000000
0c00000000
0000000000
ENDCHAR
STARTCHAR 2154
ENCODING 8532
SWIDTH	-8531 0
DWIDTH	34 0
BBX 34	35 0 -1
BITMAP
0000000000
0000000000
0000018c00
0000018c00
0000031800
0000031800
0000063000
0000063000
00000c6000
00000c6000
000018c000
000018c000
0000318000
0000318000
0000630000
0000630000
0000c60000
0000c60000
0000c60000
0000c60000
0000630000
0000630000
0000318000
0000318000
000018c000
000018c000
00000c6000
00000c6000
0000063000
0000063000
0000031800
0000031800
0000018c00
0000018c00
0000000000
ENDCHAR
STARTCHAR 2155
ENCODING 8533
SWIDTH	-8531 0
DWIDTH	34 0
BBX 34	35 0 -1
BITMAP
0000000000
0000000000
0c60000000
0c60000000
0630000000
0630000000
0318000000
0318000000
018c000000
018c000000
00c6000000
00c6000000
0063000000
0063000000
0031800000
0031800000
0018c00000
0018c00000
0018c00000
0018c00000
0031800000
0031800000
0063000000
0063000000
00c6000000
00c6000000
018c000000
018c000000
0318000000
0318000000
0630000000
0630000000
0c60000000
0c60000000
0000000000
ENDCHAR
STARTCHAR 2156
ENCODING 8534
SWIDTH	-8531 0
DWIDTH	34 0
BBX 34	35 0 -1
BITMAP
0000000000
0000000000
00001ffc00
00001ffc00
0000180000
0000180000
0000180000
0000180000
0000180000
0000180000
0000180000
0000180000
0000180000
0000180000
0000180000
0000180000
0000180000
0000180000
0000180000
0000180000
0000180000
0000180000
0000000000
0000000000
0000000000
0000000000
0000000000
0000000000
0000000000
0000000000
0000000000
0000000000
0000000000
0000000000
0000000000
ENDCHAR
STARTCHAR 2157
ENCODING 8535
SWIDTH	-8531 0
DWIDTH	34 0
BBX 34	35 0 -1
BITMAP
0000000000
0000000000
0000000000
0000000000
0000000000
0000000000
0000000000
0000000000
0000000000
0000000000
0000000000
0000000000
0000000000
0000000000
0006000000
0006000000
0006000000
0006000000
0006000000
0006000000
0006000000
0006000000
0006000000
0006000000
0006000000
0006000000
0006000000
0006000000
0006000000
0006000000
0006000000
0006000000
0ffe000000
0ffe000000
0000000000
ENDCHAR
STARTCHAR 2158
ENCODING 8536
SWIDTH	-8531 0
DWIDTH	34 0
BBX 34	35 0 -1
BITMAP
0000000000
0000000000
0000fffc00
0000fffc00
0000c00c00
0000c00c00
0000cffc00
0000cffc00
0000cc0000
0000cc0000
0000cc0000
0000cc0000
0000cc0000
0000cc0000
0000cc0000
0000cc0000
0000cc0000
0000cc0000
0000cc0000
0000cc0000
0000cc0000
0000fc0000
0000fc0000
0000000000
0000000000
0000000000
0000000000
0000000000
0000000000
0000000000
0000000000
0000000000
0000000000
0000000000
0000000000
ENDCHAR
STARTCHAR 2159
ENCODING 8537
SWIDTH	-8531 0
DWIDTH	34 0
BBX 34	35 0 -1
BITMAP
0000000000
0000000000
0000000000
0000000000
0000000000
0000000000
0000000000
0000000000
0000000000
0000000000
0000000000
0000000000
0000000000
000fc00000
000fc00000
000cc00000
000cc00000
000cc00000
000cc00000
000cc00000
000cc00000
000cc00000
000cc00000
000cc00000
000cc00000
000cc00000
000cc00000
000cc00000
0ffcc00000
0ffcc00000
0c00c00000
0c00c00000
0fffc00000
0fffc00000
0000000000
ENDCHAR
STARTCHAR 215a
ENCODING 8538
SWIDTH	-8531 0
DWIDTH	34 0
BBX 34	35 0 -1
BITMAP
0000000000
0000000000
00000ff800
00000ff000
00000fe000
00000fc000
00000fc000
00000f8000
00000f8000
00000f0000
00000f0000
00000f0000
00000f0000
00000e0000
00000e0000
00000e0000
00000e0000
00000e0000
00000e0000
00000e0000
00000e0000
00000e0000
00000e0000
00000f0000
00000f0000
00000f0000
00000f0000
00000f8000
00000f8000
00000fc000
00000fc000
00000fe000
00000ff000
00000ff800
0000000000
ENDCHAR
STARTCHAR 215b
ENCODING 8539
SWIDTH	-8531 0
DWIDTH	34 0
BBX 34	35 0 -1
BITMAP
0000000000
0000000000
07fc000000
03fc000000
01fc000000
00fc000000
00fc000000
007c000000
007c000000
003c000000
003c000000
003c000000
003c000000
001c000000
001c000000
001c000000
001c000000
001c000000
001c000000
001c000000
001c000000
001c000000
001c000000
003c000000
003c000000
003c000000
003c000000
007c000000
007c000000
00fc000000
00fc000000
01fc000000
03fc000000
07fc000000
0000000000
ENDCHAR
STARTCHAR 215c
ENCODING 8540
SWIDTH	-8531 0
DWIDTH	34 0
BBX 34	35 0 -1
BITMAP
0000000000
0000000000
0000000000
0000000000
0000000000
0000000000
0000000000
0000c00000
0000c00000
0000c00000
0000c00000
0000c00000
0000c00000
0000c00000
0000c00000
0000c00000
0000c00000
03fffff000
03fffff000
0000c00000
0000c00000
0000c00000
0000c00000
0000c00000
0000c00000
0000c00000
0000c00000
0000c00000
0000c00000
0000000000
0000000000
0000000000
0000000000
0000000000
0000000000
ENDCHAR
STARTCHAR 215d
ENCODING 8541
SWIDTH	-8531 0
DWIDTH	34 0
BBX 34	35 0 -1
BITMAP
0000000000
0000000000
0000000000
0000000000
0000000000
0000000000
0000000000
0000000000
0000000000
0000000000
0000000000
0000000000
0000000000
0000000000
0000000000
0000000000
0000000000
03fffff000
03fffff000
0000000000
0000000000
0000000000
0000000000
0000000000
0000000000
0000000000
0000000000
0000000000
0000000000
0000000000
0000000000
0000000000
0000000000
0000000000
0000000000
ENDCHAR
STARTCHAR 215e
ENCODING 8542
SWIDTH	-8531 0
DWIDTH	34 0
BBX 34	35 0 -1
BITMAP
0000000000
0000000000
0000000000
0000000000
0000c00000
0000c00000
0000c00000
0000c00000
0000c00000
0000c00000
0000c00000
0000c00000
0000c00000
0000c00000
03fffff000
03fffff000
0000c00000
0000c00000
0000c00000
0000c00000
0000c00000
0000c00000
0000c00000
0000c00000
0000c00000
0000c00000
0000000000
0000000000
0000000000
03fffff000
03fffff000
0000000000
0000000000
0000000000
0000000000
ENDCHAR
STARTCHAR 215f
ENCODING 8543
SWIDTH	-8531 0
DWIDTH	34 0
BBX 34	35 0 -1
BITMAP
0000000000
0000000000
0000000000
0000000000
0000000000
0000000000
0000000000
0100002000
0380007000
01c000e000
00e001c000
0070038000
0038070000
001c0e0000
000e1c0000
0007380000
0003f00000
0001e00000
0001e00000
0003f00000
0007380000
000e1c0000
001c0e0000
0038070000
0070038000
00e001c000
01c000e000
0380007000
0100002000
0000000000
0000000000
0000000000
0000000000
0000000000
0000000000
ENDCHAR
STARTCHAR 2160
ENCODING 8544
SWIDTH	-8531 0
DWIDTH	34 0
BBX 34	35 0 -1
BITMAP
0000000000
0000000000
0000000000
0000000000
0000000000
0000000000
0000000000
0000000000
0000000000
0003c00000
0003c00000
0003c00000
0003c00000
0000000000
0000000000
0000000000
0000000000
07ffffe000
07ffffe000
0000000000
0000000000
0000000000
0000000000
0003c00000
0003c00000
0003c00000
0003c00000
0000000000
0000000000
0000000000
0000000000
0000000000
0000000000
0000000000
0000000000
ENDCHAR
STARTCHAR 2161
ENCODING 8545
SWIDTH	-8531 0
DWIDTH	34 0
BBX 34	35 0 -1
BITMAP
0000000000
0000000000
0000000000
0000000000
0000000000
0000000000
0000000000
0000000000
0000000000
0000000000
0000000000
0000000000
0000000000
03fffff000
03fffff000
0000000000
0000000000
0000000000
0000000000
0000000000
03fffff000
03fffff000
0000000000
0000000000
0000000000
0000000000
0000000000
0000000000
0000000000
0000000000
0000000000
0000000000
0000000000
0000000000
0000000000
ENDCHAR
STARTCHAR 2162
ENCODING 8546
SWIDTH	-8531 0
DWIDTH	34 0
BBX 34	35 0 -1
BITMAP
0000000000
0000000000
0000000000
0000000000
0000000000
0000000000
0000000000
0000060000
0000060000
00000c0000
00000c0000
0000180000
0000180000
03fffff000
03fffff000
0000600000
0000600000
0000c00000
0000c00000
0001800000
03fffff000
03fffff000
0003000000
0006000000
0006000000
000c000000
000c000000
0018000000
0018000000
0000000000
0000000000
0000000000
0000000000
0000000000
0000000000
ENDCHAR
STARTCHAR 2163
ENCODING 8547
SWIDTH	-8531 0
DWIDTH	34 0
BBX 34	35 0 -1
BITMAP
0000000000
0000000000
0000000000
0000000000
0000000000
0000004000
000000e000
000003c000
0000070000
00001e0000
0000380000
0000f00000
0001c00000
0007800000
000e000000
003c000000
0070000000
01e0000000
01e0000000
0070000000
003c000000
000e000000
0007800000
0001c00000
0000f00000
0000380000
00001e0000
0000070000
000003c000
000000e000
0000004000
0000000000
0000000000
0000000000
0000000000
ENDCHAR
STARTCHAR 2164
ENCODING 8548
SWIDTH	-8531 0
DWIDTH	34 0
BBX 34	35 0 -1
BITMAP
0000000000
0000000000
0000000000
0000000000
0000000000
0040000000
00e0000000
0078000000
001c000000
000f000000
0003800000
0001e00000
0000700000
00003c0000
00000e0000
0000078000
000001c000
000000f000
000000f000
000001c000
0000078000
00000e0000
00003c0000
0000700000
0001e00000
0003800000
000f000000
001c000000
0078000000
00e0000000
0040000000
0000000000
0000000000
0000000000
0000000000
ENDCHAR
STARTCHAR 2165
ENCODING 8549
SWIDTH	-8531 0
DWIDTH	34 0
BBX 34	35 0 -1
BITMAP
0000000000
0000000000
0000000000
0000000000
0000000000
0000003800
000001f800
00000fc000
00007e0000
0003f00000
001f800000
00fc000000
07e0000000
07e0000000
00fc000000
001f800000
0003f00000
00007e0000
00000fc000
000001f800
0000003800
0000000000
0000000000
0000000000
07fffff800
07fffff800
0000000000
0000000000
0000000000
07fffff800
07fffff800
0000000000
0000000000
0000000000
0000000000
ENDCHAR
STARTCHAR 2166
ENCODING 8550
SWIDTH	-8531 0
DWIDTH	34 0
BBX 34	35 0 -1
BITMAP
0000000000
0000000000
0000000000
0000000000
0000000000
0700000000
07e0000000
00fc000000
001f800000
0003f00000
00007e0000
00000fc000
000001f800
000001f800
00000fc000
00007e0000
0003f00000
001f800000
00fc000000
07e0000000
0700000000
0000000000
0000000000
0000000000
07fffff800
07fffff800
0000000000
0000000000
0000000000
07fffff800
07fffff800
0000000000
0000000000
0000000000
0000000000
ENDCHAR
STARTCHAR 2167
ENCODING 8551
SWIDTH	-8531 0
DWIDTH	34 0
BBX 34	35 0 -1
BITMAP
0000000000
0000000000
0000000000
0000000000
0000000000
0000000000
0000000000
0000000000
0000000000
0000000000
0000000000
0000000000
00f003c000
03fc0ff000
070e1c3800
0607381800
0c03f00c00
0c01e00c00
0c01e00c00
0c03f00c00
0607381800
070e1c3800
03fc0ff000
00f003c000
0000000000
0000000000
0000000000
0000000000
0000000000
0000000000
0000000000
0000000000
0000000000
0000000000
0000000000
ENDCHAR
STARTCHAR 2168
ENCODING 8552
SWIDTH	-8531 0
DWIDTH	34 0
BBX 34	35 0 -1
BITMAP
0000000000
0000000000
0000000000
0000000000
0000000000
0000000000
0000000000
0000000000
0001e00000
0001e00000
0001e00000
0001e00000
0000000000
0000000000
0000000000
0000000000
0000000000
0000000000
0000000000
0000000000
0000000000
0000000000
01e001e000
01e001e000
01e001e000
01e001e000
0000000000
0000000000
0000000000
0000000000
0000000000
0000000000
0000000000
0000000000
0000000000
ENDCHAR
STARTCHAR 2169
ENCODING 8553
SWIDTH	-8531 0
DWIDTH	34 0
BBX 34	35 0 -1
BITMAP
0000000000
0000000000
0000000000
0000000000
0000c00000
0001e00000
0003f00000
0007f80000
000edc0000
001cce0000
0038c70000
0070c38000
00e0c1c000
01c0c0e000
0380c07000
0000c00000
0000c00000
0001e00000
0007f80000
000e1c0000
0018060000
0018060000
0030030000
0030030000
0030030000
0030030000
0018060000
0018060000
000e1c0000
0007f80000
0001e00000
0000000000
0000000000
0000000000
0000000000
ENDCHAR
STARTCHAR 216a
ENCODING 8554
SWIDTH	-8531 0
DWIDTH	34 0
BBX 34	35 0 -1
BITMAP
0000000000
0000000000
0000000000
0000000000
0000000000
0001e00000
0007f80000
000e1c0000
0018060000
0018060000
0030030000
0030030000
0030030000
0030030000
0018060000
0018060000
000e1c0000
0007f80000
0001e00000
0000c00000
0000c00000
0000c00000
01ffffe000
01ffffe000
0000c00000
0000c00000
0000c00000
0000c00000
0000c00000
0000c00000
0000c00000
0000c00000
0000000000
0000000000
0000000000
ENDCHAR
STARTCHAR 216b
ENCODING 8555
SWIDTH	-8531 0
DWIDTH	34 0
BBX 34	35 0 -1
BITMAP
0000000000
0000000000
1f00000000
3f80000000
71c0000000
60c0000000
60c0000000
60c0000000
71c0000000
3f80000000
1f00000000
0000000000
0000000000
0000000000
0000000000
0000000000
0000000000
0000000000
0000000000
0000000000
0000000000
0000000000
0000000000
0000000000
0000000000
0000000000
0000000000
0000000000
0000000000
0000000000
0000000000
0000000000
0000000000
0000000000
0000000000
ENDCHAR
STARTCHAR 216c
ENCODING 8556
SWIDTH	-8531 0
DWIDTH	34 0
BBX 34	35 0 -1
BITMAP
0000000000
0000000000
0180000000
01c0000000
0380000000
0300000000
0700000000
0600000000
0e00000000
0400000000
0000000000
0000000000
0000000000
0000000000
0000000000
0000000000
0000000000
0000000000
0000000000
0000000000
0000000000
0000000000
0000000000
0000000000
0000000000
0000000000
0000000000
0000000000
0000000000
0000000000
0000000000
0000000000
0000000000
0000000000
0000000000
ENDCHAR
STARTCHAR 216d
ENCODING 8557
SWIDTH	-8531 0
DWIDTH	34 0
BBX 34	35 0 -1
BITMAP
0000000000
0000000000
0318000000
039c000000
0738000000
0630000000
0e70000000
0c60000000
1ce0000000
0840000000
0000000000
0000000000
0000000000
0000000000
0000000000
0000000000
0000000000
0000000000
0000000000
0000000000
0000000000
0000000000
0000000000
0000000000
0000000000
0000000000
0000000000
0000000000
0000000000
0000000000
0000000000
0000000000
0000000000
0000000000
0000000000
ENDCHAR
STARTCHAR 216e
ENCODING 8558
SWIDTH	-8531 0
DWIDTH	34 0
BBX 34	35 0 -1
BITMAP
0000000000
0000000000
0000000000
0700000000
1fc0000000
1dc0000000
38e03f0000
3060ffc000
38e3fff000
1dc7c0f800
1fcf003c00
070e001c00
001c000e00
001c000c00
0038000000
0038000000
0038000000
0038000000
0038000000
0038000000
0038000000
0038000000
0038000000
001c000c00
001c000e00
000e001c00
000f003c00
0007c0f800
0003fff000
0000ffe000
00003f8000
0000000000
0000000000
0000000000
0000000000
ENDCHAR
STARTCHAR 216f
ENCODING 8559
SWIDTH	-8531 0
DWIDTH	34 0
BBX 34	35 0 -1
BITMAP
0000000000
0000000000
0000000000
0000000000
01e000f000
00e000e000
007001c000
007803c000
0038038000
001c070000
001e0f0000
000e0e0000
00071c0000
0007bc0000
0003b80000
0001f00000
03fffff800
03fffff800
0000e00000
0000e00000
0000e00000
0000e00000
03fffff800
03fffff800
0000e00000
0000e00000
0000e00000
0000e00000
0000e00000
0000e00000
0000e00000
0000e00000
0000000000
0000000000
0000000000
ENDCHAR
STARTCHAR 2170
ENCODING 8560
SWIDTH	-8531 0
DWIDTH	34 0
BBX 34	35 0 -1
BITMAP
0000000000
0000000000
0000c00000
0000c00000
0000c00000
0007f80000
001ffe0000
003fff0000
0078c78000
0070c38000
00e0c1c000
00e0c1c000
00e0c1c000
0070c00000
0078c00000
003fc00000
001ff00000
0007fc0000
0000ff0000
0000cf8000
0000c3c000
0000c1c000
01c0c0e000
01c0c0e000
01c0c0e000
01c0c0e000
00e0c1c000
00f8c7c000
007fff8000
001ffe0000
0007f80000
0000c00000
0000c00000
0000c00000
0000000000
ENDCHAR
STARTCHAR 2171
ENCODING 8561
SWIDTH	-8531 0
DWIDTH	34 0
BBX 34	35 0 -1
BITMAP
0000000000
0000000000
0000000000
0000008000
000001c000
0000018000
0003f30000
000fff0000
003fff0000
007c0f8000
00f01fc000
00e019c000
01c030e000
01c070c000
0380600000
0380c00000
0380c00000
0381800000
0383800000
0383000000
0386000000
038e000000
01cc00c000
01d800e000
00f801c000
00f003c000
007c0f8000
00ffff0000
00cffc0000
0183f00000
0380000000
0100000000
0000000000
0000000000
0000000000
ENDCHAR
STARTCHAR 2172
ENCODING 8562
SWIDTH	-8531 0
DWIDTH	34 0
BBX 34	35 0 -1
BITMAP
0000000000
0000000000
0000000000
0000000000
0000fc0000
0003ff0000
0007ff8000
0007038000
000e01c000
000e01c000
000e000000
000e000000
000e000000
000e000000
000e000000
000e000000
01fffc0000
01fffc0000
01fffc0000
000e000000
000e000000
000e000000
000e000000
000e000000
001c000000
001c000000
003c000000
0078000000
00f0000000
03fffff800
03fffff800
03fffff800
0000000000
0000000000
0000000000
ENDCHAR
STARTCHAR 2173
ENCODING 8563
SWIDTH	-8531 0
DWIDTH	34 0
BBX 34	35 0 -1
BITMAP
0000000000
0000000000
0000000000
0000000000
00e0000800
03f8001c00
071c003800
060c007000
0c0600e000
0c0601c000
0c06038000
0c06070000
0c06060000
0c060c0000
060c1c0000
071c380000
03f8700000
00e0e00000
0001c1c000
000387f000
00070e3800
000e0c1800
000c180c00
0018180c00
0038180c00
0070180c00
00e0180c00
01c0180c00
03800c1800
07000e3800
0e0007f000
040001c000
0000000000
0000000000
0000000000
ENDCHAR
STARTCHAR 2174
ENCODING 8564
SWIDTH	-8531 0
DWIDTH	34 0
BBX 34	35 0 -1
BITMAP
0000000000
0000000000
0000000000
0000000000
000e038000
000e038000
000e038000
000e038000
000e038000
000e038000
000e038000
07fffffc00
07fffffc00
07fffffc00
001c070000
001c070000
001c070000
001c070000
001c070000
001c070000
001c070000
07fffffc00
07fffffc00
07fffffc00
00380e0000
00380e0000
00380e0000
00380e0000
00380e0000
00380e0000
00380e0000
00380e0000
0000000000
0000000000
0000000000
ENDCHAR
STARTCHAR 2175
ENCODING 8565
SWIDTH	-8531 0
DWIDTH	34 0
BBX 34	35 0 -1
BITMAP
0000000000
0000000000
0000000000
0000000000
0003800000
000fe00000
001ff00000
001c700000
0038380000
0038380000
0038380000
0038700000
001cf00000
001de00000
000fc00000
000f800000
000f000000
003f800000
007bc06000
00f1c07000
01e0e0e000
01c0f0e000
038079c000
038039c000
03801f8000
03801f8000
03800f0000
01c01f8000
01e07fc000
00fff9e000
007fe0f000
001f807800
0000000000
0000000000
0000000000
ENDCHAR
STARTCHAR 2176
ENCODING 8566
SWIDTH	-8531 0
DWIDTH	34 0
BBX 34	35 0 -1
BITMAP
0000000000
0000000000
0000000000
0000000000
0000000000
0000000000
0000000000
0001c00000
0001c00000
0001c00000
0041c10000
00e1c38000
00f1c78000
0079cf0000
003dde0000
001ffc0000
000ff80000
0007f00000
000ff80000
001ffc0000
003dde0000
0079cf0000
00f1c78000
00e1c38000
0041c10000
0001c00000
0001c00000
0001c00000
0000000000
0000000000
0000000000
0000000000
0000000000
0000000000
0000000000
ENDCHAR
STARTCHAR 2177
ENCODING 8567
SWIDTH	-8531 0
DWIDTH	34 0
BBX 34	35 0 -1
BITMAP
0000000000
0000000000
0000000000
0000000000
0000000000
0003f80000
000fff0000
003c03c000
007000e000
00e0006000
01c0003000
0180003000
0300f61800
0303ff1800
060f0e1800
061e0e1800
061c0e1800
06380e1800
06381c3000
06381c3000
06383c6400
063c7cec00
031fffcc00
030f8f1800
0180003800
01c0007000
00e000e000
007807c000
001fff0000
0007f80000
0000000000
0000000000
0000000000
0000000000
0000000000
ENDCHAR
STARTCHAR 2178
ENCODING 8568
SWIDTH	-8531 0
DWIDTH	34 0
BBX 34	35 0 -1
BITMAP
0000000000
0000000000
0000000000
0001e00000
0007f80000
000ffc0000
000e1c0000
001c0e0000
001c0e0000
001c0e0000
000e000000
000f000000
0007c00000
0007f00000
000ff80000
000e3c0000
001c1c0000
001c0e0000
001c0e0000
000e0e0000
000f1c0000
0007fc0000
0003f80000
0000f80000
00003c0000
00001c0000
001c0e0000
001c0e0000
001c0e0000
000e1e0000
000ffc0000
0007f80000
0001e00000
0000000000
0000000000
ENDCHAR
STARTCHAR 2179
ENCODING 8569
SWIDTH	-8531 0
DWIDTH	34 0
BBX 34	35 0 -1
BITMAP
0000000000
0000000000
0000c00000
0000c00000
0000c00000
0001e00000
0001e00000
0001e00000
0001e00000
0003300000
0003300000
0003300000
0006180000
0006180000
7ffe1fff80
3ffc0fff00
1c00000e00
0700003800
0380007000
01e001e000
0070038000
0038070000
0030030000
0030030000
0030c10000
0061e18000
0063f18000
006f3d8000
00dc0ec000
00f807c000
00f003c000
01c000e000
0180006000
0300003000
0000000000
ENDCHAR
STARTCHAR 217a
ENCODING 8570
SWIDTH	-8531 0
DWIDTH	34 0
BBX 34	35 0 -1
BITMAP
0000000000
0000000000
0000c00000
0000c00000
0000c00000
0001e00000
0001e00000
0001e00000
0001e00000
0003f00000
0003f00000
0003f00000
0007f80000
0007f80000
7fffffff80
3fffffff00
1ffffffe00
07fffff800
03fffff000
01ffffe000
007fff8000
003fff0000
003fff0000
003fff0000
003fff0000
007fff8000
007fff8000
007f3f8000
00fc0fc000
00f807c000
00f003c000
01c000e000
0180006000
0300003000
0000000000
ENDCHAR
STARTCHAR 217b
ENCODING 8571
SWIDTH	-8531 0
DWIDTH	34 0
BBX 34	35 0 -1
BITMAP
0000000000
0000000000
0000000000
0000000000
0003f00000
001ffe0000
007c0f8000
00e001c000
01c000e000
0380007000
0700003800
0600001800
0c00000c00
0c00000c00
0c00000c00
1800000600
1800000600
1800000600
1800000600
1800000600
1800000600
0c00000c00
0c00000c00
0c00000c00
0600001800
0700003800
0380007000
01c000e000
00e001c000
007c0f8000
001ffe0000
0003f00000
0000000000
0000000000
0000000000
ENDCHAR
STARTCHAR 217c
ENCODING 8572
SWIDTH	-8531 0
DWIDTH	34 0
BBX 34	35 0 -1
BITMAP
0000000000
0000000000
0000000000
0000000000
0003f00000
001ffe0000
007fff8000
00ffffc000
01ffffe000
03fffff000
07fffff800
07fffff800
0ffffffc00
0ffffffc00
0ffffffc00
1ffffffe00
1ffffffe00
1ffffffe00
1ffffffe00
1ffffffe00
1ffffffe00
0ffffffc00
0ffffffc00
0ffffffc00
07fffff800
07fffff800
03fffff000
01ffffe000
00ffffc000
007fff8000
001ffe0000
0003f00000
0000000000
0000000000
0000000000
ENDCHAR
STARTCHAR 217d
ENCODING 8573
SWIDTH	-8531 0
DWIDTH	34 0
BBX 34	35 0 -1
BITMAP
0000000000
0000000000
0000000000
0000000000
0003f00000
001ffe0000
007c0f8000
00e001c000
01c000e000
0380007000
0703f03800
060ffc1800
0c1c0e0c00
0c38070c00
0c30030c00
1860018600
1860018600
1860018600
1860018600
1860018600
1860018600
0c30030c00
0c38070c00
0c1c0e0c00
060ffc1800
0703f03800
0380007000
01c000e000
00e001c000
007c0f8000
001ffe0000
0003f00000
0000000000
0000000000
0000000000
ENDCHAR
STARTCHAR 217e
ENCODING 8574
SWIDTH	-8531 0
DWIDTH	34 0
BBX 34	35 0 -1
BITMAP
0000000000
0000000000
0000000000
0000400000
0000e00000
0001f00000
0003b80000
00071c0000
000e0e0000
001c070000
0038038000
007001c000
00e000e000
01c0007000
0380003800
0700001c00
0e00000e00
1c00000700
3800000380
1c00000700
0e00000e00
0700001c00
0380003800
01c0007000
00e000e000
007001c000
0038038000
001c070000
000e0e0000
00071c0000
0003f80000
0001f00000
0000e00000
0000400000
0000000000
ENDCHAR
STARTCHAR 2221
ENCODING 8737
SWIDTH	-8531 0
DWIDTH	34 0
BBX 34	35 0 -1
BITMAP
0000000000
0000000000
0000000000
0000400000
0000e00000
0001f00000
0003f80000
0007fc0000
000ffe0000
001fff0000
003fff8000
007fffc000
00ffffe000
01fffff000
03fffff800
07fffffc00
0ffffffe00
1fffffff00
3fffffff80
1fffffff00
0ffffffe00
07fffffc00
03fffff800
01fffff000
00ffffe000
007fffc000
003fff8000
001fff0000
000ffe0000
0007fc0000
0003f80000
0001f00000
0000e00000
0000400000
0000000000
ENDCHAR
STARTCHAR 2222
ENCODING 8738
SWIDTH	-8531 0
DWIDTH	34 0
BBX 34	35 0 -1
BITMAP
0000000000
0000000000
0000000000
0000000000
0000000000
0000000000
07fffff800
07fffff800
0600001800
0600001800
0600001800
0600001800
0600001800
0600001800
0600001800
0600001800
0600001800
0600001800
0600001800
0600001800
0600001800
0600001800
0600001800
0600001800
0600001800
0600001800
0600001800
0600001800
07fffff800
07fffff800
0000000000
0000000000
0000000000
0000000000
0000000000
ENDCHAR
STARTCHAR 2223
ENCODING 8739
SWIDTH	-8531 0
DWIDTH	34 0
BBX 34	35 0 -1
BITMAP
0000000000
0000000000
0000000000
0000000000
0000000000
0000000000
07fffff800
07fffff800
07fffff800
07fffff800
07fffff800
07fffff800
07fffff800
07fffff800
07fffff800
07fffff800
07fffff800
07fffff800
07fffff800
07fffff800
07fffff800
07fffff800
07fffff800
07fffff800
07fffff800
07fffff800
07fffff800
07fffff800
07fffff800
07fffff800
0000000000
0000000000
0000000000
0000000000
0000000000
ENDCHAR
STARTCHAR 2224
ENCODING 8740
SWIDTH	-8531 0
DWIDTH	34 0
BBX 34	35 0 -1
BITMAP
0000000000
0000000000
0000000000
0000000000
0000c00000
0000c00000
0001e00000
0001e00000
0003f00000
0003300000
0007380000
0006180000
000e1c0000
000c0c0000
001c0e0000
0018060000
0038070000
0030030000
0070038000
0060018000
00e001c000
00c000c000
01c000e000
0180006000
0380007000
0300003000
0700003800
0600001800
0e00001c00
0ffffffc00
1ffffffe00
0000000000
0000000000
0000000000
0000000000
ENDCHAR
STARTCHAR 2225
ENCODING 8741
SWIDTH	-8531 0
DWIDTH	34 0
BBX 34	35 0 -1
BITMAP
0000000000
0000000000
0000000000
0000000000
0000c00000
0000c00000
0001e00000
0001e00000
0003f00000
0003f00000
0007f80000
0007f80000
000ffc0000
000ffc0000
001ffe0000
001ffe0000
003fff0000
003fff0000
007fff8000
007fff8000
00ffffc000
00ffffc000
01ffffe000
01ffffe000
03fffff000
03fffff000
07fffff800
07fffff800
0ffffffc00
0ffffffc00
1ffffffe00
0000000000
0000000000
0000000000
0000000000
ENDCHAR
STARTCHAR 2226
ENCODING 8742
SWIDTH	-8531 0
DWIDTH	34 0
BBX 34	35 0 -1
BITMAP
0000000000
0000000000
0000000000
0000000000
0000000000
0000000000
1ffffffe00
0ffffffc00
0e00001c00
0600001800
0700003800
0300003000
0380007000
0180006000
01c000e000
00c000c000
00e001c000
0060018000
0070038000
0030030000
0038070000
0018060000
001c0e0000
000c0c0000
000e1c0000
0006180000
0007380000
0003300000
0003f00000
0001e00000
0001e00000
0000c00000
0000c00000
0000000000
0000000000
ENDCHAR
STARTCHAR 2227
ENCODING 8743
SWIDTH	-8531 0
DWIDTH	34 0
BBX 34	35 0 -1
BITMAP
0000000000
0000000000
0000000000
0000000000
0000000000
0000000000
1ffffffe00
0ffffffc00
0ffffffc00
07fffff800
07fffff800
03fffff000
03fffff000
01ffffe000
01ffffe000
00ffffc000
00ffffc000
007fff8000
007fff8000
003fff0000
003fff0000
001ffe0000
001ffe0000
000ffc0000
000ffc0000
0007f80000
0007f80000
0003f00000
0003f00000
0001e00000
0001e00000
0000c00000
0000c00000
0000000000
0000000000
ENDCHAR
STARTCHAR 2228
ENCODING 8744
SWIDTH	-8531 0
DWIDTH	34 0
BBX 34	35 0 -1
BITMAP
0000000000
0000000000
0000000000
0000000000
0000000000
0400000800
0e01e01c00
0701e03800
0381e07000
01c1e0e000
00e001c000
0070038000
0038070000
001c0e0000
000e1c0000
0007380000
0783f07800
0781e07800
0781e07800
0783f07800
0007380000
000e1c0000
001c0e0000
0038070000
0070038000
00e001c000
01c1e0e000
0381e07000
0701e03800
0e01e01c00
0400000800
0000000000
0000000000
0000000000
0000000000
ENDCHAR
STARTCHAR 2229
ENCODING 8745
SWIDTH	-8531 0
DWIDTH	34 0
BBX 34	35 0 -1
BITMAP
0000000000
0000000000
0000000000
0000000000
0ffffffe00
0ffffffe00
0ffffffe00
0000000000
0000000000
0000000000
0000000000
0000000000
0ffffffe00
0ffffffe00
0ffffffe00
0000e00000
0000e00000
0000e00000
0000e00000
0000e00000
0000e00000
0000e00000
0000e00000
0000e00000
0000e00000
0000e00000
0000e00000
0000e00000
0000e00000
0000e00000
0000e00000
0000e00000
0000000000
0000000000
0000000000
ENDCHAR
STARTCHAR 222a
ENCODING 8746
SWIDTH	-8531 0
DWIDTH	34 0
BBX 34	35 0 -1
BITMAP
0000000000
0000000000
0000000000
0000000000
0000000000
0000000000
0000000000
0000000000
0000000000
0000000000
0000004000
0000006000
0000007000
0000003800
0000001c00
0000000e00
0000000700
7fffffff80
7fffffff80
0000000700
0000000e00
0000001c00
0000003800
0000007000
0000006000
0000004000
0000000000
0000000000
0000000000
0000000000
0000000000
0000000000
0000000000
0000000000
0000000000
ENDCHAR
STARTCHAR 222b
ENCODING 8747
SWIDTH	-8531 0
DWIDTH	34 0
BBX 34	35 0 -1
BITMAP
0000000000
0000000000
0000000000
0000000000
0000000000
0000000000
0000000000
0000000000
0000000000
0000000000
0080000000
0180000000
0380000000
0700000000
0e00000000
1c00000000
3800000000
7fffffff80
7fffffff80
3800000000
1c00000000
0e00000000
0700000000
0380000000
0180000000
0080000000
0000000000
0000000000
0000000000
0000000000
0000000000
0000000000
0000000000
0000000000
0000000000
ENDCHAR
STARTCHAR 222c
ENCODING 8748
SWIDTH	-8531 0
DWIDTH	34 0
BBX 34	35 0 -1
BITMAP
0000000000
0000000000
0000c00000
0001e00000
0003f00000
0007f80000
000edc0000
001cce0000
0038c70000
0070c38000
0000c00000
0000c00000
0000c00000
0000c00000
0000c00000
0000c00000
0000c00000
0000c00000
0000c00000
0000c00000
0000c00000
0000c00000
0000c00000
0000c00000
0000c00000
0000c00000
0000c00000
0000c00000
0000c00000
0000c00000
0000c00000
0000c00000
0000c00000
0000c00000
0000000000
ENDCHAR
STARTCHAR 222d
ENCODING 8749
SWIDTH	-8531 0
DWIDTH	34 0
BBX 34	35 0 -1
BITMAP
0000000000
0000000000
0000c00000
0000c00000
0000c00000
0000c00000
0000c00000
0000c00000
0000c00000
0000c00000
0000c00000
0000c00000
0000c00000
0000c00000
0000c00000
0000c00000
0000c00000
0000c00000
0000c00000
0000c00000
0000c00000
0000c00000
0000c00000
0000c00000
0000c00000
0000c00000
0070c38000
0038c70000
001cce0000
000edc0000
0007f80000
0003f00000
0001e00000
0000c00000
0000000000
ENDCHAR
STARTCHAR 222e
ENCODING 8750
SWIDTH	-8531 0
DWIDTH	34 0
BBX 34	35 0 -1
BITMAP
0000000000
0000000000
0000000000
0000000000
0000000000
0000000000
0000000000
03fffff000
03fffff000
03fffff000
03fffff000
03fffff000
03fffff000
03fffff000
03fffff000
0000000000
0000000000
0000000000
0000000000
0000000000
0000000000
0000000000
03fffff000
03fffff000
03fffff000
03fffff000
03fffff000
03fffff000
03fffff000
03fffff000
0000000000
0000000000
0000000000
0000000000
0000000000
ENDCHAR
STARTCHAR 223a
ENCODING 8762
SWIDTH	-8531 0
DWIDTH	34 0
BBX 34	35 0 -1
BITMAP
0000000000
0000000000
0000000000
0000000000
0000000000
0000000000
0000000000
0000000000
001ffff800
007ffff800
01e0000000
0180000000
0300000000
0300000000
0600000000
0600000000
0600000000
07fffff800
07fffff800
0600000000
0600000000
0600000000
0300000000
0300000000
0180000000
01e0000000
007ffff800
001ffff800
0000000000
0000000000
0000000000
0000000000
0000000000
0000000000
0000000000
ENDCHAR
STARTCHAR 223b
ENCODING 8763
SWIDTH	-8531 0
DWIDTH	34 0
BBX 34	35 0 -1
BITMAP
0000000000
0000000000
0000000000
0000000000
0000000000
0000000000
0000000000
0000000000
07fffe0000
07ffff8000
000001e000
0000006000
0000003000
0000003000
0000001800
0000001800
0000001800
07fffff800
07fffff800
0000001800
0000001800
0000001800
0000003000
0000003000
0000006000
000001e000
07ffff8000
07fffe0000
0000000000
0000000000
0000000000
0000000000
0000000000
0000000000
0000000000
ENDCHAR
STARTCHAR 223c
ENCODING 8764
SWIDTH	-8531 0
DWIDTH	34 0
BBX 34	35 0 -1
BITMAP
0000000000
0000000000
0000000000
0000000000
0000000000
0000000000
003ffff800
00fffff800
01c0000000
0380000000
0300000000
0600000000
0600000000
0600000000
0600000000
0600000000
0600000000
0600000000
0300000000
0380000000
01c0000000
00fffff800
003ffff800
0000000000
0000000000
0000000000
0000000000
0000000000
07fffff800
07fffff800
0000000000
0000000000
0000000000
0000000000
0000000000
ENDCHAR
STARTCHAR 223d
ENCODING 8765
SWIDTH	-8531 0
DWIDTH	34 0
BBX 34	35 0 -1
BITMAP
0000000000
0000000000
0000000000
0000000000
0000000000
0000000000
07ffff0000
07ffffc000
000000e000
0000007000
0000003000
0000001800
0000001800
0000001800
0000001800
0000001800
0000001800
0000001800
0000003000
0000007000
000000e000
07ffffc000
07ffff0000
0000000000
0000000000
0000000000
0000000000
0000000000
07fffff800
07fffff800
0000000000
0000000000
0000000000
0000000000
0000000000
ENDCHAR
STARTCHAR 223e
ENCODING 8766
SWIDTH	-8531 0
DWIDTH	34 0
BBX 34	35 0 -1
BITMAP
0000000000
0000000000
0000000000
0000000000
0000000000
0000000000
0000000000
0000000000
0000000000
001ffff800
007ffff800
01e0000000
0180000000
0300000000
0300000000
0600000000
0600000000
0600000000
0600000000
0600000000
0600000000
0300000000
0300000000
0180000000
01e0000000
007ffff800
001ffff800
0000000000
0000000000
0000000000
0000000000
0000000000
0000000000
0000000000
0000000000
ENDCHAR
STARTCHAR 223f
ENCODING 8767
SWIDTH	-8531 0
DWIDTH	34 0
BBX 34	35 0 -1
BITMAP
0000000000
0000000000
0000000000
0000000000
0000000000
0000000000
0000000000
0000000000
0000000000
07fffe0000
07ffff8000
000001e000
0000006000
0000003000
0000003000
0000001800
0000001800
0000001800
0000001800
0000001800
0000001800
0000003000
0000003000
0000006000
000001e000
07ffff8000
07fffe0000
0000000000
0000000000
0000000000
0000000000
0000000000
0000000000
0000000000
0000000000
ENDCHAR
STARTCHAR 2240
ENCODING 8768
SWIDTH	-8531 0
DWIDTH	34 0
BBX 34	35 0 -1
BITMAP
0000000000
0000000000
0000000000
0000000000
0000000000
0000000000
00c000c000
00c000c000
00c000c000
00c000c000
00c000c000
00c000c000
00c000c000
00c000c000
00c000c000
00c000c000
00c000c000
00c000c000
00c000c000
00c000c000
00c000c000
00c000c000
00c000c000
00c000c000
0060018000
0060018000
0030030000
003c0f0000
000ffc0000
0003f00000
0000000000
0000000000
0000000000
0000000000
0000000000
ENDCHAR
STARTCHAR 2241
ENCODING 8769
SWIDTH	-8531 0
DWIDTH	34 0
BBX 34	35 0 -1
BITMAP
0000000000
0000000000
0000000000
0000000000
0000000000
0000000000
0003f00000
000ffc0000
003c0f0000
0030030000
0060018000
0060018000
00c000c000
00c000c000
00c000c000
00c000c000
00c000c000
00c000c000
00c000c000
00c000c000
00c000c000
00c000c000
00c000c000
00c000c000
00c000c000
00c000c000
00c000c000
00c000c000
00c000c000
00c000c000
0000000000
0000000000
0000000000
0000000000
0000000000
ENDCHAR
STARTCHAR 224a
ENCODING 8778
SWIDTH	-8531 0
DWIDTH	34 0
BBX 34	35 0 -1
BITMAP
0000000000
0000000000
0000000000
0000000000
0000c00000
0000c00000
0001e00000
0001e00000
0003300000
0003300000
0006180000
0006180000
000c0c0000
000c0c0000
0018060000
0018060000
0030030000
0030030000
0060018000
0060018000
00c000c000
00c000c000
0180006000
0180006000
0300003000
0300003000
0600001800
0600001800
0c00000c00
0c00000c00
0000000000
0000000000
0000000000
0000000000
0000000000
ENDCHAR
STARTCHAR 224b
ENCODING 8779
SWIDTH	-8531 0
DWIDTH	34 0
BBX 34	35 0 -1
BITMAP
0000000000
0000000000
0000000000
0000000000
0000000000
0000000000
0c00000c00
0c00000c00
0600001800
0600001800
0300003000
0300003000
0180006000
0180006000
00c000c000
00c000c000
0060018000
0060018000
0030030000
0030030000
0018060000
0018060000
000c0c0000
000c0c0000
0006180000
0006180000
0003300000
0003300000
0001e00000
0001e00000
0000c00000
0000c00000
0000000000
0000000000
0000000000
ENDCHAR
STARTCHAR 224c
ENCODING 8780
SWIDTH	-8531 0
DWIDTH	34 0
BBX 34	35 0 -1
BITMAP
0000000000
0000000000
0000000000
0000000000
0000000000
0000000000
0000000000
0000000000
0000000000
0000000000
0000000000
0000000000
0ffffffc00
0ffffffc00
0000000c00
0000000c00
0000000c00
0000000c00
0000000c00
0000000c00
0000000c00
0000000c00
0000000c00
0000000c00
0000000000
0000000000
0000000000
0000000000
0000000000
0000000000
0000000000
0000000000
0000000000
0000000000
0000000000
ENDCHAR
STARTCHAR 224d
ENCODING 8781
SWIDTH	-8531 0
DWIDTH	34 0
BBX 34	35 0 -1
BITMAP
0000000000
0000000000
0000000000
0000000000
0000000000
0000000000
0000000000
0000000000
0000020000
0000030000
0000038000
000001c000
000000e000
1ffffff000
1ffffff800
0000001c00
0000000e00
0000000700
0000000380
0000000700
0000000e00
0000001c00
1ffffff800
1ffffff000
000000e000
000001c000
0000038000
0000030000
0000020000
0000000000
0000000000
0000000000
0000000000
0000000000
0000000000
ENDCHAR
STARTCHAR 224e
ENCODING 8782
SWIDTH	-8531 0
DWIDTH	34 0
BBX 34	35 0 -1
BITMAP
0000000000
0000000000
0000000000
0000000000
0000000000
0000000000
0000000000
0000000000
0010020000
0030030000
0070038000
00e001c000
01c000e000
03fffff000
07fffff800
0e00001c00
1c00000e00
3800000700
7000000380
3800000700
1c00000e00
0e00001c00
07fffff800
03fffff000
01c000e000
00e001c000
0070038000
0030030000
0010020000
0000000000
0000000000
0000000000
0000000000
0000000000
0000000000
ENDCHAR
STARTCHAR 224f
ENCODING 8783
SWIDTH	-8531 0
DWIDTH	34 0
BBX 34	35 0 -1
BITMAP
0000000000
0000000000
0000000000
0000000000
0000000000
1c00000e00
0c00000c00
0e00001c00
0600001800
0700003800
0300003000
0380007000
0180006000
01c000e000
00ffffc000
00ffffc000
0060018000
0070038000
0030030000
0038070000
0018060000
001c0e0000
000c0c0000
000e1c0000
0006180000
0007380000
0003300000
0003f00000
0001e00000
0001e00000
0000c00000
0000c00000
0000000000
0000000000
0000000000
ENDCHAR
STARTCHAR 2250
ENCODING 8784
SWIDTH	-8531 0
DWIDTH	34 0
BBX 34	35 0 -1
BITMAP
0000000000
0000000000
0000000000
0000000000
0000000000
0000000000
0000000000
03ffffe000
03ffffe000
0000006000
0000006000
0000006000
0000006000
0000006000
0000006000
0000006000
0000006000
03ffffe000
03ffffe000
0000006000
0000006000
0000006000
0000006000
0000006000
0000006000
0000006000
0000006000
03ffffe000
03ffffe000
0000000000
0000000000
0000000000
0000000000
0000000000
0000000000
ENDCHAR
STARTCHAR 225c
ENCODING 8796
SWIDTH	-8531 0
DWIDTH	34 0
BBX 34	35 0 -1
BITMAP
0000000000
0000000000
0000000000
0000000000
0000001000
0000003800
0000007000
000000e000
000001c000
0000038000
0000070000
00000e0000
00001c0000
0000380000
0000700000
0000e00000
0001c00000
0003800000
0007000000
000e000000
001c000000
0038000000
0070000000
00e0000000
01c0000000
0380000000
0700000000
0ffffffc00
1ffffffc00
0000000000
0000000000
0000000000
0000000000
0000000000
0000000000
ENDCHAR
STARTCHAR 225d
ENCODING 8797
SWIDTH	-8531 0
DWIDTH	34 0
BBX 34	35 0 -1
BITMAP
0000000000
0000000000
0000000000
0000000000
0000000000
0000000000
0000c00000
0000c00000
0000c00000
0000c00000
0000c00000
0000c00000
0000c00000
0000c00000
0000c00000
0000c00000
0000c00000
0000c00000
0000c00000
0000c00000
0000c00000
0000c00000
0000c00000
0000c00000
0000c00000
0000c00000
0000c00000
1ffffffe00
1ffffffe00
0000000000
0000000000
0000000000
0000000000
0000000000
0000000000
ENDCHAR
STARTCHAR 225e
ENCODING 8798
SWIDTH	-8531 0
DWIDTH	34 0
BBX 34	35 0 -1
BITMAP
0000000000
0000000000
0000000000
0007f80000
007fff8000
01fc0fe000
07c000f800
0f00003c00
3c00000f00
7000000380
2000000100
0000000000
0000000000
0000000000
0000000000
0000000000
0000000000
0000000000
0000000000
0000000000
0000000000
0000000000
0000000000
0000000000
0000000000
0000000000
0000000000
0000000000
0000000000
0000000000
0000000000
0000000000
0000000000
0000000000
0000000000
ENDCHAR
STARTCHAR 225f
ENCODING 8799
SWIDTH	-8531 0
DWIDTH	34 0
BBX 34	35 0 -1
BITMAP
0000000000
0000000000
0000000000
0000000000
0001f80000
0007fe0000
000e070000
001c030000
0038018000
0010018000
0000018000
0000018000
0000018000
0000018000
0000018000
0003c18000
000ff38000
001c3b0000
00381b0000
00300f0000
00600f0000
0060060000
00c0060000
00c00e0000
00c00c0000
00c01c0000
00c0180000
00c0380000
0060700000
0071e00000
003fc00000
000f000000
0000000000
0000000000
0000000000
ENDCHAR
STARTCHAR 2260
ENCODING 8800
SWIDTH	-8531 0
DWIDTH	34 0
BBX 34	35 0 -1
BITMAP
0000000000
0000000000
0000000000
0000000000
0000000000
0000000000
0ffffffc00
0ffffffc00
0600001800
0700001800
0300003000
0380003000
0180006000
01c0006000
00c000c000
00e000c000
0060018000
0070018000
0030030000
0038030000
0018060000
001c060000
000c0c0000
000e0c0000
0006180000
0007180000
0003300000
0003b00000
0001e00000
0001e00000
0000c00000
0000c00000
0000000000
0000000000
0000000000
ENDCHAR
STARTCHAR 2261
ENCODING 8801
SWIDTH	-8531 0
DWIDTH	34 0
BBX 34	35 0 -1
BITMAP
0000000000
0000000000
0000000000
0000000000
0000000000
0000000000
0000000000
0000000000
0000000000
03fffff000
03fffff000
0000000000
0000000000
0000000000
0000000000
0000000000
0000000000
03fffff000
03fffff000
0000000000
0000000000
0000000000
0000000000
0000000000
0000000000
03fffff000
03fffff000
0000000000
0000000000
0000000000
0000000000
0000000000
0000000000
0000000000
0000000000
ENDCHAR
STARTCHAR 2262
ENCODING 8802
SWIDTH	-8531 0
DWIDTH	34 0
BBX 34	35 0 -1
BITMAP
0000000000
0000000000
0000000000
0000000000
0000000000
0000000000
003c000000
003c000000
003c000000
003c000000
0000000000
0000000000
0000000000
03fffff000
03fffff000
0000000000
0000000000
0000000000
0000000000
0000000000
03fffff000
03fffff000
0000000000
0000000000
0000000000
00000f0000
00000f0000
00000f0000
00000f0000
0000000000
0000000000
0000000000
0000000000
0000000000
0000000000
ENDCHAR
STARTCHAR 2263
ENCODING 8803
SWIDTH	-8531 0
DWIDTH	34 0
BBX 34	35 0 -1
BITMAP
0000000000
0000000000
0000000000
0000000000
0000000000
0000080200
00001c0700
0000781e00
0000e03800
0003c0f000
000701c000
001e078000
00380e0000
00f03c0000
01c0700000
0781e00000
0e03800000
3c0f000000
3c0f000000
0e03800000
0781e00000
01c0700000
00f03c0000
00380e0000
001e078000
000701c000
0003c0f000
0000e03800
0000781e00
00001c0700
0000080200
0000000000
0000000000
0000000000
0000000000
ENDCHAR
STARTCHAR 2264
ENCODING 8804
SWIDTH	-8531 0
DWIDTH	34 0
BBX 34	35 0 -1
BITMAP
0000000000
0000000000
0000000000
0000000000
0000000000
1004000000
380e000000
1e07800000
0701c00000
03c0f00000
00e0380000
00781e0000
001c070000
000f03c000
000380e000
0001e07800
0000701c00
00003c0f00
00003c0f00
0000701c00
0001e07800
000380e000
000f03c000
001c070000
00781e0000
00e0380000
03c0f00000
0701c00000
1e07800000
380e000000
1004000000
0000000000
0000000000
0000000000
0000000000
ENDCHAR
STARTCHAR 2265
ENCODING 8805
SWIDTH	-8531 0
DWIDTH	34 0
BBX 34	35 0 -1
BITMAP
0000000000
0000000000
00007fff80
00007fff80
0000600000
0000600000
0000c00000
0000c00000
0000c00000
0000c00000
0001800000
0001800000
0001800000
0001800000
0003000000
0003000000
0003000000
0003000000
0006000000
0206000000
0306000000
0706000000
070c000000
0d8c000000
0d8c000000
198c000000
18d8000000
30d8000000
30d8000000
6078000000
2070000000
0070000000
0030000000
0030000000
0000000000
ENDCHAR
STARTCHAR 2266
ENCODING 8806
SWIDTH	-8531 0
DWIDTH	34 0
BBX 34	35 0 -1
BITMAP
0000000000
0000000000
0000000000
0000000000
0000000000
0000000000
0000000000
0000000000
0000000000
0000000000
0000000000
007803c000
01f80ff000
03801c3800
0600300c00
0600300c00
0c00600600
0c00600600
0c00c00600
0c00c00600
0601800c00
0601800c00
0387003800
01fe03f000
007803c000
0000000000
0000000000
0000000000
0000000000
0000000000
0000000000
0000000000
0000000000
0000000000
0000000000
ENDCHAR
STARTCHAR 2267
ENCODING 8807
SWIDTH	-8531 0
DWIDTH	34 0
BBX 34	35 0 -1
BITMAP
0000000000
0000000000
0000000000
0000000000
0000000000
0000000000
0000000000
0000000000
0000000000
0000000000
0000000000
007803c000
01fe0ff000
03871c3800
0601b00c00
0601b00800
0c00e00000
0c00e00000
0c00e00000
0c00e00000
0601b00800
0601b00c00
03871c3800
01fe0ff000
007803c000
0000000000
0000000000
0000000000
0000000000
0000000000
0000000000
0000000000
0000000000
0000000000
0000000000
ENDCHAR
STARTCHAR 2268
ENCODING 8808
SWIDTH	-8531 0
DWIDTH	34 0
BBX 34	35 0 -1
BITMAP
0000000000
0000000000
0000000000
0000000000
0000000000
0000000000
0000000000
0000000000
0000000000
0000000000
01e001e000
01e001e000
01e001e000
01e001e000
0000000000
0000000000
0000000000
0000000000
0000000000
0000000000
0000000000
0000000000
0000000000
0000000000
0001e00000
0001e00000
0001e00000
0001e00000
0000000000
0000000000
0000000000
0000000000
0000000000
0000000000
0000000000
ENDCHAR
STARTCHAR 2269
ENCODING 8809
SWIDTH	-8531 0
DWIDTH	34 0
BBX 34	35 0 -1
BITMAP
0000000000
0000000000
0000380000
00007c0000
0000cc0000
0000c00000
0000c00000
0000c00000
0000c00000
0000c00000
0000c00000
0000c00000
0000c00000
0000c00000
0000c00000
0000c00000
0000c00000
0000c00000
0000c00000
0000c00000
0000c00000
0000c00000
0000c00000
0000c00000
0000c00000
0000c00000
0000c00000
0000c00000
0000c00000
0000c00000
0000c00000
000cc00000
000f800000
0007000000
0000000000
ENDCHAR
STARTCHAR 226a
ENCODING 8810
SWIDTH	-8531 0
DWIDTH	34 0
BBX 34	35 0 -1
BITMAP
0000000000
0000000000
0003870000
0007cf8000
000cd98000
000c180000
000c180000
000c180000
000c180000
000c180000
000c180000
000c180000
000c180000
000c180000
000c180000
000c180000
000c180000
000c180000
000c180000
000c180000
000c180000
000c180000
000c180000
000c180000
000c180000
000c180000
000c180000
000c180000
000c180000
000c180000
000c180000
00cd980000
00f9f00000
0070e00000
0000000000
ENDCHAR
STARTCHAR 2272
ENCODING 8818
SWIDTH	-8531 0
DWIDTH	34 0
BBX 34	35 0 -1
BITMAP
0000000000
0000000000
0000000000
0000e00000
0001f00000
0003180000
0003180000
0003180000
0001f00000
0000e00000
0000000000
0000400000
0000e00000
0000e00000
0001f00000
0001b00000
0003b80000
0003180000
00071c0000
00060c0000
000e0e0000
000c060000
001c070000
0018030000
003fff8000
003fff8000
007001c000
006000c000
00e000e000
00c0006000
01c0007000
0180003000
0000000000
0000000000
0000000000
ENDCHAR
STARTCHAR 2273
ENCODING 8819
SWIDTH	-8531 0
DWIDTH	34 0
BBX 34	35 0 -1
BITMAP
0000000000
0000000000
0000010000
0f00030000
1f80060000
39c0040000
30c00c0000
30c0180000
30c0100000
30c0300000
30c0600000
30c0400000
30c0c00000
30c1800000
30c1000000
39c3000000
1f86000000
0f04000000
000cf03c00
0019f87e00
00139ce700
00330cc300
00630cc300
00430cc300
00c30cc300
01830cc300
01030cc300
03030cc300
06030cc300
04030cc300
0c039ce700
1801f87e00
1000f03c00
0000000000
0000000000
ENDCHAR
STARTCHAR 2274
ENCODING 8820
SWIDTH	-8531 0
DWIDTH	34 0
BBX 34	35 0 -1
BITMAP
0000000000
0000000000
0000060000
0000060000
0018060000
0018060000
0018061c00
001807fc00
00180ffc00
0018ffe000
001ffe0000
007ff60000
07ff060000
07f8060000
0798060000
0018060000
0018060000
0018060000
0018060000
0018060000
0018060000
0018061c00
001807fc00
00180ffc00
0018ffe000
001ffe0000
007ff60000
07ff060000
07f8060000
0798060000
0018060000
0018060000
0018000000
0018000000
0000000000
ENDCHAR
STARTCHAR 2275
ENCODING 8821
SWIDTH	-8531 0
DWIDTH	34 0
BBX 34	35 0 -1
BITMAP
0000000000
0000000000
0000000000
0018000000
0018000000
0018000000
0018000000
0018000000
0018000000
0018000000
0018000000
0018000000
0018000000
0018000000
0018000000
00181e0000
0018ff8000
001b81c000
001e00e000
001c00e000
0018007000
0018007000
0018007000
0018007000
0018007000
001800e000
001800e000
001801c000
0018038000
00180e0000
0018380000
0019e00000
001f000000
0018000000
0000000000
ENDCHAR
STARTCHAR 2276
ENCODING 8822
SWIDTH	-8531 0
DWIDTH	34 0
BBX 34	35 0 -1
BITMAP
0000000000
0000000000
0000c00000
0000e00000
0000e00000
0000f00000
0000f00000
0000d80000
0000cc0000
0000c70000
0000c38000
0000c1e000
0000c0f000
0000c07800
0000c03800
0000c03c00
0000c01c00
0000c01c00
0000c01c00
0000c01800
0000c03800
0000c03000
0000c06000
0000c0c000
0000c30000
0000c40000
003ec00000
00ffc00000
01ffc00000
03ffc00000
03ff800000
03ff800000
01ff000000
007c000000
0000000000
ENDCHAR
STARTCHAR 2277
ENCODING 8823
SWIDTH	-8531 0
DWIDTH	34 0
BBX 34	35 0 -1
BITMAP
0000000000
0000000000
0000c00000
0001e00000
0001e00000
0001e00000
0000c00000
0038c70000
007fff8000
007fff8000
0038c70000
0000c00000
0001e00000
0003f00000
0003f00000
0001e00000
0001e00000
0001e00000
0001e00000
0000c00000
0000c00000
0000c00000
0000c00000
0000c00000
0000c00000
0000c00000
0000c00000
0000c00000
0000c00000
0000c00000
0000c00000
0000c00000
0000c00000
0000c00000
0000000000
ENDCHAR
STARTCHAR 2278
ENCODING 8824
SWIDTH	-8531 0
DWIDTH	34 0
BBX 34	35 0 -1
BITMAP
0000000000
0000000000
0000c00000
0001e00000
0001e00000
0001e00000
0000c00000
0038c70000
007fff8000
007fff8000
0038c70000
0000c00000
0001e00000
0003f00000
0003f00000
0001e00000
0000c00000
0000c00000
0000c00000
0000c00000
0001e00000
0003f00000
0003f00000
0001e00000
0000c00000
0038c70000
007fff8000
007fff8000
0038c70000
0000c00000
0001e00000
0001e00000
0001e00000
0000c00000
0000000000
ENDCHAR
STARTCHAR 2279
ENCODING 8825
SWIDTH	-8531 0
DWIDTH	34 0
BBX 34	35 0 -1
BITMAP
0000000000
0000000000
0007ff8000
001fff8000
003fe18000
007fe18000
007fe18000
00ffe18000
00ffe18000
00ffe18000
00ffe18000
007fe18000
007fe18000
003fe18000
001fe18000
0007e18000
0000618000
0000618000
0000618000
0000618000
0000618000
0000618000
0000618000
0000618000
0000618000
0000618000
0000618000
0000618000
0000618000
0000618000
0000618000
0000618000
0000618000
0000618000
0000000000
ENDCHAR
STARTCHAR 227e
ENCODING 8830
SWIDTH	-8531 0
DWIDTH	34 0
BBX 34	35 0 -1
BITMAP
0000000000
0000000000
0003f00000
001ffe0000
007fff8000
01fc0fe000
03e001f000
0780007800
0f00003c00
0e00001c00
1c00000e00
1c00000e00
3800000700
3800000700
3800000700
7800000780
7000000380
7000000380
7000000380
7000000380
7800000780
3800000700
3800000700
3800000700
1c00000e00
1c00000e00
0e00001c00
0f00003c00
0780007800
03e001f000
01fc0fe000
007fff8000
001ffe0000
0003f00000
0000000000
ENDCHAR
STARTCHAR 2330
ENCODING 9008
SWIDTH	-8531 0
DWIDTH	34 0
BBX 34	35 0 -1
BITMAP
0000000000
0000000000
0000000000
0000000000
0003f00000
000ffc0000
001ffe0000
003c0f0000
0078078000
0070038000
00e001c000
00e001c000
00e001c000
01c000e000
01c000e000
01c000e000
01c000e000
01c000e000
01c000e000
01c000e000
01c000e000
01c000e000
01c000e000
00e001c000
00e001c000
00e001c000
0070038000
0078078000
003c0f0000
001ffe0000
000ffc0000
0003f00000
0000000000
0000000000
0000000000
ENDCHAR
STARTCHAR 2331
ENCODING 9009
SWIDTH	-8531 0
DWIDTH	34 0
BBX 34	35 0 -1
BITMAP
0000000000
0000000000
0000000000
0000000000
0001c00000
0001c00000
0003c00000
000fc00000
003fc00000
003fc00000
0001c00000
0001c00000
0001c00000
0001c00000
0001c00000
0001c00000
0001c00000
0001c00000
0001c00000
0001c00000
0001c00000
0001c00000
0001c00000
0001c00000
0001c00000
0001c00000
0001c00000
0001c00000
0001c00000
0001c00000
0001c00000
0001c00000
0000000000
0000000000
0000000000
ENDCHAR
STARTCHAR 2332
ENCODING 9010
SWIDTH	-8531 0
DWIDTH	34 0
BBX 34	35 0 -1
BITMAP
0000000000
0000000000
0000000000
0000000000
0007f80000
001ffe0000
003fff0000
0078078000
0070038000
00e001c000
00e001c000
00e001c000
00e001c000
00e001c000
0000038000
0000038000
0000070000
00000f0000
00001e0000
00007c0000
0000f80000
0001e00000
0007c00000
000f800000
001e000000
003c000000
0078000000
00f0000000
00e0000000
01ffffe000
01ffffe000
01ffffe000
0000000000
0000000000
0000000000
ENDCHAR
STARTCHAR 2333
ENCODING 9011
SWIDTH	-8531 0
DWIDTH	34 0
BBX 34	35 0 -1
BITMAP
0000000000
0000000000
0000000000
0000000000
0003f80000
000ffe0000
001fff0000
003c078000
0038038000
007001c000
007001c000
007001c000
000001c000
0000038000
0000038000
00000f0000
0001ff0000
0001fe0000
0001ff8000
0000078000
000001c000
000001c000
000000e000
00e000e000
00e000e000
00e000e000
007001c000
007001c000
003c078000
003fff8000
000ffe0000
0003f80000
0000000000
0000000000
0000000000
ENDCHAR
STARTCHAR 2334
ENCODING 9012
SWIDTH	-8531 0
DWIDTH	34 0
BBX 34	35 0 -1
BITMAP
0000000000
0000000000
0000000000
0000000000
0000380000
0000780000
0000780000
0000f80000
0001f80000
0001f80000
0003b80000
0007b80000
0007380000
000e380000
001e380000
001c380000
0038380000
0078380000
0070380000
00e0380000
01e0380000
01c0380000
03fffff000
07fffff000
07fffff000
0000380000
0000380000
0000380000
0000380000
0000380000
0000380000
0000380000
0000000000
0000000000
0000000000
ENDCHAR
STARTCHAR 2335
ENCODING 9013
SWIDTH	-8531 0
DWIDTH	34 0
BBX 34	35 0 -1
BITMAP
0000000000
0000000000
0000000000
0000000000
007fffc000
007fffc000
007fffc000
0070000000
0070000000
0070000000
0070000000
0070000000
0070000000
0071f80000
0077fe0000
007fff0000
007e078000
007803c000
007001c000
000000e000
000000e000
000000e000
000000e000
000000e000
000000e000
00e000e000
00f001c000
007803c000
003c078000
001fff0000
000ffe0000
0003f80000
0000000000
0000000000
0000000000
ENDCHAR
STARTCHAR 2336
ENCODING 9014
SWIDTH	-8531 0
DWIDTH	34 0
BBX 34	35 0 -1
BITMAP
0000000000
0000000000
0000000000
0000000000
0003f80000
000ffe0000
001fff0000
003c078000
007803c000
007001c000
00e000e000
00e000c000
00e0000000
01c0000000
01c3f80000
01cffe0000
01dfff0000
01dc078000
01f803c000
01f001c000
01e000e000
01e000e000
01c000e000
00e000e000
00e000e000
00e001c000
007001c000
007803c000
003c078000
001fff0000
000ffe0000
0003f80000
0000000000
0000000000
0000000000
ENDCHAR
STARTCHAR 2337
ENCODING 9015
SWIDTH	-8531 0
DWIDTH	34 0
BBX 34	35 0 -1
BITMAP
0000000000
0000000000
0000000000
0000000000
01fffff000
01fffff000
01fffff000
000000e000
000001e000
000001c000
0000038000
0000038000
0000070000
0000070000
00000e0000
00000e0000
00001c0000
00001c0000
0000380000
0000380000
0000700000
0000700000
0000700000
0000e00000
0000e00000
0000e00000
0001c00000
0001c00000
0001c00000
0003800000
0003800000
0003800000
0000000000
0000000000
0000000000
ENDCHAR
STARTCHAR 2338
ENCODING 9016
SWIDTH	-8531 0
DWIDTH	34 0
BBX 34	35 0 -1
BITMAP
0000000000
0000000000
0000000000
0000000000
0007f80000
001ffe0000
003fff0000
0078078000
0070038000
00e001c000
00e001c000
00e001c000
00e001c000
0070038000
0078078000
003fff0000
001ffe0000
003fff0000
007c0f8000
00f003c000
00e001c000
01c000e000
01c000e000
01c000e000
01c000e000
01c000e000
00e001c000
00e001c000
0078078000
007fff8000
001ffe0000
0007f80000
0000000000
0000000000
0000000000
ENDCHAR
STARTCHAR 2339
ENCODING 9017
SWIDTH	-8531 0
DWIDTH	34 0
BBX 34	35 0 -1
BITMAP
0000000000
0000000000
0000000000
0000000000
0007f00000
001ffc0000
003ffe0000
00780f0000
0070078000
00e0038000
00e001c000
01c001c000
01c001c000
01c000e000
01c001e000
01c001e000
00e003e000
00f007e000
00780ee000
003ffee000
001ffce000
0007f0e000
000000e000
000001c000
00c001c000
01c001c000
00e0038000
00f0078000
00780f0000
003ffe0000
001ffc0000
0007f00000
0000000000
0000000000
0000000000
ENDCHAR
STARTCHAR 2341
ENCODING 9025
SWIDTH	-8531 0
DWIDTH	34 0
BBX 34	35 0 -1
BITMAP
0000000000
0000000000
0000000000
0000c00000
0000c00000
0001e00000
0001e00000
0001e00000
0003f00000
0003f00000
0007380000
0007380000
0007380000
000e1c0000
000e1c0000
000e1c0000
001c0e0000
001c0e0000
001c0e0000
0038070000
003fff0000
007fff8000
007fff8000
0070038000
00e001c000
00e001c000
00e001c000
01c000e000
01c000e000
0380007000
0380007000
0780007800
0000000000
0000000000
0000000000
ENDCHAR
STARTCHAR 2342
ENCODING 9026
SWIDTH	-8531 0
DWIDTH	34 0
BBX 34	35 0 -1
BITMAP
0000000000
0000000000
0000000000
0000000000
00fffc0000
00ffff0000
00ffff8000
00e003c000
00e001c000
00e000e000
00e000e000
00e000e000
00e000e000
00e000e000
00e001c000
00e003c000
00ffff8000
00ffff8000
00ffffc000
00e001e000
00e000e000
00e0007000
00e0007000
00e0007000
00e0007000
00e0007000
00e0007000
00e000e000
00e001e000
00ffffc000
00ffff8000
00fffe0000
0000000000
0000000000
0000000000
ENDCHAR
STARTCHAR 2343
ENCODING 9027
SWIDTH	-8531 0
DWIDTH	34 0
BBX 34	35 0 -1
BITMAP
0000000000
0000000000
0000000000
0000000000
0003f80000
000ffe0000
003fff8000
007c07c000
00f001e000
00e000e000
01c0007000
01c0007000
01c0002000
0380000000
0380000000
0380000000
0380000000
0380000000
0380000000
0380000000
0380000000
0380000000
0380003000
01c0003800
01c0007000
01c0007000
00e000e000
00f001e000
007c07c000
003fff8000
000ffe0000
0003f80000
0000000000
0000000000
0000000000
ENDCHAR
STARTCHAR 2344
ENCODING 9028
SWIDTH	-8531 0
DWIDTH	34 0
BBX 34	35 0 -1
BITMAP
0000000000
0000000000
0000000000
0000000000
00fff80000
00fffe0000
00ffff8000
00e007c000
00e001c000
00e000e000
00e000e000
00e0007000
00e0007000
00e0007000
00e0007000
00e0007000
00e0007000
00e0007000
00e0007000
00e0007000
00e0007000
00e0007000
00e0007000
00e0007000
00e0007000
00e000e000
00e000e000
00e001c000
00e007c000
00ffff8000
00fffe0000
00fff80000
0000000000
0000000000
0000000000
ENDCHAR
STARTCHAR 2345
ENCODING 9029
SWIDTH	-8531 0
DWIDTH	34 0
BBX 34	35 0 -1
BITMAP
0000000000
0000000000
0000000000
0000000000
00ffffe000
00ffffe000
00ffffe000
00e0000000
00e0000000
00e0000000
00e0000000
00e0000000
00e0000000
00e0000000
00e0000000
00e0000000
00ffff8000
00ffff8000
00ffff8000
00e0000000
00e0000000
00e0000000
00e0000000
00e0000000
00e0000000
00e0000000
00e0000000
00e0000000
00e0000000
00ffffe000
00ffffe000
00ffffe000
0000000000
0000000000
0000000000
ENDCHAR
STARTCHAR 2346
ENCODING 9030
SWIDTH	-8531 0
DWIDTH	34 0
BBX 34	35 0 -1
BITMAP
0000000000
0000000000
0000000000
0000000000
00ffffe000
00ffffe000
00ffffe000
00e0000000
00e0000000
00e0000000
00e0000000
00e0000000
00e0000000
00e0000000
00e0000000
00e0000000
00ffff8000
00ffff8000
00ffff8000
00e0000000
00e0000000
00e0000000
00e0000000
00e0000000
00e0000000
00e0000000
00e0000000
00e0000000
00e0000000
00e0000000
00e0000000
00e0000000
0000000000
0000000000
0000000000
ENDCHAR
STARTCHAR 2347
ENCODING 9031
SWIDTH	-8531 0
DWIDTH	34 0
BBX 34	35 0 -1
BITMAP
0000000000
0000000000
0000000000
0000000000
0003f00000
000ffc0000
003fff0000
007c0f8000
00f003c000
00e001c000
01c000e000
01c000c000
0380000000
0380000000
0380000000
0380000000
0380000000
03807fe000
03807fe000
03807fe000
038000e000
038000e000
038000e000
038000e000
01c000e000
01c000e000
00e001e000
00f003e000
007c0fe000
003fffe000
000ffce000
0003f0e000
0000000000
0000000000
0000000000
ENDCHAR
STARTCHAR 2348
ENCODING 9032
SWIDTH	-8531 0
DWIDTH	34 0
BBX 34	35 0 -1
BITMAP
0000000000
0000000000
0000000000
0000000000
01c000e000
01c000e000
01c000e000
01c000e000
01c000e000
01c000e000
01c000e000
01c000e000
01c000e000
01c000e000
01c000e000
01c000e000
01ffffe000
01ffffe000
01ffffe000
01c000e000
01c000e000
01c000e000
01c000e000
01c000e000
01c000e000
01c000e000
01c000e000
01c000e000
01c000e000
01c000e000
01c000e000
01c000e000
0000000000
0000000000
0000000000
ENDCHAR
STARTCHAR 2349
ENCODING 9033
SWIDTH	-8531 0
DWIDTH	34 0
BBX 34	35 0 -1
BITMAP
0000000000
0000000000
0000000000
0000000000
0000e00000
0000e00000
0000e00000
0000e00000
0000e00000
0000e00000
0000e00000
0000e00000
0000e00000
0000e00000
0000e00000
0000e00000
0000e00000
0000e00000
0000e00000
0000e00000
0000e00000
0000e00000
0000e00000
0000e00000
0000e00000
0000e00000
0000e00000
0000e00000
0000e00000
0000e00000
0000e00000
0000e00000
0000000000
0000000000
0000000000
ENDCHAR
STARTCHAR 234a
ENCODING 9034
SWIDTH	-8531 0
DWIDTH	34 0
BBX 34	35 0 -1
BITMAP
0000000000
0000000000
0000000000
0000000000
0000070000
0000070000
0000070000
0000070000
0000070000
0000070000
0000070000
0000070000
0000070000
0000070000
0000070000
0000070000
0000070000
0000070000
0000070000
0000070000
0000070000
0000070000
0000070000
0000070000
00e0070000
00e0070000
00e0070000
00700e0000
00781e0000
003ffc0000
001ff80000
0007e00000
0000000000
0000000000
0000000000
ENDCHAR
STARTCHAR 234b
ENCODING 9035
SWIDTH	-8531 0
DWIDTH	34 0
BBX 34	35 0 -1
BITMAP
0000000000
0000000000
0000000000
0000000000
01c000f000
01c001e000
01c003c000
01c0078000
01c00f0000
01c01e0000
01c03c0000
01c0780000
01c0f00000
01c1e00000
01c3c00000
01c7c00000
01cfe00000
01dee00000
01fc700000
01f8780000
01f0380000
01e01c0000
01c01e0000
01c00e0000
01c0070000
01c0078000
01c0038000
01c001c000
01c001e000
01c000e000
01c0007000
01c0007800
0000000000
0000000000
0000000000
ENDCHAR
STARTCHAR 234c
ENCODING 9036
SWIDTH	-8531 0
DWIDTH	34 0
BBX 34	35 0 -1
BITMAP
0000000000
0000000000
0000000000
0000000000
0070000000
0070000000
0070000000
0070000000
0070000000
0070000000
0070000000
0070000000
0070000000
0070000000
0070000000
0070000000
0070000000
0070000000
0070000000
0070000000
0070000000
0070000000
0070000000
0070000000
0070000000
0070000000
0070000000
0070000000
0070000000
007ffff000
007ffff000
007ffff000
0000000000
0000000000
0000000000
ENDCHAR
STARTCHAR 234d
ENCODING 9037
SWIDTH	-8531 0
DWIDTH	34 0
BBX 34	35 0 -1
BITMAP
0000000000
0000000000
0000000000
0000000000
0780003c00
0780003c00
07c0007c00
07c0007c00
07c0007c00
07e000fc00
07e000fc00
07e000fc00
077001dc00
077001dc00
077001dc00
0738039c00
0738039c00
071c071c00
071c071c00
071c071c00
070e0e1c00
070e0e1c00
07071c1c00
07071c1c00
07071c1c00
0703b81c00
0703b81c00
0701f01c00
0701f01c00
0701f01c00
0700e01c00
0700e01c00
0000000000
0000000000
0000000000
ENDCHAR
STARTCHAR 234e
ENCODING 9038
SWIDTH	-8531 0
DWIDTH	34 0
BBX 34	35 0 -1
BITMAP
0000000000
0000000000
0000000000
0000000000
01c000e000
01e000e000
01e000e000
01f000e000
01f000e000
01f800e000
01dc00e000
01dc00e000
01ce00e000
01cf00e000
01c700e000
01c380e000
01c380e000
01c1c0e000
01c1e0e000
01c0e0e000
01c070e000
01c078e000
01c038e000
01c01ce000
01c01ee000
01c00ee000
01c007e000
01c007e000
01c003e000
01c001e000
01c001e000
01c000e000
0000000000
0000000000
0000000000
ENDCHAR
STARTCHAR 234f
ENCODING 9039
SWIDTH	-8531 0
DWIDTH	34 0
BBX 34	35 0 -1
BITMAP
0000000000
0000000000
0000000000
0000000000
0003f00000
000ffc0000
003fff0000
007c0f8000
00f003c000
00e001c000
01c000e000
01c000e000
0380007000
0380007000
0380007000
0380007000
0380007000
0380007000
0380007000
0380007000
0380007000
0380007000
0380007000
0380007000
01c000e000
01c000e000
00e001c000
00f003c000
007c0f8000
003fff0000
000ffc0000
0003f00000
0000000000
0000000000
0000000000
ENDCHAR
STARTCHAR 2350
ENCODING 9040
SWIDTH	-8531 0
DWIDTH	34 0
BBX 34	35 0 -1
BITMAP
0000000000
0000000000
0000000000
0000000000
007ffe0000
007fff8000
007fffc000
007001e000
007000e000
0070007000
0070007000
0070007000
0070007000
0070006000
007000e000
007001e000
007fffc000
007fff8000
007ffe0000
0070000000
0070000000
0070000000
0070000000
0070000000
0070000000
0070000000
0070000000
0070000000
0070000000
0070000000
0070000000
0070000000
0000000000
0000000000
0000000000
ENDCHAR
STARTCHAR 2351
ENCODING 9041
SWIDTH	-8531 0
DWIDTH	34 0
BBX 34	35 0 -1
BITMAP
0000000000
0000000000
0000000000
0000000000
0003f00000
000ffc0000
003fff0000
007c0f8000
00f003c000
00e001c000
01c000e000
01c000e000
0380007000
0380007000
0380007000
0380007000
0380007000
0380007000
0380007000
0380007000
0380007000
0380007000
0380007000
0380047000
01c00ee000
01c00fe000
00e007c000
00f003c000
007c0fe000
003ffff000
000ffc7800
0003f03000
0000000000
0000000000
0000000000
ENDCHAR
STARTCHAR 2352
ENCODING 9042
SWIDTH	-8531 0
DWIDTH	34 0
BBX 34	35 0 -1
BITMAP
0000000000
0000000000
0000000000
0000000000
00fffc0000
00ffff0000
00ffff8000
00e003c000
00e001c000
00e000e000
00e000e000
00e000e000
00e000e000
00e000e000
00e001c000
00e003c000
00ffff8000
00ffff0000
00fffc0000
00e01f0000
00e0070000
00e0070000
00e0038000
00e0038000
00e0038000
00e0038000
00e001c000
00e001c000
00e001c000
00e000e000
00e000e000
00e000f000
0000000000
0000000000
0000000000
ENDCHAR
STARTCHAR 2353
ENCODING 9043
SWIDTH	-8531 0
DWIDTH	34 0
BBX 34	35 0 -1
BITMAP
0000000000
0000000000
0000000000
0000000000
0007f80000
001ffe0000
007fff8000
00f807c000
00e001c000
01c000e000
01c000e000
01c000e000
01c0000000
00e0000000
00f8000000
007f800000
001ff00000
0007fe0000
00007f8000
00000fc000
000001e000
000000e000
0380007000
0380007000
0380007000
0380007000
01c0007000
01e000e000
00f803e000
007fffc000
001fff0000
0007fc0000
0000000000
0000000000
0000000000
ENDCHAR
STARTCHAR 2354
ENCODING 9044
SWIDTH	-8531 0
DWIDTH	34 0
BBX 34	35 0 -1
BITMAP
0000000000
0000000000
0000000000
0000000000
03fffff800
03fffff800
03fffff800
0000e00000
0000e00000
0000e00000
0000e00000
0000e00000
0000e00000
0000e00000
0000e00000
0000e00000
0000e00000
0000e00000
0000e00000
0000e00000
0000e00000
0000e00000
0000e00000
0000e00000
0000e00000
0000e00000
0000e00000
0000e00000
0000e00000
0000e00000
0000e00000
0000e00000
0000000000
0000000000
0000000000
ENDCHAR
STARTCHAR 2355
ENCODING 9045
SWIDTH	-8531 0
DWIDTH	34 0
BBX 34	35 0 -1
BITMAP
0000000000
0000000000
0000000000
0000000000
01c000e000
01c000e000
01c000e000
01c000e000
01c000e000
01c000e000
01c000e000
01c000e000
01c000e000
01c000e000
01c000e000
01c000e000
01c000e000
01c000e000
01c000e000
01c000e000
01c000e000
01c000e000
01c000e000
01c000e000
01c000e000
00e001c000
00e001c000
0070038000
007c0f8000
003fff0000
000ffc0000
0003f00000
0000000000
0000000000
0000000000
ENDCHAR
STARTCHAR 2356
ENCODING 9046
SWIDTH	-8531 0
DWIDTH	34 0
BBX 34	35 0 -1
BITMAP
0000000000
0000000000
0000000000
0000000000
0380003800
0380003800
01c0007000
01c0007000
01c0007000
00e000e000
00e000e000
007001c000
007001c000
007001c000
0038038000
0038038000
001c070000
001c070000
001c070000
000e0e0000
000e0e0000
00071c0000
00071c0000
00071c0000
0003b80000
0003b80000
0001f00000
0001f00000
0001f00000
0000e00000
0000e00000
0000e00000
0000000000
0000000000
0000000000
ENDCHAR
STARTCHAR 2357
ENCODING 9047
SWIDTH	-8531 0
DWIDTH	34 0
BBX 34	35 0 -1
BITMAP
0000000000
0000000000
0000000000
0000000000
1c00e00700
1c00e00700
1c00e00700
1c01f00700
0e01f00e00
0e01f00e00
0e01b00e00
0e03b80e00
0703b81c00
0703b81c00
07071c1c00
07071c1c00
03871c3800
03871c3800
038e0e3800
038e0e3800
01ce0e7000
01ce0e7000
01dc077000
01dc077000
00dc076000
00f803e000
00f803e000
00f803e000
007803c000
007001c000
007001c000
007001c000
0000000000
0000000000
0000000000
ENDCHAR
STARTCHAR 2358
ENCODING 9048
SWIDTH	-8531 0
DWIDTH	34 0
BBX 34	35 0 -1
BITMAP
0000000000
0000000000
0000000000
0000000000
03c000f000
01c000e000
00e001c000
00f003c000
0070038000
0038070000
003c0f0000
001c0e0000
000e1c0000
000f3c0000
0007380000
0003f00000
0003f00000
0001e00000
0001e00000
0003f00000
0003f00000
0007380000
000f3c0000
001e1e0000
001c0e0000
0038070000
0078078000
00f0038000
00e001c000
01c000e000
03c000f000
0780007800
0000000000
0000000000
0000000000
ENDCHAR
STARTCHAR 2359
ENCODING 9049
SWIDTH	-8531 0
DWIDTH	34 0
BBX 34	35 0 -1
BITMAP
0000000000
0000000000
0000000000
0000000000
03c0007800
01c0007000
00e000e000
00f001e000
007001c000
0038038000
003c078000
001c070000
000e0e0000
000f1e0000
00071c0000
0003b80000
0003f80000
0001f00000
0000e00000
0000e00000
0000e00000
0000e00000
0000e00000
0000e00000
0000e00000
0000e00000
0000e00000
0000e00000
0000e00000
0000e00000
0000e00000
0000e00000
0000000000
0000000000
0000000000
ENDCHAR
STARTCHAR 235a
ENCODING 9050
SWIDTH	-8531 0
DWIDTH	34 0
BBX 34	35 0 -1
BITMAP
0000000000
0000000000
0000000000
0000000000
01ffffe000
01fffff000
01ffffe000
000001c000
000003c000
0000078000
0000070000
00000e0000
00001e0000
00001c0000
0000380000
0000700000
0000f00000
0000e00000
0001c00000
0003c00000
0007800000
0007000000
000e000000
001e000000
003c000000
0078000000
0070000000
00e0000000
01e0000000
03fffff000
03fffff000
03fffff000
0000000000
0000000000
0000000000
ENDCHAR
STARTCHAR 2361
ENCODING 9057
SWIDTH	-8531 0
DWIDTH	34 0
BBX 34	35 0 -1
BITMAP
0000000000
0000000000
0000000000
0000000000
0000000000
0000000000
0000000000
0000000000
0000000000
0000000000
0000000000
0000000000
0000000000
0007f00000
001ffc0000
003ffe0000
00380e0000
0070070000
0070070000
00001f0000
0001ff0000
000fff0000
003fe70000
007e070000
0070070000
00e0070000
00e0070000
00e00f0000
00f03f0000
007fff0000
007ff78000
001fc30000
0000000000
0000000000
0000000000
ENDCHAR
STARTCHAR 2362
ENCODING 9058
SWIDTH	-8531 0
DWIDTH	34 0
BBX 34	35 0 -1
BITMAP
0000000000
0000000000
0000000000
0000000000
0038000000
0038000000
0038000000
0038000000
0038000000
0038000000
0038000000
0038000000
0038000000
0038f80000
003bfe0000
003fff0000
003f0f8000
003c038000
003c03c000
003801c000
003801c000
003801c000
003801c000
003801c000
003801c000
003801c000
003c03c000
003c038000
003f0f8000
003fff0000
003bfe0000
0038f80000
0000000000
0000000000
0000000000
ENDCHAR
STARTCHAR 2363
ENCODING 9059
SWIDTH	-8531 0
DWIDTH	34 0
BBX 34	35 0 -1
BITMAP
0000000000
0000000000
0000000000
0000000000
0000000000
0000000000
0000000000
0000000000
0000000000
0000000000
0000000000
0000000000
0000000000
0003f00000
000ffc0000
003fff0000
003c0f0000
0070038000
0070038000
00e0010000
00e0000000
00e0000000
00e0000000
00e0000000
00e0000000
00e0010000
0070038000
0070038000
003c0f0000
003fff0000
000ffc0000
0003f00000
0000000000
0000000000
0000000000
ENDCHAR
STARTCHAR 2364
ENCODING 9060
SWIDTH	-8531 0
DWIDTH	34 0
BBX 34	35 0 -1
BITMAP
0000000000
0000000000
0000000000
0000000000
0000070000
0000070000
0000070000
0000070000
0000070000
0000070000
0000070000
0000070000
0000070000
0007c70000
001ff70000
003fff0000
007c3f0000
00700f0000
00f00f0000
00e0070000
00e0070000
00e0070000
00e0070000
00e0070000
00e0070000
00e0070000
00f00f0000
00700f0000
007c3f0000
003fff0000
001ff70000
0007c70000
0000000000
0000000000
0000000000
ENDCHAR
STARTCHAR 2365
ENCODING 9061
SWIDTH	-8531 0
DWIDTH	34 0
BBX 34	35 0 -1
BITMAP
0000000000
0000000000
0000000000
0000000000
0000000000
0000000000
0000000000
0000000000
0000000000
0000000000
0000000000
0000000000
0000000000
0003e00000
000ff80000
003ffe0000
003c1e0000
0070070000
0070070000
00e0038000
00e0038000
00ffff8000
00ffff8000
00ffff8000
00e0000000
00e0010000
0070038000
0070038000
003c0f0000
003fff0000
000ffc0000
0003f00000
0000000000
0000000000
0000000000
ENDCHAR
STARTCHAR 2366
ENCODING 9062
SWIDTH	-8531 0
DWIDTH	34 0
BBX 34	35 0 -1
BITMAP
0000000000
0000000000
0000000000
0000000000
00007c0000
0001fc0000
0001fc0000
0003800000
0003800000
0003800000
0003800000
0003800000
0003800000
003ffc0000
003ffc0000
003ffc0000
0003800000
0003800000
0003800000
0003800000
0003800000
0003800000
0003800000
0003800000
0003800000
0003800000
0003800000
0003800000
0003800000
0003800000
0003800000
0003800000
0000000000
0000000000
0000000000
ENDCHAR
STARTCHAR 2367
ENCODING 9063
SWIDTH	-8531 0
DWIDTH	34 0
BBX 34	35 0 -1
BITMAP
0000000000
0000000000
0000000000
0000000000
0000000000
0000000000
0000000000
0000000000
0000000000
0000000000
0000000000
0000000000
0000000000
0003e70000
000ff70000
001fff0000
003c1f0000
00380f0000
0070070000
0070070000
0070070000
0070070000
0070070000
00380f0000
003c1f0000
001fff0000
000ff70000
0003c70000
0030070000
0070070000
00380e0000
003ffe0000
001ffc0000
0007f00000
0000000000
ENDCHAR
STARTCHAR 2368
ENCODING 9064
SWIDTH	-8531 0
DWIDTH	34 0
BBX 34	35 0 -1
BITMAP
0000000000
0000000000
0000000000
0000000000
0038000000
0038000000
0038000000
0038000000
0038000000
0038000000
0038000000
0038000000
0038000000
0038f80000
003bfe0000
003fff0000
003f070000
003c038000
0038038000
0038038000
0038038000
0038038000
0038038000
0038038000
0038038000
0038038000
0038038000
0038038000
0038038000
0038038000
0038038000
0038038000
0000000000
0000000000
0000000000
ENDCHAR
STARTCHAR 2369
ENCODING 9065
SWIDTH	-8531 0
DWIDTH	34 0
BBX 34	35 0 -1
BITMAP
0000000000
0000000000
0000000000
0000000000
0000e00000
0000e00000
0000e00000
0000e00000
0000e00000
0000000000
0000000000
0000000000
0000000000
0000e00000
0000e00000
0000e00000
0000e00000
0000e00000
0000e00000
0000e00000
0000e00000
0000e00000
0000e00000
0000e00000
0000e00000
0000e00000
0000e00000
0000e00000
0000e00000
0000e00000
0000e00000
0000e00000
0000000000
0000000000
0000000000
ENDCHAR
STARTCHAR 236a
ENCODING 9066
SWIDTH	-8531 0
DWIDTH	34 0
BBX 34	35 0 -1
BITMAP
0000000000
0000000000
0000000000
0000000000
0000e00000
0000e00000
0000e00000
0000e00000
0000e00000
0000000000
0000000000
0000000000
0000000000
0000e00000
0000e00000
0000e00000
0000e00000
0000e00000
0000e00000
0000e00000
0000e00000
0000e00000
0000e00000
0000e00000
0000e00000
0000e00000
0000e00000
0000e00000
0000e00000
0000e00000
0001e00000
000fc00000
000fc00000
000f000000
0000000000
ENDCHAR
STARTCHAR 236b
ENCODING 9067
SWIDTH	-8531 0
DWIDTH	34 0
BBX 34	35 0 -1
BITMAP
0000000000
0000000000
0000000000
0000000000
0038000000
0038000000
0038000000
0038000000
0038000000
0038000000
0038000000
0038000000
0038000000
003803c000
0038078000
00380f0000
00381e0000
00383c0000
0038780000
0038f00000
0039e00000
003bf00000
003ff00000
003f380000
003e3c0000
003c1c0000
00380e0000
00380f0000
0038070000
0038038000
003803c000
003801e000
0000000000
0000000000
0000000000
ENDCHAR
STARTCHAR 236c
ENCODING 9068
SWIDTH	-8531 0
DWIDTH	34 0
BBX 34	35 0 -1
BITMAP
0000000000
0000000000
0000000000
0000000000
0000e00000
0000e00000
0000e00000
0000e00000
0000e00000
0000e00000
0000e00000
0000e00000
0000e00000
0000e00000
0000e00000
0000e00000
0000e00000
0000e00000
0000e00000
0000e00000
0000e00000
0000e00000
0000e00000
0000e00000
0000e00000
0000e00000
0000e00000
0000e00000
0000e00000
0000e00000
0000e00000
0000e00000
0000000000
0000000000
0000000000
ENDCHAR
STARTCHAR 236d
ENCODING 9069
SWIDTH	-8531 0
DWIDTH	34 0
BBX 34	35 0 -1
BITMAP
0000000000
0000000000
0000000000
0000000000
0000000000
0000000000
0000000000
0000000000
0000000000
0000000000
0000000000
0000000000
0000000000
038e038000
03bf8fe000
03fffff000
03e1f87000
03c0f03800
0380e03800
0380e03800
0380e03800
0380e03800
0380e03800
0380e03800
0380e03800
0380e03800
0380e03800
0380e03800
0380e03800
0380e03800
0380e03800
0380e03800
0000000000
0000000000
0000000000
ENDCHAR
STARTCHAR 236e
ENCODING 9070
SWIDTH	-8531 0
DWIDTH	34 0
BBX 34	35 0 -1
BITMAP
0000000000
0000000000
0000000000
0000000000
0000000000
0000000000
0000000000
0000000000
0000000000
0000000000
0000000000
0000000000
0000000000
0071f00000
0077fc0000
007ffe0000
007c0e0000
0078070000
0070070000
0070070000
0070070000
0070070000
0070070000
0070070000
0070070000
0070070000
0070070000
0070070000
0070070000
0070070000
0070070000
0070070000
0000000000
0000000000
0000000000
ENDCHAR
STARTCHAR 236f
ENCODING 9071
SWIDTH	-8531 0
DWIDTH	34 0
BBX 34	35 0 -1
BITMAP
0000000000
0000000000
0000000000
0000000000
0000000000
0000000000
0000000000
0000000000
0000000000
0000000000
0000000000
0000000000
0000000000
0001f00000
0007fc0000
001fff0000
001e0f0000
0038038000
0038038000
007001c000
007001c000
007001c000
007001c000
007001c000
007001c000
007001c000
0038038000
0038038000
001e0f0000
001fff0000
0007fc0000
0001f00000
0000000000
0000000000
0000000000
ENDCHAR
STARTCHAR 2370
ENCODING 9072
SWIDTH	-8531 0
DWIDTH	34 0
BBX 34	35 0 -1
BITMAP
0000000000
0000000000
0000000000
0000000000
0000000000
0000000000
0000000000
0000000000
0000000000
0000000000
0000000000
0000000000
0000000000
0071f00000
0077fc0000
007ffe0000
007e1f0000
0078070000
0078078000
0070038000
0070038000
0070038000
0070038000
0070038000
0078078000
0078070000
007e1f0000
007ffe0000
0077fc0000
0071f00000
0070000000
0070000000
0070000000
0070000000
0000000000
ENDCHAR
STARTCHAR 2371
ENCODING 9073
SWIDTH	-8531 0
DWIDTH	34 0
BBX 34	35 0 -1
BITMAP
0000000000
0000000000
0000000000
0000000000
0000000000
0000000000
0000000000
0000000000
0000000000
0000000000
0000000000
0000000000
0000000000
0007c70000
001ff70000
003fff0000
007c3f0000
00700f0000
00f00f0000
00e0070000
00e0070000
00e0070000
00e0070000
00e0070000
00f00f0000
00700f0000
007c3f0000
003fff0000
001ff70000
0007c70000
0000070000
0000070000
0000070000
0000070000
0000000000
ENDCHAR
STARTCHAR 2372
ENCODING 9074
SWIDTH	-8531 0
DWIDTH	34 0
BBX 34	35 0 -1
BITMAP
0000000000
0000000000
0000000000
0000000000
0000000000
0000000000
0000000000
0000000000
0000000000
0000000000
0000000000
0000000000
0000000000
00071c0000
00077c0000
0007fc0000
0007e00000
0007800000
0007800000
0007000000
0007000000
0007000000
0007000000
0007000000
0007000000
0007000000
0007000000
0007000000
0007000000
0007000000
0007000000
0007000000
0000000000
0000000000
0000000000
ENDCHAR
STARTCHAR 2373
ENCODING 9075
SWIDTH	-8531 0
DWIDTH	34 0
BBX 34	35 0 -1
BITMAP
0000000000
0000000000
0000000000
0000000000
0000000000
0000000000
0000000000
0000000000
0000000000
0000000000
0000000000
0000000000
0000000000
0007f00000
001ffc0000
003ffe0000
00380e0000
0070070000
0070060000
0038000000
003f800000
001ff80000
0007fe0000
00007f0000
0000070000
0060038000
00e0038000
0070038000
0078070000
003fff0000
001ffe0000
0007f80000
0000000000
0000000000
0000000000
ENDCHAR
STARTCHAR 2374
ENCODING 9076
SWIDTH	-8531 0
DWIDTH	34 0
BBX 34	35 0 -1
BITMAP
0000000000
0000000000
0000000000
0000000000
0000000000
0000000000
0000000000
0000000000
0001c00000
0001c00000
0001c00000
0001c00000
0001c00000
000ffc0000
000ffc0000
000ffc0000
0001c00000
0001c00000
0001c00000
0001c00000
0001c00000
0001c00000
0001c00000
0001c00000
0001c00000
0001c00000
0001c00000
0001c00000
0001e00000
0000fc0000
0000fc0000
00003c0000
0000000000
0000000000
0000000000
ENDCHAR
STARTCHAR 2375
ENCODING 9077
SWIDTH	-8531 0
DWIDTH	34 0
BBX 34	35 0 -1
BITMAP
0000000000
0000000000
0000000000
0000000000
0000000000
0000000000
0000000000
0000000000
0000000000
0000000000
0000000000
0000000000
0000000000
0070070000
0070070000
0070070000
0070070000
0070070000
0070070000
0070070000
0070070000
0070070000
0070070000
0070070000
0070070000
0070070000
0070070000
00700f0000
00381f0000
003fff0000
001ff70000
0007c70000
0000000000
0000000000
0000000000
ENDCHAR
STARTCHAR 2376
ENCODING 9078
SWIDTH	-8531 0
DWIDTH	34 0
BBX 34	35 0 -1
BITMAP
0000000000
0000000000
0000000000
0000000000
0000000000
0000000000
0000000000
0000000000
0000000000
0000000000
0000000000
0000000000
0000000000
00e0038000
00e0038000
0070070000
0070070000
0070070000
00380e0000
00380e0000
001c1c0000
001c1c0000
001c1c0000
000e380000
000e380000
0007700000
0007700000
0007f00000
0003e00000
0003e00000
0001c00000
0001c00000
0000000000
0000000000
0000000000
ENDCHAR
STARTCHAR 2377
ENCODING 9079
SWIDTH	-8531 0
DWIDTH	34 0
BBX 34	35 0 -1
BITMAP
0000000000
0000000000
0000000000
0000000000
0000000000
0000000000
0000000000
0000000000
0000000000
0000000000
0000000000
0000000000
0000000000
0700c03800
0700c03800
0701e03800
0381e07000
0381e07000
0383f07000
01c3f0e000
01c3f0e000
01c738e000
01c738e000
00e739c000
00ee1dc000
00ee1dc000
007e1f8000
007c0f8000
007c0f8000
003c0f0000
0038070000
0038070000
0000000000
0000000000
0000000000
ENDCHAR
STARTCHAR 2378
ENCODING 9080
SWIDTH	-8531 0
DWIDTH	34 0
BBX 34	35 0 -1
BITMAP
0000000000
0000000000
0000000000
0000000000
0000000000
0000000000
0000000000
0000000000
0000000000
0000000000
0000000000
0000000000
0000000000
01e003c000
00f0078000
00780f0000
00380e0000
001c1c0000
001e3c0000
000f780000
0007f00000
0003e00000
0001c00000
0003e00000
0007f00000
000f780000
001e3c0000
001c1c0000
00380e0000
00780f0000
00f0078000
01e003c000
0000000000
0000000000
0000000000
ENDCHAR
STARTCHAR 2379
ENCODING 9081
SWIDTH	-8531 0
DWIDTH	34 0
BBX 34	35 0 -1
BITMAP
0000000000
0000000000
0000000000
0000000000
0000000000
0000000000
0000000000
0000000000
0000000000
0000000000
0000000000
0000000000
0000000000
0070038000
0070038000
0038070000
0038070000
001c0e0000
001c0e0000
000e1c0000
000e1c0000
0007380000
0007380000
0003f00000
0003f00000
0001e00000
0001e00000
0001c00000
0001c00000
0003800000
0003800000
003f000000
003f000000
003e000000
0000000000
ENDCHAR
STARTCHAR 237a
ENCODING 9082
SWIDTH	-8531 0
DWIDTH	34 0
BBX 34	35 0 -1
BITMAP
0000000000
0000000000
0000000000
0000000000
0000000000
0000000000
0000000000
0000000000
0000000000
0000000000
0000000000
0000000000
0000000000
00ffff8000
00ffff8000
00ffff8000
00000f0000
00001e0000
00003c0000
0000780000
0000f00000
0001e00000
0001c00000
0003800000
0007800000
000f000000
001e000000
003c000000
0078000000
00ffff8000
00ffff8000
00ffff8000
0000000000
0000000000
0000000000
ENDCHAR
STARTCHAR 2421
ENCODING 9249
SWIDTH	-8531 0
DWIDTH	34 0
BBX 34	35 0 -1
BITMAP
0000000000
0000000000
0000000000
0000000000
0000000000
0000000000
0000000000
0000000000
0000000000
0000000000
0000000000
0003800000
0003800000
0003800000
0003f80000
007ff80000
007ff80000
007f000000
0007000000
0007fe0000
0007ff8000
000fffc000
001f71c000
003f60e000
007fe0e000
0077c0e000
00e3c0e000
00e780e000
00efc1c000
00ffc3c000
007c8f8000
00381f0000
00000c0000
0000000000
0000000000
ENDCHAR
STARTCHAR 2422
ENCODING 9250
SWIDTH	-8531 0
DWIDTH	34 0
BBX 34	35 0 -1
BITMAP
0000000000
0000000000
0000000000
0007000000
0007000000
0007000000
00071c0000
0007fc0000
01fffc0000
01ffe00000
01fe000000
000e000000
000e000000
000e000000
000eff0000
000fffc000
003fffe000
007e38f000
00fc707800
01fc703800
03dce01c00
039de01c00
071dc01c00
071f801c00
0e1f801c00
0e0f001c00
0e1e003800
0e7e007800
07ff00f000
07e703e000
03820fc000
00000f0000
0000040000
0000000000
0000000000
ENDCHAR
STARTCHAR 2423
ENCODING 9251
SWIDTH	-8531 0
DWIDTH	34 0
BBX 34	35 0 -1
BITMAP
0000000000
0000000000
0000000000
0000000000
0000000000
0000000000
0000000000
0000000000
0000000000
0000000000
0000000000
0000000000
0000000000
0000000000
0000000000
0000000000
0000000000
00e0000000
00e0030000
00e0078000
00e003c000
007001c000
007000e000
007000f000
0070007000
0039002000
003b800000
001f000000
001f000000
000e000000
0006000000
0000000000
0000000000
0000000000
0000000000
ENDCHAR
STARTCHAR 2424
ENCODING 9252
SWIDTH	-8531 0
DWIDTH	34 0
BBX 34	35 0 -1
BITMAP
0000000000
0000000000
0000000000
0000000000
0000000000
0000000000
0000000000
0000000000
0700000000
0700000000
070000c000
070001e000
070000f000
0700007800
0700003800
0380001c00
0380001e00
0380000e00
0380000700
0380000700
01c0000200
01c0000000
01c0000000
00e2000000
00e7000000
0076000000
007e000000
003e000000
001c000000
000c000000
0000000000
0000000000
0000000000
0000000000
0000000000
ENDCHAR
STARTCHAR 2425
ENCODING 9253
SWIDTH	-8531 0
DWIDTH	34 0
BBX 34	35 0 -1
BITMAP
0000000000
0000000000
0000000000
0000000000
0000000000
0000000000
0000000000
0000000000
0000000000
0001000000
0003c00000
0003f00000
0000f00000
0000200000
0000000000
0000000000
0000f00000
0007fc0000
003ffc0000
003f0e0000
00180e0000
00000e0000
00000e0000
00000e0000
00001c0000
00001c0000
00001c0000
0000380000
0000780000
0000f00000
0001e00000
0003c00000
0001800000
0000000000
0000000000
ENDCHAR
STARTCHAR 2426
ENCODING 9254
SWIDTH	-8531 0
DWIDTH	34 0
BBX 34	35 0 -1
BITMAP
0000000000
0000000000
0003000000
0007c00000
0003f00000
0000fc0000
00003c0000
0000080000
0000000000
0000000000
0000000000
0001f80000
0007fc0000
003ffe0000
01fe0e0000
01f8070000
00c0070000
0000070000
0000070000
0000070000
0000070000
0000070000
0000070000
00000e0000
00000e0000
00000e0000
00001c0000
00001c0000
0000380000
0000780000
0000f00000
0001e00000
0003c00000
0001800000
0000000000
ENDCHAR
STARTCHAR 2427
ENCODING 9255
SWIDTH	-8531 0
DWIDTH	34 0
BBX 34	35 0 -1
BITMAP
0000000000
0000000000
0000000000
0000000000
0000000000
0000000000
0000000000
0000000000
0000000000
0000000000
0000000000
0001c00000
0001f80000
0001f80000
0000380000
0000000000
0000040000
00007e0000
000ffe0000
000ffc0000
000fb80000
0000380000
0000700000
0000e00000
0001f00000
0001f80000
0003fc0000
00079c0000
000f1c0000
001e1fe000
003c1fe000
00380fe000
0010000000
0000000000
0000000000
ENDCHAR
STARTCHAR 2428
ENCODING 9256
SWIDTH	-8531 0
DWIDTH	34 0
BBX 34	35 0 -1
BITMAP
0000000000
0000000000
0000000000
0003000000
0007e00000
0003f80000
0000fc0000
0000180000
0000000000
0000020000
0001ff0000
00ffff0000
00fffe0000
00fe3c0000
0000380000
0000700000
0000e00000
0001e00000
0001c00000
0003800000
0007f00000
000ff80000
001f1c0000
001c1c0000
00381c0000
00701c0000
00f01c0000
01e01c0000
03c01ffc00
07800ffc00
070007fc00
0200000000
0000000000
0000000000
0000000000
ENDCHAR
STARTCHAR 2429
ENCODING 9257
SWIDTH	-8531 0
DWIDTH	34 0
BBX 34	35 0 -1
BITMAP
0000000000
0000000000
0000000000
0000000000
0000000000
0000000000
0000000000
0000000000
0000000000
0000000000
0000000000
000e000000
000e000000
000e000000
000fc60000
007fcf8000
007fc7c000
007e01e000
000e00c000
000e000000
000e000000
000ff80000
000ffe0000
003fff0000
007e070000
00fe038000
00ee038000
01ce038000
01ee070000
00fe3f0000
00fc3e0000
0038180000
0000000000
0000000000
0000000000
ENDCHAR
STARTCHAR 242a
ENCODING 9258
SWIDTH	-8531 0
DWIDTH	34 0
BBX 34	35 0 -1
BITMAP
0000000000
0000000000
0000000000
0000000000
0038000000
0038000000
0038000000
0038018000
0038c3c000
003fe1f000
03ffc0f800
03ff003c00
03f8001c00
0038000800
0038000000
0038000000
00383f0000
0039ffc000
003fffe000
003fc0f000
003e007000
00f8003800
01f8003800
03f8003800
07b8003800
0738003800
0e38007000
0e3800f000
073803e000
07f81fc000
03f01f0000
00e00c0000
0000000000
0000000000
0000000000
ENDCHAR
STARTCHAR 242b
ENCODING 9259
SWIDTH	-8531 0
DWIDTH	34 0
BBX 34	35 0 -1
BITMAP
0000000000
0000000000
0000000000
0000000000
0000000000
0003800000
0003800000
0003800000
0003802000
0007007000
0007007800
0007003c00
0007fc1c00
003ffe0e00
07ffff0f00
07fe070700
07dc070380
001c070380
0038070100
0038070000
00380e0000
00700e0000
00700e0000
00e00e0000
00e01c0000
01c01c0000
03c01c0000
0380380000
0703f80000
0f03f00000
0601e00000
0000000000
0000000000
0000000000
0000000000
ENDCHAR
STARTCHAR 242c
ENCODING 9260
SWIDTH	-8531 0
DWIDTH	34 0
BBX 34	35 0 -1
BITMAP
0000000000
0000000000
0000000400
0000000e00
0000002700
000e007380
000e003900
000e001c00
000e000800
001c006000
001c00f000
001c007800
001ff03c00
00fff81e00
1ffffc0f00
1ff81c0780
1f701c0300
00701c0000
00e01c0000
00e01c0000
00e01c0000
01c0380000
01c0380000
0380380000
0380380000
0700700000
0f00700000
0e00e00000
1c1fe00000
3c1fc00000
180f800000
0000000000
0000000000
0000000000
0000000000
ENDCHAR
STARTCHAR 242d
ENCODING 9261
SWIDTH	-8531 0
DWIDTH	34 0
BBX 34	35 0 -1
BITMAP
0000000000
0000000000
0000000000
0006000000
000e000000
0007080000
00073c0000
0003fc0000
007ff00000
007f800000
007dc00000
0000c30000
0000ef8000
00007f0000
00fffc0000
00fff00000
00ff380000
00001c0000
00001c0000
00000e0000
0007f70000
003fff0000
007fff8000
00f007c000
00e001c000
01c0008000
01c0000000
01c0000000
00e0000000
00f8000000
007ff00000
001ff00000
0003f00000
0000000000
0000000000
ENDCHAR
STARTCHAR 242e
ENCODING 9262
SWIDTH	-8531 0
DWIDTH	34 0
BBX 34	35 0 -1
BITMAP
0000000000
0000000000
0000000000
0006001000
000e003800
0007089c00
00073dce00
0003fce400
007ff07000
007f802000
007dc00000
0000c30000
0000ef8000
00007f0000
00fffc0000
00fff00000
00ff380000
00001c0000
00001c0000
00000e0000
0007f70000
003fff0000
007fff8000
00f007c000
00e001c000
01c0008000
01c0000000
01c0000000
00e0000000
00f8000000
007ff00000
001ff00000
0003f00000
0000000000
0000000000
ENDCHAR
STARTCHAR 242f
ENCODING 9263
SWIDTH	-8531 0
DWIDTH	34 0
BBX 34	35 0 -1
BITMAP
0000000000
0000000000
0000000000
0000600000
0000700000
0000f00000
0000e00000
0001c00000
0001c00000
0003800000
0003800000
0007000000
000e000000
000e000000
001c000000
0038000000
0078000000
0070000000
0078000000
0038000000
001c000000
001c000000
000e000000
0007000000
0007000000
0003800000
0003800000
0001c00000
0001e00000
0000e00000
0000f00000
0000700000
0000600000
0000000000
0000000000
ENDCHAR
STARTCHAR 2430
ENCODING 9264
SWIDTH	-8531 0
DWIDTH	34 0
BBX 34	35 0 -1
BITMAP
0000000000
0000000000
0000000000
0000600000
0000700000
0000f02000
0000e07000
0001c13800
0001c39c00
000381c800
000380e000
0007004000
000e000000
000e000000
001c000000
0038000000
0078000000
0070000000
0078000000
0038000000
001c000000
001c000000
000e000000
0007000000
0007000000
0003800000
0003800000
0001c00000
0001e00000
0000e00000
0000f00000
0000700000
0000600000
0000000000
0000000000
ENDCHAR
STARTCHAR 2431
ENCODING 9265
SWIDTH	-8531 0
DWIDTH	34 0
BBX 34	35 0 -1
BITMAP
0000000000
0000000000
0000000000
0000000000
000001c000
01c001c000
01c001c000
01c001c000
01c001c000
01c001c000
01c001c600
038001ff00
0380fffe00
0380fff800
0380ffe000
038000e000
038000e000
038000e000
038000e000
038000e000
038000e000
038000e000
039000e000
039000e000
039000e000
039001c000
01f001c000
01e001c000
01e0038000
00e0078000
00e00f0000
00401e0000
00000c0000
0000000000
0000000000
ENDCHAR
STARTCHAR 2432
ENCODING 9266
SWIDTH	-8531 0
DWIDTH	34 0
BBX 34	35 0 -1
BITMAP
0000000000
0000000000
0000000400
0000000e00
000003a700
038003f380
038003b900
0380039c00
0380038800
0380038000
0380038c00
070003fe00
0701fffc00
0701fff000
0701ffc000
070001c000
070001c000
070001c000
070001c000
070001c000
070001c000
070001c000
072001c000
072001c000
072001c000
0720038000
03e0038000
03c0038000
03c0070000
01c00f0000
01c01e0000
00801c0000
0000080000
0000000000
0000000000
ENDCHAR
STARTCHAR 2433
ENCODING 9267
SWIDTH	-8531 0
DWIDTH	34 0
BBX 34	35 0 -1
BITMAP
0000000000
0000000000
0000000000
0000000000
0000000000
0000000000
0000000000
0078000000
007fff8000
007fff8000
0007ff8000
0000000000
0000000000
0000000000
0000000000
0000000000
0000000000
0000000000
0000000000
0000000000
0000000000
0000000000
0000000000
0000000000
0100000000
0380000000
03c0000000
01ffffe000
00ffffe000
003fffe000
0000000000
0000000000
0000000000
0000000000
0000000000
ENDCHAR
STARTCHAR 2434
ENCODING 9268
SWIDTH	-8531 0
DWIDTH	34 0
BBX 34	35 0 -1
BITMAP
0000000000
0000000000
0000000800
0000001c00
0000004e00
000000e700
0000007200
00f0003800
00ffff1000
00ffff0000
000fff0000
0000000000
0000000000
0000000000
0000000000
0000000000
0000000000
0000000000
0000000000
0000000000
0000000000
0000000000
0000000000
0000000000
0200000000
0700000000
0780000000
03ffffc000
01ffffc000
007fffc000
0000000000
0000000000
0000000000
0000000000
0000000000
ENDCHAR
STARTCHAR 2435
ENCODING 9269
SWIDTH	-8531 0
DWIDTH	34 0
BBX 34	35 0 -1
BITMAP
0000000000
0000000000
0000000000
0006000000
000e000000
0007000000
0007000000
0003860000
0003bf0000
0001fe0000
01fff80000
01ffe00000
01fef00000
0000700000
0000780000
0000380000
00001c0000
00001e0000
0007ee0000
003fff0000
007fff8000
00f80fc000
00e003c000
01c0008000
01c0000000
01c0000000
01c0000000
00e0000000
00f8000000
007ff80000
003ff80000
0007f80000
0000000000
0000000000
0000000000
ENDCHAR
STARTCHAR 2436
ENCODING 9270
SWIDTH	-8531 0
DWIDTH	34 0
BBX 34	35 0 -1
BITMAP
0000000000
0000000000
0000001000
0006003800
000e009c00
000701ce00
000700e400
0003867000
0003bf2000
0001fe0000
01fff80000
01ffe00000
01fef00000
0000700000
0000780000
0000380000
00001c0000
00001e0000
0007ee0000
003fff0000
007fff8000
00f80fc000
00e003c000
01c0008000
01c0000000
01c0000000
01c0000000
00e0000000
00f8000000
007ff80000
003ff80000
0007f80000
0000000000
0000000000
0000000000
ENDCHAR
STARTCHAR 2437
ENCODING 9271
SWIDTH	-8531 0
DWIDTH	34 0
BBX 34	35 0 -1
BITMAP
0000000000
0000000000
0000000000
0000000000
0070000000
0070000000
0070000000
0070000000
0070000000
0070000000
0070000000
0070000000
0070000000
0070000000
0070000000
0070000000
0070000000
0070000000
0070000000
0070000000
0070000000
0070000000
0070000000
0070000000
0070000000
007000c000
007001e000
007003c000
00381f8000
003fff0000
001ffc0000
0007e00000
0000000000
0000000000
0000000000
ENDCHAR
STARTCHAR 2438
ENCODING 9272
SWIDTH	-8531 0
DWIDTH	34 0
BBX 34	35 0 -1
BITMAP
0000000000
0000000000
0000000000
0000000000
0070000000
0070008000
007001c000
007004e000
00700e7000
0070072000
0070038000
0070010000
0070000000
0070000000
0070000000
0070000000
0070000000
0070000000
0070000000
0070000000
0070000000
0070000000
0070000000
0070000000
0070000000
007000c000
007001e000
007003c000
00381f8000
003fff0000
001ffc0000
0007e00000
0000000000
0000000000
0000000000
ENDCHAR
STARTCHAR 2439
ENCODING 9273
SWIDTH	-8531 0
DWIDTH	34 0
BBX 34	35 0 -1
BITMAP
0000000000
0000000000
0000000000
0000700000
0000700000
0000700000
0000700000
0000700000
0007fffe00
1ffffffe00
1ffffffe00
1ff8700000
0000700000
0000700000
0003f00000
000ff00000
000ff00000
001c700000
001c700000
001c700000
001c700000
001c700000
001ff00000
000ff00000
0003f00000
0000700000
0000e00000
0000e00000
0000e00000
0001c00000
0003c00000
0007800000
0007000000
0002000000
0000000000
ENDCHAR
STARTCHAR 243a
ENCODING 9274
SWIDTH	-8531 0
DWIDTH	34 0
BBX 34	35 0 -1
BITMAP
0000000000
0000000000
0000000800
0000701c00
0000704e00
000070e700
0000707200
0000703800
0000701000
0007fffc00
1ffffffc00
1ffffffc00
1ff8700000
0000700000
0000700000
0003f00000
000ff00000
000ff00000
001c700000
001c700000
001c700000
001c700000
001c700000
000ff00000
000ff00000
0003f00000
0000600000
0000e00000
0000e00000
0001c00000
0003c00000
0007800000
000f000000
0006000000
0000000000
ENDCHAR
STARTCHAR 243b
ENCODING 9275
SWIDTH	-8531 0
DWIDTH	34 0
BBX 34	35 0 -1
BITMAP
0000000000
0000000000
0000000000
0000000000
0000000000
0000070000
0070070000
0070070000
0070070000
0070070000
0070070000
0070070000
007007ff00
007fffff00
3fffffff00
3ffffe0000
3ff00e0000
00700e0000
00700e0000
00700e0000
00700e0000
0070fe0000
00707c0000
00707c0000
0070000000
0070000000
0038000000
0038000000
003fffe000
001fffe000
0007ffe000
0000000000
0000000000
0000000000
0000000000
ENDCHAR
STARTCHAR 243c
ENCODING 9276
SWIDTH	-8531 0
DWIDTH	34 0
BBX 34	35 0 -1
BITMAP
0000000000
0000000000
0000000000
0000000000
0000000400
0000070e00
0070072700
0070077380
0070073900
0070071c00
0070070800
0070070000
007007ff00
007fffff00
3fffffff00
3ffffe0000
3ff00e0000
00700e0000
00700e0000
00700e0000
00700e0000
0070fe0000
00707c0000
00707c0000
0070000000
0070000000
0038000000
0038000000
003fffe000
001fffe000
0007ffe000
0000000000
0000000000
0000000000
0000000000
ENDCHAR
STARTCHAR 243d
ENCODING 9277
SWIDTH	-8531 0
DWIDTH	34 0
BBX 34	35 0 -1
BITMAP
0000000000
0000000000
0000000000
0000000000
00000c0000
0000fe0000
003ffe0000
003ff80000
003e700000
0000e00000
0001c00000
0003800000
0007000000
000e03fc00
001cfffc00
003ffffc00
01fffe0000
1ffe700000
1fe0e00000
0e01c00000
0001800000
0003800000
0003800000
0003800000
0003800000
0003800000
0003800000
0001c00000
0001e00000
0000f80000
00007f0000
00001f0000
0000060000
0000000000
0000000000
ENDCHAR
STARTCHAR 243e
ENCODING 9278
SWIDTH	-8531 0
DWIDTH	34 0
BBX 34	35 0 -1
BITMAP
0000000000
0000000000
0000000000
0000000000
00000c0000
0000fe1000
003ffe3800
003ff89c00
003e71ce00
0000e0e400
0001c07000
0003802000
0007000000
000e03fc00
001cfffc00
003ffffc00
01fffe0000
1ffe700000
1fe0e00000
0e01c00000
0001800000
0003800000
0003800000
0003800000
0003800000
0003800000
0003800000
0001c00000
0001e00000
0000f80000
00007f0000
00001f0000
0000060000
0000000000
0000000000
ENDCHAR
STARTCHAR 243f
ENCODING 9279
SWIDTH	-8531 0
DWIDTH	34 0
BBX 34	35 0 -1
BITMAP
0000000000
0000000000
0000000000
0000000000
001c000000
001c000000
001c000000
001c800000
003fc00000
03ffc00000
03ff000000
03f8000000
00383ff800
00703ff800
00703ff800
0070000000
0070000000
00e0000000
00e0000000
00e0000000
00e0000000
01c0000000
01c0000000
01c0000000
01c0000000
0380000000
0380400000
0380f80000
0700fffc00
07003ffc00
0e0007fc00
0600000000
0000000000
0000000000
0000000000
ENDCHAR
STARTCHAR 2440
ENCODING 9280
SWIDTH	-8531 0
DWIDTH	34 0
BBX 34	35 0 -1
BITMAP
0000000000
0000000000
0000000000
0000000800
001c001c00
001c004e00
001c00e700
001c807200
003fc03800
03ffc01000
03ff000000
03f8000000
00383ff800
00703ff800
00703ff800
0070000000
0070000000
00e0000000
00e0000000
00e0000000
00e0000000
01c0000000
01c0000000
01c0000000
01c0000000
0380000000
0380400000
0380f80000
0700fffc00
07003ffc00
0e0007fc00
0600000000
0000000000
0000000000
0000000000
ENDCHAR
STARTCHAR 2441
ENCODING 9281
SWIDTH	-8531 0
DWIDTH	34 0
BBX 34	35 0 -1
BITMAP
0000000000
0000000000
0000000000
0000000000
0070000000
0070000000
0070000000
0070e00000
007fe00000
0fffe00000
0fff000000
0ff0000000
0070000000
0070000000
0070000000
00703f0000
0071ffc000
0077ffe000
006fc0f000
00ff007000
00fc003800
00f8003800
00f0003800
01e0003800
00c0003800
0000007000
000000f000
000001e000
00000fc000
0001ff8000
0001fe0000
0000f00000
0000000000
0000000000
0000000000
ENDCHAR
STARTCHAR 2442
ENCODING 9282
SWIDTH	-8531 0
DWIDTH	34 0
BBX 34	35 0 -1
BITMAP
0000000000
0000000000
0000000000
0000004000
007000e000
0070027000
0070073800
0070e39000
007fe1c000
0fffe08000
0fff000000
0ff0000000
0070000000
0070000000
0070000000
00703f0000
0071ffc000
0077ffe000
006fc0f000
00ff007000
00fc003800
00f8003800
00f0003800
01e0003800
00c0003800
0000007000
000000f000
000001e000
00000fc000
0001ff8000
0001fe0000
0000f00000
0000000000
0000000000
0000000000
ENDCHAR
STARTCHAR 2443
ENCODING 9283
SWIDTH	-8531 0
DWIDTH	34 0
BBX 34	35 0 -1
BITMAP
0000000000
0000000000
0000000000
0000000000
0000000000
0000000000
0000000000
0000000000
0000000000
0000000000
0000000000
0000000000
0000000000
0000000000
00007e0000
0003ff8000
001fffc000
01ff81c000
01fc00e000
00e000e000
000000e000
000000e000
000000e000
000001c000
000003c000
0000078000
00003f0000
0001fe0000
0001f80000
0000c00000
0000000000
0000000000
0000000000
0000000000
0000000000
ENDCHAR
STARTCHAR 2444
ENCODING 9284
SWIDTH	-8531 0
DWIDTH	34 0
BBX 34	35 0 -1
BITMAP
0000000000
0000000000
0000000000
0000000000
0000000000
0000000000
0000000000
0000000000
0000000000
00007f0000
0007ffc000
003ffff000
03ff80f000
3ff8003800
3fc0003800
1c00001c00
0000001c00
0000001c00
0000001c00
0000001c00
0000001c00
0000003800
0000003800
0000007000
000000f000
000003e000
00001fc000
0001ff0000
0001fc0000
0000e00000
0000000000
0000000000
0000000000
0000000000
0000000000
ENDCHAR
STARTCHAR 2445
ENCODING 9285
SWIDTH	-8531 0
DWIDTH	34 0
BBX 34	35 0 -1
BITMAP
0000000000
0000000000
0000000000
0000000400
0000000e00
0000002700
0000007380
0000003900
0000001c00
00007f0800
0007ffc000
003ffff000
03ff80f000
3ff8003800
3fc0003800
1c00001c00
0000001c00
0000001c00
0000001c00
0000001c00
0000001c00
0000003800
0000003800
0000007000
000000f000
000003e000
00001fc000
0001ff0000
0001fc0000
0000e00000
0000000000
0000000000
0000000000
0000000000
0000000000
ENDCHAR
STARTCHAR 2446
ENCODING 9286
SWIDTH	-8531 0
DWIDTH	34 0
BBX 34	35 0 -1
BITMAP
0000000000
0000000000
0000000000
0000000000
0000000000
0000000000
0000000000
000003f800
0000fff800
007ffff800
1fffff0000
1fff3c0000
1f80700000
0000e00000
0001c00000
0001c00000
0003800000
0003800000
0007000000
0007000000
0007000000
0007000000
0007000000
0007000000
0007000000
0003800000
0003c00000
0001e00000
0000f80000
00007f0000
00001f0000
0000060000
0000000000
0000000000
0000000000
ENDCHAR
STARTCHAR 2447
ENCODING 9287
SWIDTH	-8531 0
DWIDTH	34 0
BBX 34	35 0 -1
BITMAP
0000000000
0000000000
0000000000
0000000000
0000000000
0000000000
0000000000
000003f800
0000fff800
003ffff800
0fffff0000
0fff3c0000
0fc0702000
0000e07000
0001c13800
0001c39c00
000381c800
000380e000
0007004000
0007000000
0007000000
0007000000
0007000000
0007000000
0007000000
0003800000
0003c00000
0001e00000
0000f80000
00007f0000
00001f0000
0000060000
0000000000
0000000000
0000000000
ENDCHAR
STARTCHAR 2448
ENCODING 9288
SWIDTH	-8531 0
DWIDTH	34 0
BBX 34	35 0 -1
BITMAP
0000000000
0000000000
0000000000
0030000000
0070000000
0078000000
0038000000
0038000000
001c000000
001c002000
001c007000
000e01f000
000e07e000
000e1f8000
00077e0000
0007f80000
0007e00000
001f800000
003e000000
0078000000
00f0000000
00e0000000
01c0000000
01c0000000
01c0000000
01c0000000
00e0000000
00f0000000
007fffe000
003fffe000
000fffe000
0000000000
0000000000
0000000000
0000000000
ENDCHAR
STARTCHAR 2449
ENCODING 9289
SWIDTH	-8531 0
DWIDTH	34 0
BBX 34	35 0 -1
BITMAP
0000000000
0000000000
0000000800
0030001c00
0070004e00
007800e700
0038007200
0038003800
001c001000
001c002000
001c007000
000e01f000
000e07e000
000e1f8000
00077e0000
0007f80000
0007e00000
001f800000
003e000000
0078000000
00f0000000
00e0000000
01c0000000
01c0000000
01c0000000
01c0000000
00e0000000
00f0000000
007fffe000
003fffe000
000fffe000
0000000000
0000000000
0000000000
0000000000
ENDCHAR
STARTCHAR 244a
ENCODING 9290
SWIDTH	-8531 0
DWIDTH	34 0
BBX 34	35 0 -1
BITMAP
0000000000
0000000000
0000000000
000e000000
000e000000
000e000000
001c000000
001cc00000
001fe06000
07ffc0f000
07ff007c00
07f8003e00
0038000f00
0070000600
00700e0000
00700e0000
00e00e0000
00e00e0000
01c00e0000
01c00e0000
03800e0000
03800e0000
07000e0000
07000e0000
0201fe0000
0007ff8000
0007ffc000
000e0ff000
000e0ef800
0007fe3800
0007fc1000
0001f80000
0000000000
0000000000
0000000000
ENDCHAR
STARTCHAR 244b
ENCODING 9291
SWIDTH	-8531 0
DWIDTH	34 0
BBX 34	35 0 -1
BITMAP
0000000000
0000000000
0000000000
0000000000
0000000000
00e0000000
00e0000000
00e0000000
01c0000000
01c0fff800
01c0fff800
01c0fff800
01c0000000
0380000000
0380000000
0380000000
0380000000
0380000000
0380000000
0380000000
0380000000
0380000000
0380000000
0380000000
0390800000
0391e00000
03b1fffc00
01e0fffc00
01e01ffc00
01e0000000
00e0000000
0040000000
0000000000
0000000000
0000000000
ENDCHAR
STARTCHAR 244c
ENCODING 9292
SWIDTH	-8531 0
DWIDTH	34 0
BBX 34	35 0 -1
BITMAP
0000000000
0000000000
0000000000
0000000000
0001c00000
0001c00000
0001c00000
0001c00000
0401c00000
0e01fc0000
0e07ff0000
071fffc000
077f83e000
03fb80e000
03e3807000
03c7007000
07c7003800
07e7003800
0eee003800
0e7e003800
0e7e003800
1c3c003800
1c1c003800
1c381fb800
1c387ff800
1c707ff000
1ce0e07800
1fe0e0fc00
0fc0fffe00
07007fce00
00001f0400
0000000000
0000000000
0000000000
0000000000
ENDCHAR
STARTCHAR 244d
ENCODING 9293
SWIDTH	-8531 0
DWIDTH	34 0
BBX 34	35 0 -1
BITMAP
0000000000
0000000000
0000000000
0000000000
00e0000000
00e0000000
00e0000000
00e0000000
00e0000000
00f0078000
00f83fe000
03f87ff000
1ff1f87000
1ff3e03800
1ce7803800
00ef003800
00fe003800
00fc003800
00f8003800
00f0003800
01e0003800
01e0003800
03e0003800
07e01fb800
07e07ff000
0ee0fff800
1ee0e07e00
1ce0e0ff00
08e07fe700
00e07fc200
00e01f0000
00e0000000
0000000000
0000000000
0000000000
ENDCHAR
STARTCHAR 244e
ENCODING 9294
SWIDTH	-8531 0
DWIDTH	34 0
BBX 34	35 0 -1
BITMAP
0000000000
0000000000
0000000000
0000000000
0000000000
0000000000
0000000000
0003fc0000
001fff0000
007fffc000
00fce3e000
01e0e0f000
03c1c07000
0781c03800
0701c03800
0e03801c00
0e03801c00
0e03801c00
1c07001c00
1c07001c00
1c0e001c00
1c0e001c00
1c1c003800
1c3c003800
1c38007000
0e7000f000
0ff001e000
07e003c000
03800f8000
00003f0000
00003c0000
0000100000
0000000000
0000000000
0000000000
ENDCHAR
STARTCHAR 244f
ENCODING 9295
SWIDTH	-8531 0
DWIDTH	34 0
BBX 34	35 0 -1
BITMAP
0000000000
0000000000
0000000000
0000000000
01c001c000
01c001c000
01c001c000
01c001c000
038001c000
038001fe00
0381fffe00
0381fffe00
0381ffc000
070001c000
070001c000
070001c000
070001c000
070001c000
070001c000
070001c000
070001c000
070001c000
07003fc000
0700ffc000
0721fff000
0723c1fc00
076381fe00
03e1c1cf00
03c1ffc600
03c0ff8000
01c03f0000
01c0000000
0000000000
0000000000
0000000000
ENDCHAR
STARTCHAR 2450
ENCODING 9296
SWIDTH	-8531 0
DWIDTH	34 0
BBX 34	35 0 -1
BITMAP
0000000000
0000000000
0000000400
0000000e00
038003a700
038003f380
038003b900
0380039c00
0700038800
070003fc00
0703fffc00
0703fffc00
0703ff8000
0e00038000
0e00038000
0e00038000
0e00038000
0e00038000
0e00038000
0e00038000
0e00038000
0e00038000
0e007f8000
0e01ff8000
0e43ffe000
0e4783f800
0ec703fc00
07c3839e00
0783ff8c00
0781ff0000
03807e0000
0380000000
0000000000
0000000000
0000000000
ENDCHAR
STARTCHAR 2451
ENCODING 9297
SWIDTH	-8531 0
DWIDTH	34 0
BBX 34	35 0 -1
BITMAP
0000000000
0000000000
0000000e00
0000001f00
038003b180
038003b180
038003b180
0380039f00
0700038e00
070003fc00
0703fffc00
0703fffc00
0703ff8000
0e00038000
0e00038000
0e00038000
0e00038000
0e00038000
0e00038000
0e00038000
0e00038000
0e00038000
0e007f8000
0e01ff8000
0e43ffe000
0e4783f800
0ec703fc00
07c3839e00
0783ff8c00
0781ff0000
03807e0000
0380000000
0000000000
0000000000
0000000000
ENDCHAR
STARTCHAR 2452
ENCODING 9298
SWIDTH	-8531 0
DWIDTH	34 0
BBX 34	35 0 -1
BITMAP
0000000000
0000000000
0000000000
0000000000
0000018000
0004038000
001e03c000
00fe01c000
07fc01c000
07f801e000
077001f000
00e001f000
00e001f800
01c001dc00
01c001de00
038001cf00
038001c700
038001c200
070001c000
070001c000
070001c000
0700038000
0700038000
0700038000
0700070000
0700070000
03800f0000
03801e0000
01e07c0000
00fff80000
007ff00000
001f800000
0000000000
0000000000
0000000000
ENDCHAR
STARTCHAR 2453
ENCODING 9299
SWIDTH	-8531 0
DWIDTH	34 0
BBX 34	35 0 -1
BITMAP
0000000000
0000000000
0000000400
0000000e00
0000032700
0008077380
003c07b900
01fc039c00
0ff8038800
0ff003c000
0ee003e000
01c003e000
01c003f000
038003b800
038003bc00
0700039e00
0700038e00
0700038400
0e00038000
0e00038000
0e00038000
0e00070000
0e00070000
0e00070000
0e000e0000
0e000e0000
07001e0000
07003c0000
03c0f80000
01fff00000
00ffe00000
003f000000
0000000000
0000000000
0000000000
ENDCHAR
STARTCHAR 2454
ENCODING 9300
SWIDTH	-8531 0
DWIDTH	34 0
BBX 34	35 0 -1
BITMAP
0000000000
0000000000
0000000000
0000000e00
0000031f00
0008073180
003c07b180
01fc03b180
0ff8039f00
0ff003ce00
0ee003e000
01c003e000
01c003f000
038003b800
038003bc00
0700039e00
0700038e00
0700038400
0e00038000
0e00038000
0e00038000
0e00070000
0e00070000
0e00070000
0e000e0000
0e000e0000
07001e0000
07003c0000
03c0f80000
01fff00000
00ffe00000
003f000000
0000000000
0000000000
0000000000
ENDCHAR
STARTCHAR 2455
ENCODING 9301
SWIDTH	-8531 0
DWIDTH	34 0
BBX 34	35 0 -1
BITMAP
0000000000
0000000000
0000000000
0006000000
000f800000
0007e00000
0001f80000
0000780000
0000100000
0000000000
0003000000
0007800000
0007000000
000e000000
000e000000
000e000000
0007000000
0007000000
0003800000
0001c0c000
0001e1e000
0020e0f000
0070707800
00f0703c00
03e0381c00
07c0380e00
1f00380e00
3e00780400
1807f00000
0003f00000
0003c00000
0000000000
0000000000
0000000000
0000000000
ENDCHAR
STARTCHAR 2456
ENCODING 9302
SWIDTH	-8531 0
DWIDTH	34 0
BBX 34	35 0 -1
BITMAP
0000000000
0000000000
0000000000
0006000000
000f800000
0007e00000
0001f80000
0000781000
0000103800
0000009c00
000301ce00
000780e400
0007007000
000e002000
000e000000
000e000000
0007000000
0007000000
0003800000
0001c0c000
0001e1e000
0020e0f000
0070707800
00f0703c00
03e0381c00
07c0380e00
1f00380e00
3e00780400
1807f00000
0003f00000
0003c00000
0000000000
0000000000
0000000000
0000000000
ENDCHAR
STARTCHAR 2457
ENCODING 9303
SWIDTH	-8531 0
DWIDTH	34 0
BBX 34	35 0 -1
BITMAP
0000000000
0000000000
0000000000
0006000000
000f800000
0007e00000
0001f80000
0000780000
0000107000
000000f800
0003018c00
0007818c00
0007018c00
000e00f800
000e007000
000e000000
0007000000
0007000000
0003800000
0001c0c000
0001e1e000
0020e0f000
0070707800
00f0703c00
03e0381c00
07c0380e00
1f00380e00
3e00780400
1807f00000
0003f00000
0003c00000
0000000000
0000000000
0000000000
0000000000
ENDCHAR
STARTCHAR 2458
ENCODING 9304
SWIDTH	-8531 0
DWIDTH	34 0
BBX 34	35 0 -1
BITMAP
0000000000
0000000000
0000000000
0000000000
0000000000
0000000000
0000000000
0000000000
0000000000
0000000000
0000000000
001e000000
003f000000
007f800000
00f3c00000
01e1f00000
03c0f80000
07803c0000
1f001f0000
3e000f8000
380003e000
100001f000
0000007c00
0000003f00
0000000f00
0000000200
0000000000
0000000000
0000000000
0000000000
0000000000
0000000000
0000000000
0000000000
0000000000
ENDCHAR
STARTCHAR 2459
ENCODING 9305
SWIDTH	-8531 0
DWIDTH	34 0
BBX 34	35 0 -1
BITMAP
0000000000
0000000000
0000000000
0000000000
0000000000
0000000000
0000000000
0000000000
0000004000
000000e000
0000027000
001e073800
003f039000
007f81c000
00f3c08000
01e1f00000
03c0780000
07803c0000
1f001f0000
3e000f8000
380003c000
100001f000
0000007c00
0000003f00
0000000f00
0000000200
0000000000
0000000000
0000000000
0000000000
0000000000
0000000000
0000000000
0000000000
0000000000
ENDCHAR
STARTCHAR 245a
ENCODING 9306
SWIDTH	-8531 0
DWIDTH	34 0
BBX 34	35 0 -1
BITMAP
0000000000
0000000000
0000000000
0000000000
0000000000
0000000000
0000000000
0000000000
000000e000
000001f000
0000031800
001e031800
003f031800
007f81f000
00f3c0e000
01e1f00000
03c0780000
07803c0000
1f001f0000
3e000f8000
380003c000
100001f000
0000007c00
0000003f00
0000000f00
0000000200
0000000000
0000000000
0000000000
0000000000
0000000000
0000000000
0000000000
0000000000
0000000000
ENDCHAR
STARTCHAR 245b
ENCODING 9307
SWIDTH	-8531 0
DWIDTH	34 0
BBX 34	35 0 -1
BITMAP
0000000000
0000000000
0000000000
0000000000
0380000000
0380000000
038000fc00
0703fffc00
0703fffc00
0703ff8000
0700038000
0700038000
0700038000
0e0003fc00
0e07fffc00
0e07fffc00
0e07ff8000
0e00038000
0e00038000
0e00038000
0e00038000
0e00038000
0e007f8000
0e01ffe000
0e43fff000
0e4783fc00
0ec703be00
0783838e00
0783ff8400
0781ff0000
03807e0000
0380000000
0000000000
0000000000
0000000000
ENDCHAR
STARTCHAR 245c
ENCODING 9308
SWIDTH	-8531 0
DWIDTH	34 0
BBX 34	35 0 -1
BITMAP
0000000000
0000000000
0000000400
0000000e00
0380002700
0380007380
0380003900
0703fffc00
0703ffe800
0703ffe000
0700038000
0700038000
0700038000
0e0003fc00
0e07fffc00
0e07fffc00
0e07ff8000
0e00038000
0e00038000
0e00038000
0e00038000
0e00038000
0e007f8000
0e01ffe000
0e43fff000
0e4783fc00
0ec703be00
0783838e00
0783ff8400
0781ff0000
03807e0000
0380000000
0000000000
0000000000
0000000000
ENDCHAR
STARTCHAR 245d
ENCODING 9309
SWIDTH	-8531 0
DWIDTH	34 0
BBX 34	35 0 -1
BITMAP
0000000000
0000000000
0000000e00
0000001f00
0380003180
0380003180
038000f180
0703ffff00
0703ffee00
0703ff8000
0700038000
0700038000
0700038000
0e0003fc00
0e07fffc00
0e07fffc00
0e07ff8000
0e00038000
0e00038000
0e00038000
0e00038000
0e00038000
0e007f8000
0e01ffe000
0e43fff000
0e4783fc00
0ec703be00
0783838e00
0783ff8400
0781ff0000
03807e0000
0380000000
0000000000
0000000000
0000000000
ENDCHAR
STARTCHAR 245e
ENCODING 9310
SWIDTH	-8531 0
DWIDTH	34 0
BBX 34	35 0 -1
BITMAP
0000000000
0000000000
0000000000
0000e00000
0000e00000
0000e00000
0000e00000
0040e3c000
00ffffc000
00ffffc000
003ffc0000
0000e00000
0000e00000
0000e00000
0040e3c000
00ffffc000
00ffffc000
003ffc0000
0000e00000
0000e00000
0000e00000
0000e00000
0000e00000
001fe00000
007ff80000
00fffe0000
01e0ff8000
01c0e7c000
00e0e1e000
00ffe0c000
007fc00000
001f800000
0000000000
0000000000
0000000000
ENDCHAR
STARTCHAR 245f
ENCODING 9311
SWIDTH	-8531 0
DWIDTH	34 0
BBX 34	35 0 -1
BITMAP
0000000000
0000000000
0000000000
0000000000
0000180000
0001fc0000
007ffc0000
007ff80000
007e700000
0000700000
0000e00000
0000e00000
0001c00000
0001c07000
0003807000
0003807000
000700e000
007fe0e000
01fffce000
07ffffc000
0f9c1fe000
0e3803f000
1c7801fc00
1c7003be00
1ce0078f00
1fe0070600
0fc00e0000
07001e0000
00003c0000
0000780000
0000f00000
0000600000
0000000000
0000000000
0000000000
ENDCHAR
STARTCHAR 2460
ENCODING 9312
SWIDTH	-8531 0
DWIDTH	34 0
BBX 34	35 0 -1
BITMAP
0000000000
0000000000
0000000000
0000000000
0038000000
0038000000
0038000000
0038000000
003fc06000
0fffc0f800
0fffc07c00
0ff0001e00
0070000f00
0070000600
0070000000
00f8000000
03f8000000
03b8000000
0738000000
0738000000
0738000000
0770000000
0770000000
07f0006000
03e0007000
01e0007000
00e0007000
00e000e000
007000e000
007fffe000
003fffc000
000fff8000
0000000000
0000000000
0000000000
ENDCHAR
STARTCHAR 2461
ENCODING 9313
SWIDTH	-8531 0
DWIDTH	34 0
BBX 34	35 0 -1
BITMAP
0000000000
0000000000
0000000000
0000000000
00001c0000
00001c0000
00001c0000
00001c0000
0300380000
0700380000
0701ff0000
038fffc000
03bffff000
03fe70f800
01f0703800
01e0e01c00
03c0e01c00
07e0e00e00
07e1c00e00
0e71c00e00
0e73800e00
1c3b800e00
1c3f000e00
1c1f000e00
1c1e001c00
1c1c001c00
1c3c003800
0e78007800
0ff000f000
07e003e000
03800fc000
00000f0000
0000040000
0000000000
0000000000
ENDCHAR
STARTCHAR 2462
ENCODING 9314
SWIDTH	-8531 0
DWIDTH	34 0
BBX 34	35 0 -1
BITMAP
0000000000
0000000000
0000000000
0007000000
0007000000
0007000000
0007000000
0007000000
008e000000
01ee000000
01fff00000
007ff00000
001ff00000
000e000000
000e000000
001c000000
011c000000
03dc020000
03ffe70000
00ffe78000
003fe38000
003801c000
003801c000
003800e000
003800e000
003800e000
003800e000
003800e000
001c01c000
001e03c000
000fff8000
0007ff0000
0001fc0000
0000000000
0000000000
ENDCHAR
STARTCHAR 2463
ENCODING 9315
SWIDTH	-8531 0
DWIDTH	34 0
BBX 34	35 0 -1
BITMAP
0000000000
0000000000
0000000000
0000000000
0000000000
0000000000
0000000000
0000000000
0000000000
0000000000
0000000000
0001800000
0003c00000
0061e00000
00e0e00000
00704f8000
00703fc000
0038ffe000
003bf0e000
001fc0e000
007f00e000
03fe1fc000
03ee1fc000
01870f0000
0007000000
0003800000
0003800000
0001c00000
0001c00000
0001c00000
0000e00000
0000e00000
0000c00000
0000000000
0000000000
ENDCHAR
STARTCHAR 2464
ENCODING 9316
SWIDTH	-8531 0
DWIDTH	34 0
BBX 34	35 0 -1
BITMAP
0000000000
0000000000
0000000000
0000000000
0006000000
000f000000
0007c00000
0303e00000
0700f3e000
07806ff800
03803ffc00
03c0fc1c00
01c3f00e00
00efc00e00
00ff000e00
00fc000e00
07f0001c00
3ff8003c00
3f381ff800
181c1ff000
001c0fc000
000e000000
000e000000
0007000000
0007000000
0003800000
0003800000
0001c00000
0001c00000
0000e00000
0000f00000
0000700000
0000600000
0000000000
0000000000
ENDCHAR
STARTCHAR 2465
ENCODING 9317
SWIDTH	-8531 0
DWIDTH	34 0
BBX 34	35 0 -1
BITMAP
0000000000
0000000000
0000000000
0000000000
0000000000
0000000000
0000000000
0000000000
0000000000
0000000000
0000000000
0000700000
0000700000
0070700000
0070700000
0070fe0000
0073ff8000
00e7ffc000
00ef39c000
00ee38e000
00fc38e000
00f838e000
00f838e000
00f838e000
00f339c000
0077ffc000
0073ff8000
0070fe0000
0070380000
0000700000
0000f00000
0001e00000
0000c00000
0000000000
0000000000
ENDCHAR
STARTCHAR 2466
ENCODING 9318
SWIDTH	-8531 0
DWIDTH	34 0
BBX 34	35 0 -1
BITMAP
0000000000
0000000000
0000000000
0000700000
0000700000
0000700000
0000700000
0700700000
0700700000
0701ff8000
0707ffe000
0e0ffff000
0e1e387800
0e3c383c00
0e78381c00
0e70380e00
0ee0380e00
0ee0380e00
0ee0380e00
0fc0380e00
0fc0380e00
07cc381c00
079e383c00
078fb87800
0387fff000
0381ffe000
03807f8000
0000700000
0000e00000
0001e00000
0003c00000
0007800000
0003000000
0000000000
0000000000
ENDCHAR
STARTCHAR 2467
ENCODING 9319
SWIDTH	-8531 0
DWIDTH	34 0
BBX 34	35 0 -1
BITMAP
0000000000
0000000000
0000000000
0000000000
0000000000
0000000000
0000000000
0000000000
0000000000
0000000000
0000000000
0000e00000
0000e00000
0000e00000
0000e00000
0000e70000
0000ff0000
0000ff0000
0000f80000
0000e00000
0000e00000
0000e00000
0000e00000
0000e00000
000fe00000
001ff80000
003ffe0000
0038ff0000
003fe78000
001fe30000
000fc00000
0000000000
0000000000
0000000000
0000000000
ENDCHAR
STARTCHAR 2468
ENCODING 9320
SWIDTH	-8531 0
DWIDTH	34 0
BBX 34	35 0 -1
BITMAP
0000000000
0000000000
0000000000
0001c00000
0001c00000
0001c00000
0001c00000
0001c00000
0001c00000
0001c00000
0001c1e000
0001ffe000
0001ffe000
0001fe0000
0001c00000
0001c00000
0001c00000
0001c00000
0001c00000
0001c00000
0001c00000
0001c00000
0001c00000
007fc00000
01fff00000
03fffc0000
0781ff0000
0701cfc000
0781c3e000
03ffc0e000
01ff804000
007f000000
0000000000
0000000000
0000000000
ENDCHAR
STARTCHAR 2469
ENCODING 9321
SWIDTH	-8531 0
DWIDTH	34 0
BBX 34	35 0 -1
BITMAP
0000000000
0000000000
0000000000
000c000000
001f000000
000fc00000
0003e00000
0000c00000
0000000000
0070000000
0070000000
0070000000
0070000000
0070000000
0070000000
0070000000
00707f0000
0073ffc000
00efffe000
00ff80f000
00fe007000
00f8003800
00f0003800
01e0003800
00c0003800
0000003800
0000007000
000000f000
000001e000
00000fc000
0000ff8000
0000fe0000
0000700000
0000000000
0000000000
ENDCHAR
STARTCHAR 246a
ENCODING 9322
SWIDTH	-8531 0
DWIDTH	34 0
BBX 34	35 0 -1
BITMAP
0000000000
0000000000
0000000000
0000000000
0070070000
0070070000
0070070000
0070070000
0070038000
00e0038000
00e0038000
00e0038000
00e0038000
00e0038000
00e0038000
00e0038000
00e0038000
00e8038000
00e8038000
00f8038000
0078038000
0070070000
0070070000
0070070000
0000070000
00000e0000
00000e0000
00001c0000
00003c0000
0000780000
0000f00000
0000e00000
0000400000
0000000000
0000000000
ENDCHAR
STARTCHAR 246b
ENCODING 9323
SWIDTH	-8531 0
DWIDTH	34 0
BBX 34	35 0 -1
BITMAP
0000000000
0000000000
0000000000
0000000000
0000040000
0000fe0000
003ffe0000
003ffc0000
003f780000
0000f00000
0000e00000
0001c00000
0003c00000
0007800000
000f000000
001efe0000
001fff8000
003fffe000
007f01e000
00f8007000
01f0007000
03c0003800
0780003800
0700003800
0203c03800
000ff03800
000ff07000
001c38f000
001c3be000
000fffc000
000fff0000
0003f80000
0000000000
0000000000
0000000000
ENDCHAR
STARTCHAR 246c
ENCODING 9324
SWIDTH	-8531 0
DWIDTH	34 0
BBX 34	35 0 -1
BITMAP
0000000000
0000000000
0000000000
0000000000
0070000000
0070000000
0070000000
0070000000
0070000000
00780e0000
007c3f0000
03fcff8000
1ff9e38000
1ff3838000
1cf7038000
00ee038000
00fc038000
00f8038000
00f8038000
00f0038000
01e0038000
01e0038000
03e0038000
07e0038000
07e0038400
0ee0038e00
1ce0039e00
3ce003fc00
18e001f800
00e000e000
00e0000000
00e0000000
0000000000
0000000000
0000000000
ENDCHAR
STARTCHAR 246d
ENCODING 9325
SWIDTH	-8531 0
DWIDTH	34 0
BBX 34	35 0 -1
BITMAP
0000000000
0000000000
0000000000
00000c0000
0001fe0000
003ffe0000
003ffc0000
003e780000
0000700000
0000e00000
0001e00000
0003c00000
0003800000
0007000000
000efe0000
001fff8000
003fffe000
003f01e000
007c007000
00f0007000
01e0003800
03c0003800
0780003800
0300003800
0000007800
0000007000
000000f000
000001e000
000003c000
00001f8000
0001ff0000
0001fc0000
0000e00000
0000000000
0000000000
ENDCHAR
STARTCHAR 246e
ENCODING 9326
SWIDTH	-8531 0
DWIDTH	34 0
BBX 34	35 0 -1
BITMAP
0000000000
0000000000
0000000000
0000000000
0000000000
0000000000
0000000000
0000000000
0000000000
0000000000
001c000000
001c000000
001c000000
001c000000
001f000000
00ff800000
00ff000000
00fe3e0000
001cff8000
001fffc000
001fc1c000
001f00e000
001e00e000
003c00e000
007c00e000
007c00e000
00fc01c000
01fc03c000
01dc0f8000
009c1f0000
001c0c0000
001c000000
0000000000
0000000000
0000000000
ENDCHAR
STARTCHAR 246f
ENCODING 9327
SWIDTH	-8531 0
DWIDTH	34 0
BBX 34	35 0 -1
BITMAP
0000000000
0000000000
0000000000
00e0000000
00e0000000
00e0000000
00e0000000
00e0000000
00e8000000
00fc000000
01fc000000
0ff81c0000
0ff0ff8000
0ef3ffe000
00efe3f000
00ff007000
00fc003800
00f8003800
00f0001c00
01e0001c00
03e0001c00
03e0001c00
07e0001c00
0fe0003800
0ee0003800
1ce0007000
3ce000f000
38e003e000
10e00fc000
00e01f0000
00e00c0000
00e0000000
0000000000
0000000000
0000000000
ENDCHAR
STARTCHAR 2470
ENCODING 9328
SWIDTH	-8531 0
DWIDTH	34 0
BBX 34	35 0 -1
BITMAP
0000000000
0000000000
0000000000
0000080000
00001c0000
0003fe0000
007ffc0000
007fb80000
007c380000
0000700000
0000700000
0000e00000
0000e00000
0001ff0000
0007ffe000
001ffff000
007f80f800
00fb003800
01e7001c00
03ce001c00
038e001c00
071c001c00
0738001c00
0e38001c00
0e71f03800
0ef3f87800
0fe71cf000
07c60fe000
0387ffc000
0003ff0000
0001f80000
0000000000
0000000000
0000000000
0000000000
ENDCHAR
STARTCHAR 2471
ENCODING 9329
SWIDTH	-8531 0
DWIDTH	34 0
BBX 34	35 0 -1
BITMAP
0000000000
0000000000
0000000000
0000000000
0000060000
0000ff0000
003fff0000
003ffc0000
003f780000
0000f00000
0001c00000
0007bf0000
000fffc000
001fffe000
007f00e000
00f8007000
03e0007000
07c3c07000
0307e0e000
000e71e000
000c37c000
000e7f8000
0007fe0000
0003f00000
001f800000
007c018000
01f003e000
03fc01f000
07fe187800
0f0ffc3c00
1e07f81e00
0c01f00c00
0000000000
0000000000
0000000000
ENDCHAR
STARTCHAR 2472
ENCODING 9330
SWIDTH	-8531 0
DWIDTH	34 0
BBX 34	35 0 -1
BITMAP
0000000000
0000000000
0000000000
0003000000
0003800000
0003800000
0007000000
0007fc0000
01fffc0000
01fffc0000
01fe000000
001c000000
001c000000
0038000000
007f003000
007fc0f800
00f9c3f000
01e0efc000
03c0ff0000
0780fc0000
0703f00000
0207f00000
000f700000
001c700000
0018700000
0038700000
0030700000
0030000000
0038000000
001fffc000
001fffc000
0007ffc000
0000000000
0000000000
0000000000
ENDCHAR
STARTCHAR 2473
ENCODING 9331
SWIDTH	-8531 0
DWIDTH	34 0
BBX 34	35 0 -1
BITMAP
0000000000
0000000000
0000000000
0000000000
0000200000
0000700000
0000f00000
0000e00000
0001c00000
0003c00000
0003800000
0007000000
0007000000
000e000000
001e000000
001c000000
0038000000
0038000000
0077800000
007fe00000
00f8e00000
00f0700000
01e0700000
01c0700400
03c0700e00
0380700e00
0700701c00
0700703c00
0e00707800
0e003ff000
1c003fe000
0c000f8000
0000000000
0000000000
0000000000
ENDCHAR
STARTCHAR 2521
ENCODING 9505
SWIDTH	-8531 0
DWIDTH	34 0
BBX 34	35 0 -1
BITMAP
0000000000
0000000000
0000000000
0000000000
0000000000
0000000000
0000000000
0000000000
0000000000
0000000000
0000000000
0000000000
0000000000
0000000000
0000000000
01ffff8000
01ffffc000
01ffffc000
0000078000
00000f0000
00039e0000
0003fc0000
0003f80000
0003e00000
0003800000
0003800000
0003800000
0007000000
0007000000
000e000000
001e000000
001c000000
0008000000
0000000000
0000000000
ENDCHAR
STARTCHAR 2522
ENCODING 9506
SWIDTH	-8531 0
DWIDTH	34 0
BBX 34	35 0 -1
BITMAP
0000000000
0000000000
0000000000
0000000000
0000000000
0000000000
0000000000
0ffffff800
0ffffffc00
0ffffffe00
0000003c00
0000003800
0000007000
0001c0f000
0001c1e000
0001c3c000
0001cf8000
0001cf0000
0001c40000
0001c00000
0001c00000
0001c00000
0003800000
0003800000
0003800000
0007000000
0007000000
000e000000
001e000000
003c000000
0078000000
0030000000
0000000000
0000000000
0000000000
ENDCHAR
STARTCHAR 2523
ENCODING 9507
SWIDTH	-8531 0
DWIDTH	34 0
BBX 34	35 0 -1
BITMAP
0000000000
0000000000
0000000000
0000000000
0000000000
0000000000
0000000000
0000000000
0000000000
0000000000
0000000000
0000000000
0000000000
0000000000
0000060000
00000f0000
00001e0000
00003c0000
0000780000
0000f00000
0003e00000
0007e00000
001fe00000
007ee00000
0078e00000
0020e00000
0000e00000
0000e00000
0000e00000
0000e00000
0000e00000
0000e00000
0000e00000
0000000000
0000000000
ENDCHAR
STARTCHAR 2524
ENCODING 9508
SWIDTH	-8531 0
DWIDTH	34 0
BBX 34	35 0 -1
BITMAP
0000000000
0000000000
0000000000
0000000000
0000004000
000000e000
000001e000
000003c000
0000078000
00000f0000
00001e0000
00003c0000
0000780000
0001f00000
0003e00000
0007e00000
001fe00000
003ee00000
00f8e00000
03f0e00000
0fc0e00000
0f00e00000
0400e00000
0000e00000
0000e00000
0000e00000
0000e00000
0000e00000
0000e00000
0000e00000
0000e00000
0000e00000
0000e00000
0000000000
0000000000
ENDCHAR
STARTCHAR 2525
ENCODING 9509
SWIDTH	-8531 0
DWIDTH	34 0
BBX 34	35 0 -1
BITMAP
0000000000
0000000000
0000000000
0000000000
0000000000
0000000000
0000000000
0000000000
0000000000
0000000000
0000000000
0000000000
0000000000
0001c00000
0001c00000
0001c00000
0001c00000
00ffff8000
00ffff8000
00ffff8000
00e0038000
00e0038000
00e0038000
0000070000
0000070000
0000070000
00000e0000
00001e0000
00003c0000
0000780000
0001f00000
0003e00000
0001800000
0000000000
0000000000
ENDCHAR
STARTCHAR 2526
ENCODING 9510
SWIDTH	-8531 0
DWIDTH	34 0
BBX 34	35 0 -1
BITMAP
0000000000
0000000000
0000000000
0001c00000
0001c00000
0001c00000
0001c00000
0001c00000
0001c00000
07fffff000
07fffff000
07fffff000
0700007000
0700007000
0700007000
0700007000
0700007000
070000e000
000000e000
000000e000
000000e000
000001c000
000001c000
0000038000
0000078000
00000f0000
00001e0000
00003c0000
0000f80000
0003f00000
0007c00000
0003000000
0000000000
0000000000
0000000000
ENDCHAR
STARTCHAR 2527
ENCODING 9511
SWIDTH	-8531 0
DWIDTH	34 0
BBX 34	35 0 -1
BITMAP
0000000000
0000000000
0000000000
0000000000
0000000000
0000000000
0000000000
0000000000
0000000000
0000000000
0000000000
0000000000
0000000000
0000000000
0000000000
0000000000
0000000000
003fff8000
003fff8000
003fff8000
0000e00000
0000e00000
0000e00000
0000e00000
0000e00000
0000e00000
0000e00000
01fffff000
01fffff000
01fffff000
0000000000
0000000000
0000000000
0000000000
0000000000
ENDCHAR
STARTCHAR 2528
ENCODING 9512
SWIDTH	-8531 0
DWIDTH	34 0
BBX 34	35 0 -1
BITMAP
0000000000
0000000000
0000000000
0000000000
0000000000
0000000000
0000000000
0000000000
0000000000
03fffff800
03fffff800
03fffff800
0000e00000
0000e00000
0000e00000
0000e00000
0000e00000
0000e00000
0000e00000
0000e00000
0000e00000
0000e00000
0000e00000
0000e00000
0000e00000
1fffffff00
1fffffff00
1fffffff00
0000000000
0000000000
0000000000
0000000000
0000000000
0000000000
0000000000
ENDCHAR
STARTCHAR 2529
ENCODING 9513
SWIDTH	-8531 0
DWIDTH	34 0
BBX 34	35 0 -1
BITMAP
0000000000
0000000000
0000000000
0000000000
0000000000
0000000000
0000000000
0000000000
0000000000
0000000000
0000000000
0000000000
0000380000
0000380000
0000380000
0000380000
00ffffc000
00ffffc000
00ffffc000
0000780000
0000f80000
0001f80000
0003f80000
0007b80000
001f380000
003e380000
00f8380000
01f0380000
00c0380000
0001f80000
0000f80000
0000f00000
0000000000
0000000000
0000000000
ENDCHAR
STARTCHAR 252a
ENCODING 9514
SWIDTH	-8531 0
DWIDTH	34 0
BBX 34	35 0 -1
BITMAP
0000000000
0000000000
0000000000
00001c0000
00001c0000
00001c0000
00001c0000
00001c0000
00001c0000
00001c0000
00001c0000
0ffffffe00
0ffffffe00
0ffffffe00
00003c0000
00007c0000
0000fc0000
0001fc0000
0003dc0000
00079c0000
000f1c0000
001e1c0000
003c1c0000
00f81c0000
01f01c0000
07c01c0000
0f801c0000
1e001c0000
0c001c0000
00001c0000
0001fc0000
0000fc0000
0000f80000
0000000000
0000000000
ENDCHAR
STARTCHAR 252b
ENCODING 9515
SWIDTH	-8531 0
DWIDTH	34 0
BBX 34	35 0 -1
BITMAP
0000000000
0000000000
0000000000
0003800000
0003800000
0003800000
0003800000
0003800000
0003800000
0003800000
0003800000
07fffff000
07fffff000
07fffff000
0003807000
0003807000
0003807000
0003807000
0003807000
0007007000
0007007000
0007007000
000e007000
000e007000
001c007000
003c00e000
007800e000
00f000e000
01e001e000
07c03fc000
0f801fc000
06001f8000
0000000000
0000000000
0000000000
ENDCHAR
STARTCHAR 252c
ENCODING 9516
SWIDTH	-8531 0
DWIDTH	34 0
BBX 34	35 0 -1
BITMAP
0000000000
0000000000
0000000000
0003800400
0003800e00
0003802700
0003807380
0003803900
0003801c00
0003800800
0003800000
07fffff000
07fffff000
07fffff000
0003807000
0003807000
0003807000
0003807000
0003807000
0007007000
0007007000
0007007000
000e007000
000e007000
001c007000
003c00e000
007800e000
00f000e000
01e001e000
07c03fc000
0f801fc000
06001f8000
0000000000
0000000000
0000000000
ENDCHAR
STARTCHAR 252d
ENCODING 9517
SWIDTH	-8531 0
DWIDTH	34 0
BBX 34	35 0 -1
BITMAP
0000000000
0000000000
0000000000
0007000000
0007000000
0007000000
0007000000
0003800000
000380f000
00038ff000
0003fff000
003fff0000
07fff00000
07ffc00000
07c1c00000
0001c00000
0000e00000
0000e03e00
0000e7fe00
0001fffe00
007fffc000
0ffff80000
0ffe700000
0f80700000
0000700000
0000380000
0000380000
0000380000
0000380000
00001c0000
00001c0000
00001c0000
00001c0000
0000000000
0000000000
ENDCHAR
STARTCHAR 252e
ENCODING 9518
SWIDTH	-8531 0
DWIDTH	34 0
BBX 34	35 0 -1
BITMAP
0000000000
0000000000
0000000400
000e000e00
000e002700
000e007380
000e003900
0007001c00
000701e800
00071fe000
0007ffe000
007ffe0000
0fffe00000
0fff800000
0f83800000
0003800000
0001c00000
0001c07c00
0001cffc00
0003fffc00
00ffff8000
1ffff00000
1ffce00000
1f00e00000
0000e00000
0000700000
0000700000
0000700000
0000700000
0000380000
0000380000
0000380000
0000380000
0000000000
0000000000
ENDCHAR
STARTCHAR 252f
ENCODING 9519
SWIDTH	-8531 0
DWIDTH	34 0
BBX 34	35 0 -1
BITMAP
0000000000
0000000000
0000000000
0000600000
0000700000
0000e00000
0000e00000
0001c00000
0003fff000
0003fff800
0007fff800
000f007000
001e007000
003c00e000
007800e000
00f001c000
03e001c000
07c0038000
0700078000
0200070000
00000e0000
00001e0000
00003c0000
0000780000
0000f00000
0001e00000
0003c00000
000f800000
001f000000
007c000000
01f8000000
03e0000000
0180000000
0000000000
0000000000
ENDCHAR
STARTCHAR 2530
ENCODING 9520
SWIDTH	-8531 0
DWIDTH	34 0
BBX 34	35 0 -1
BITMAP
0000000000
0000000000
0000000400
0000c00e00
0000e02700
0001c07380
0001c03900
0003801c00
0007ffe800
0007fff000
000ffff000
001e00e000
003c00e000
007801c000
00f001c000
01e0038000
07c0038000
0f80070000
0e000f0000
04000e0000
00001c0000
00003c0000
0000780000
0000f00000
0001e00000
0003c00000
0007800000
001f000000
003e000000
00f8000000
03f0000000
07c0000000
0300000000
0000000000
0000000000
ENDCHAR
STARTCHAR 2531
ENCODING 9521
SWIDTH	-8531 0
DWIDTH	34 0
BBX 34	35 0 -1
BITMAP
0000000000
0000000000
0000000000
000c000000
000e000000
000e000000
001c000000
001c000000
001c000000
0038000000
0038000000
003ffffe00
007ffffe00
00fffffe00
00e00e0000
01c00e0000
03c00e0000
07800e0000
0f000e0000
1e001c0000
0c001c0000
00001c0000
00001c0000
0000380000
0000380000
0000700000
0000f00000
0001e00000
0003c00000
0007800000
001f000000
003e000000
0018000000
0000000000
0000000000
ENDCHAR
STARTCHAR 2532
ENCODING 9522
SWIDTH	-8531 0
DWIDTH	34 0
BBX 34	35 0 -1
BITMAP
0000000000
0000000000
0000000400
000c000e00
000e002700
000e007380
001c003900
001c001c00
001c000800
0038000000
0038000000
003ffffe00
007ffffe00
00fffffe00
00e00e0000
01c00e0000
03c00e0000
07800e0000
0f000e0000
1e001c0000
0c001c0000
00001c0000
00001c0000
0000380000
0000380000
0000700000
0000f00000
0001e00000
0003c00000
0007800000
001f000000
003e000000
0018000000
0000000000
0000000000
ENDCHAR
STARTCHAR 2533
ENCODING 9523
SWIDTH	-8531 0
DWIDTH	34 0
BBX 34	35 0 -1
BITMAP
0000000000
0000000000
0000000000
0000000000
0000000000
0000000000
0000000000
0000000000
0000000000
03fffff000
03fffff000
03fffff000
0000007000
0000007000
0000007000
0000007000
0000007000
0000007000
0000007000
0000007000
0000007000
0000007000
0000007000
0000007000
0000007000
0000007000
03fffff000
03fffff000
03fffff000
0000007000
0000000000
0000000000
0000000000
0000000000
0000000000
ENDCHAR
STARTCHAR 2534
ENCODING 9524
SWIDTH	-8531 0
DWIDTH	34 0
BBX 34	35 0 -1
BITMAP
0000000000
0000000000
0000000400
0000000e00
0000002700
0000007380
0000003900
0000001c00
0000000800
03fffff000
03fffff000
03fffff000
0000007000
0000007000
0000007000
0000007000
0000007000
0000007000
0000007000
0000007000
0000007000
0000007000
0000007000
0000007000
0000007000
0000007000
03fffff000
03fffff000
03fffff000
0000007000
0000000000
0000000000
0000000000
0000000000
0000000000
ENDCHAR
STARTCHAR 2535
ENCODING 9525
SWIDTH	-8531 0
DWIDTH	34 0
BBX 34	35 0 -1
BITMAP
0000000000
0000000000
0000000000
0000000000
0070070000
0070070000
0070070000
0070070000
0070070000
0070070000
0070070000
1ffffffe00
1ffffffe00
1ffffffe00
0070070000
0070070000
0070070000
0070070000
0070070000
0070070000
00700e0000
00000e0000
00000e0000
00000e0000
00001c0000
00001c0000
0000380000
0000780000
0000f00000
0001e00000
0007c00000
000f800000
0006000000
0000000000
0000000000
ENDCHAR
STARTCHAR 2536
ENCODING 9526
SWIDTH	-8531 0
DWIDTH	34 0
BBX 34	35 0 -1
BITMAP
0000000000
0000000000
0000000400
0000000e00
0070072700
0070077380
0070073900
0070071c00
0070070800
0070070000
0070070000
1ffffffe00
1ffffffe00
1ffffffe00
0070070000
0070070000
0070070000
0070070000
0070070000
0070070000
00700e0000
00000e0000
00000e0000
00000e0000
00001c0000
00001c0000
0000380000
0000780000
0000f00000
0001e00000
0007c00000
000f800000
0006000000
0000000000
0000000000
ENDCHAR
STARTCHAR 2537
ENCODING 9527
SWIDTH	-8531 0
DWIDTH	34 0
BBX 34	35 0 -1
BITMAP
0000000000
0000000000
0000000000
0000000000
0000000000
00c0000000
01f0000000
00f8000000
003e000000
001f000000
0006000400
0000000e00
0000000e00
0c00001c00
1f00003c00
0f80003800
03e0007000
01f000f000
006001e000
000003c000
0000078000
00000f0000
00001e0000
00007c0000
0000f80000
0003e00000
000fc00000
003f000000
01fc000000
01f0000000
00c0000000
0000000000
0000000000
0000000000
0000000000
ENDCHAR
STARTCHAR 2538
ENCODING 9528
SWIDTH	-8531 0
DWIDTH	34 0
BBX 34	35 0 -1
BITMAP
0000000000
0000000000
0000001000
0000003800
0000009c00
00c001ce00
01f000e400
00f8007000
003e002000
001f000000
0006000400
0000000e00
0000000e00
0c00001c00
1f00003c00
0f80003800
03e0007000
01f000f000
006001e000
000003c000
0000078000
00000f0000
00001e0000
00007c0000
0000f80000
0003e00000
000fc00000
003f000000
01fc000000
01f0000000
00c0000000
0000000000
0000000000
0000000000
0000000000
ENDCHAR
STARTCHAR 2539
ENCODING 9529
SWIDTH	-8531 0
DWIDTH	34 0
BBX 34	35 0 -1
BITMAP
0000000000
0000000000
0000000000
0000000000
0000000000
0000000000
0000000000
01ffff8000
01ffffc000
01ffffe000
000001c000
0000038000
0000038000
0000070000
0000070000
00000e0000
00001e0000
00001c0000
0000380000
0000780000
0000f80000
0001fc0000
0003de0000
00078f0000
000f078000
003e03c000
007c01e000
01f000f000
07e0007800
0780003800
0200001000
0000000000
0000000000
0000000000
0000000000
ENDCHAR
STARTCHAR 253a
ENCODING 9530
SWIDTH	-8531 0
DWIDTH	34 0
BBX 34	35 0 -1
BITMAP
0000000000
0000000000
0000000400
0000000e00
0000002700
0000007380
0000003900
03ffff1c00
03ffff8800
03ffffc000
0000038000
0000070000
0000070000
00000e0000
00000e0000
00001c0000
00003c0000
0000380000
0000700000
0000f00000
0001f00000
0003f80000
0007bc0000
000f1e0000
001e0f0000
007c078000
00f803c000
03e001e000
0fc000f000
0f00007000
0400002000
0000000000
0000000000
0000000000
0000000000
ENDCHAR
STARTCHAR 253b
ENCODING 9531
SWIDTH	-8531 0
DWIDTH	34 0
BBX 34	35 0 -1
BITMAP
0000000000
0000000000
0000000000
0000000000
0038000000
0038000000
0038000000
0038000000
0038000000
0038001800
003801fc00
00383ff800
003bfff800
00fffef000
1fffc0e000
1ffc01c000
1f3803c000
0038078000
00380f0000
00381e0000
00380c0000
0038000000
0038000000
0038000000
0038000000
0038000000
003c000000
001ffff000
001ffff000
0007fff000
0000000000
0000000000
0000000000
0000000000
0000000000
ENDCHAR
STARTCHAR 253c
ENCODING 9532
SWIDTH	-8531 0
DWIDTH	34 0
BBX 34	35 0 -1
BITMAP
0000000000
0000000000
0000000400
0000000e00
0070002700
0070007380
0070003900
0070001c00
0070000800
0070003000
007003f800
00707ff000
0077fff000
01fffde000
3fff81c000
3ff8038000
3e70078000
00700f0000
00701e0000
00703c0000
0070180000
0070000000
0070000000
0070000000
0070000000
0070000000
0078000000
003fffe000
003fffe000
000fffe000
0000000000
0000000000
0000000000
0000000000
0000000000
ENDCHAR
STARTCHAR 253d
ENCODING 9533
SWIDTH	-8531 0
DWIDTH	34 0
BBX 34	35 0 -1
BITMAP
0000000000
0000000000
0000000000
0000000000
0000000000
0000000000
0000000000
0200003000
0700003800
0780003800
0380007000
01c0007000
01e0007000
00e000e000
007000e000
007800e000
003001c000
000001c000
0000038000
0000078000
0000070000
00000e0000
00001e0000
00003c0000
0000780000
0000f00000
0003e00000
0007c00000
001f000000
007e000000
0078000000
0020000000
0000000000
0000000000
0000000000
ENDCHAR
STARTCHAR 253e
ENCODING 9534
SWIDTH	-8531 0
DWIDTH	34 0
BBX 34	35 0 -1
BITMAP
0000000000
0000000000
0000000000
0000000400
0000000e00
0000002700
0000007380
0200003900
0700001c00
0780000800
0380006000
01c0007000
01e0007000
00e000e000
007000e000
007800e000
003001c000
000001c000
0000038000
0000078000
0000070000
00000e0000
00001e0000
00003c0000
0000780000
0000f00000
0003e00000
0007c00000
001f000000
007e000000
0078000000
0020000000
0000000000
0000000000
0000000000
ENDCHAR
STARTCHAR 253f
ENCODING 9535
SWIDTH	-8531 0
DWIDTH	34 0
BBX 34	35 0 -1
BITMAP
0000000000
0000000000
0000000000
0000600000
0000700000
0000e00000
0000e00000
0001c00000
0003fff000
0003fff800
0007fff800
000f007000
001e007000
003c00e000
007800e000
00f301c000
03e781c000
07c3e38000
0701f78000
02007f0000
00003e0000
00001e0000
00003c0000
0000780000
0000f00000
0001e00000
0003c00000
000f800000
001f000000
007c000000
01f8000000
03e0000000
0180000000
0000000000
0000000000
ENDCHAR
STARTCHAR 2540
ENCODING 9536
SWIDTH	-8531 0
DWIDTH	34 0
BBX 34	35 0 -1
BITMAP
0000000000
0000000000
0000000400
0000c00e00
0000e02700
0001c07380
0001c03900
0003801c00
0007ffe800
0007fff000
000ffff000
001e00e000
003c00e000
007801c000
00f001c000
01e6038000
07cf038000
0f87c70000
0e03ef0000
0400fe0000
00007c0000
00003c0000
0000780000
0000f00000
0001e00000
0003c00000
0007800000
001f000000
003e000000
00f8000000
03f0000000
07c0000000
0300000000
0000000000
0000000000
ENDCHAR
STARTCHAR 2541
ENCODING 9537
SWIDTH	-8531 0
DWIDTH	34 0
BBX 34	35 0 -1
BITMAP
0000000000
0000000000
0000000000
0000000000
000000c000
000007e000
0001ffe000
01ffff8000
01fff80000
00fee00000
0000e00000
0000e00000
0000e00000
0000e00000
0000e00000
1ffffffe00
1ffffffe00
1ffffffe00
0000e00000
0000e00000
0000e00000
0000e00000
0000e00000
0001c00000
0001c00000
0001c00000
0003800000
0007800000
000f000000
001e000000
007c000000
00f8000000
0060000000
0000000000
0000000000
ENDCHAR
STARTCHAR 2542
ENCODING 9538
SWIDTH	-8531 0
DWIDTH	34 0
BBX 34	35 0 -1
BITMAP
0000000000
0000000000
0000000000
0000000000
000000c000
000007e000
0001ffe400
01ffff8e00
01fff82700
00fee07380
0000e03900
0000e01c00
0000e00800
0000e00000
0000e00000
1ffffffe00
1ffffffe00
1ffffffe00
0000e00000
0000e00000
0000e00000
0000e00000
0000e00000
0001c00000
0001c00000
0001c00000
0003800000
0007800000
000f000000
001e000000
007c000000
00f8000000
0060000000
0000000000
0000000000
ENDCHAR
STARTCHAR 2543
ENCODING 9539
SWIDTH	-8531 0
DWIDTH	34 0
BBX 34	35 0 -1
BITMAP
0000000000
0000000000
0000000000
0000000000
0000000000
0000000000
0000000000
0000000000
0000000000
0000000000
0000000000
0000000000
0000000000
0000000000
0000000000
0000000000
0003000000
00c7038000
01c3838000
00e3838000
00e1c70000
0071c70000
0070870000
00200e0000
00000e0000
00001c0000
00003c0000
0000780000
0000f00000
0001e00000
0007c00000
000f800000
0006000000
0000000000
0000000000
ENDCHAR
STARTCHAR 2544
ENCODING 9540
SWIDTH	-8531 0
DWIDTH	34 0
BBX 34	35 0 -1
BITMAP
0000000000
0000000000
0000000000
0000000000
0000000000
0000000000
0002000000
0007001800
0407001c00
0e03801c00
0f03803800
0701c03800
0381c03800
03c0e07000
01c0c07000
00e0007000
00c000e000
000000e000
000001c000
000003c000
0000038000
0000070000
00000f0000
00001e0000
00003c0000
0000780000
0001f00000
0003e00000
000f800000
001f000000
000c000000
0000000000
0000000000
0000000000
0000000000
ENDCHAR
STARTCHAR 2545
ENCODING 9541
SWIDTH	-8531 0
DWIDTH	34 0
BBX 34	35 0 -1
BITMAP
0000000000
0000000000
0000000400
0000000e00
0000002700
0000007380
0000003900
0004001c00
000e000800
080e003000
1c07003800
1c07003800
0e03807000
0f03807000
0701c07000
038180e000
038000e000
010001c000
000001c000
0000038000
0000078000
0000070000
00000e0000
00001e0000
00003c0000
0000780000
0001f00000
0003e00000
000fc00000
003f000000
003e000000
0018000000
0000000000
0000000000
0000000000
ENDCHAR
STARTCHAR 2546
ENCODING 9542
SWIDTH	-8531 0
DWIDTH	34 0
BBX 34	35 0 -1
BITMAP
0000000000
0000000000
0000000000
0000000000
0000000000
01ffffe000
01ffffe000
01ffffe000
0000000000
0000000000
0000000000
0000000000
0000000000
0000000000
1ffffffe00
1ffffffe00
1ffffffe00
0000700000
0000700000
0000700000
0000700000
0000e00000
0000e00000
0000e00000
0001c00000
0003c00000
0007800000
000f000000
001e000000
007c000000
00f8000000
00f0000000
0040000000
0000000000
0000000000
ENDCHAR
STARTCHAR 2547
ENCODING 9543
SWIDTH	-8531 0
DWIDTH	34 0
BBX 34	35 0 -1
BITMAP
0000000000
0000000000
0000000000
0000000000
0000000000
01ffffe000
01ffffe000
01ffffe400
0000000e00
0000002700
0000007380
0000003900
0000001c00
0000000800
1ffffffe00
1ffffffe00
1ffffffe00
0000700000
0000700000
0000700000
0000700000
0000e00000
0000e00000
0000e00000
0001c00000
0003c00000
0007800000
000f000000
001e000000
007c000000
00f8000000
00f0000000
0040000000
0000000000
0000000000
ENDCHAR
STARTCHAR 2548
ENCODING 9544
SWIDTH	-8531 0
DWIDTH	34 0
BBX 34	35 0 -1
BITMAP
0000000000
0000000000
0000000000
0007000000
0007000000
0007000000
0007000000
0007000000
0007000000
0007000000
0007000000
0007000000
0007000000
0007000000
0007400000
0007f00000
0007fc0000
00073e0000
00070f8000
000707c000
000701c000
0007008000
0007000000
0007000000
0007000000
0007000000
0007000000
0007000000
0007000000
0007000000
0007000000
0007000000
0007000000
0000000000
0000000000
ENDCHAR
STARTCHAR 2549
ENCODING 9545
SWIDTH	-8531 0
DWIDTH	34 0
BBX 34	35 0 -1
BITMAP
0000000000
0000000000
0000000000
000e000000
000e000000
000e002000
000e007000
000e013800
000e039c00
000e01c800
000e00e000
000e004000
000e000000
000e000000
000e800000
000fe00000
000ff80000
000e7c0000
000e1f0000
000e0f8000
000e038000
000e010000
000e000000
000e000000
000e000000
000e000000
000e000000
000e000000
000e000000
000e000000
000e000000
000e000000
000e000000
0000000000
0000000000
ENDCHAR
STARTCHAR 254a
ENCODING 9546
SWIDTH	-8531 0
DWIDTH	34 0
BBX 34	35 0 -1
BITMAP
0000000000
0000000000
0000000000
0000000000
0000700000
0000700000
0000700000
0000700000
0000700000
0000700000
0000700000
0000700000
0ffffffe00
0ffffffe00
0ffffffe00
0000700000
0000700000
0000700000
0000700000
0000700000
0000700000
0000e00000
0000e00000
0000e00000
0001c00000
0003c00000
0007800000
000f000000
001e000000
007c000000
00f8000000
0060000000
0000000000
0000000000
0000000000
ENDCHAR
STARTCHAR 254b
ENCODING 9547
SWIDTH	-8531 0
DWIDTH	34 0
BBX 34	35 0 -1
BITMAP
0000000000
0000000000
0000000000
0000000000
0000000000
0000000000
0000000000
0000000000
0000000000
01ffffe000
01ffffe000
01ffffe000
0000000000
0000000000
0000000000
0000000000
0000000000
0000000000
0000000000
0000000000
0000000000
0000000000
0000000000
0000000000
1ffffffe00
1ffffffe00
1ffffffe00
0000000000
0000000000
0000000000
0000000000
0000000000
0000000000
0000000000
0000000000
ENDCHAR
STARTCHAR 254c
ENCODING 9548
SWIDTH	-8531 0
DWIDTH	34 0
BBX 34	35 0 -1
BITMAP
0000000000
0000000000
0000000000
0000000000
0000000000
0000000000
0000000000
00fffff000
00fffff800
00fffff800
0000007000
0000007000
000000e000
000000e000
000001c000
000301c000
0007c38000
0003f78000
0000ff0000
00003e0000
00001f0000
00003f8000
00007bc000
0000f1e000
0003e0f000
0007c07000
000f002000
003e000000
00fc000000
03f0000000
03c0000000
0100000000
0000000000
0000000000
0000000000
ENDCHAR
STARTCHAR 254d
ENCODING 9549
SWIDTH	-8531 0
DWIDTH	34 0
BBX 34	35 0 -1
BITMAP
0000000000
0000000000
0000000000
0000e00000
0000e00000
0000e00000
0000e00000
0000e00000
0000e00000
00ffffe000
00fffff000
00fffff000
000001e000
000003c000
0000078000
00000f0000
00001e0000
00003c0000
0000f80000
0001fe0000
0007ff8000
001fe7c000
00fee1f000
07f8e0f800
07e0e03c00
0300e01800
0000e00000
0000e00000
0000e00000
0000e00000
0000e00000
0000e00000
0000e00000
0000000000
0000000000
ENDCHAR
STARTCHAR 254e
ENCODING 9550
SWIDTH	-8531 0
DWIDTH	34 0
BBX 34	35 0 -1
BITMAP
0000000000
0000000000
0000000000
0000000000
0000000000
0000006000
0000007000
0000007000
000000e000
000000e000
000000e000
000001c000
000001c000
0000038000
0000038000
0000070000
0000070000
00000e0000
00001e0000
00001c0000
0000380000
0000780000
0000f00000
0001e00000
0003c00000
0007800000
001f000000
003e000000
00f8000000
01f0000000
00c0000000
0000000000
0000000000
0000000000
0000000000
ENDCHAR
STARTCHAR 254f
ENCODING 9551
SWIDTH	-8531 0
DWIDTH	34 0
BBX 34	35 0 -1
BITMAP
0000000000
0000000000
0000000000
0000000000
0000000000
0000000000
0000000000
0000000000
0000000000
0000020000
0030070000
0038078000
0038038000
003801c000
007001c000
007000e000
0070007000
00e0007000
00e0003800
01c0003800
01c0001c00
0380001c00
0780000e00
0700000e00
0e00000700
1e00000700
3c00000600
1800000000
0000000000
0000000000
0000000000
0000000000
0000000000
0000000000
0000000000
ENDCHAR
STARTCHAR 2550
ENCODING 9552
SWIDTH	-8531 0
DWIDTH	34 0
BBX 34	35 0 -1
BITMAP
0000000000
0000000000
0000000000
0000000000
0000000400
0000000e00
0000002700
0000007380
0000003900
0000021c00
0030070800
0038078000
0038038000
003801c000
007001c000
007000e000
0070007000
00e0007000
00e0003800
01c0003800
01c0001c00
0380001c00
0780000e00
0700000e00
0e00000700
1e00000700
3c00000600
1800000000
0000000000
0000000000
0000000000
0000000000
0000000000
0000000000
0000000000
ENDCHAR
STARTCHAR 2551
ENCODING 9553
SWIDTH	-8531 0
DWIDTH	34 0
BBX 34	35 0 -1
BITMAP
0000000000
0000000000
0000000000
0000000000
0000000000
0000001c00
0000003e00
0000006300
0000006300
0000026300
0030073e00
0038079c00
0038038000
003801c000
007001c000
007000e000
0070007000
00e0007000
00e0003800
01c0003800
01c0001c00
0380001c00
0780000e00
0700000e00
0e00000700
1e00000700
3c00000600
1800000000
0000000000
0000000000
0000000000
0000000000
0000000000
0000000000
0000000000
ENDCHAR
STARTCHAR 2552
ENCODING 9554
SWIDTH	-8531 0
DWIDTH	34 0
BBX 34	35 0 -1
BITMAP
0000000000
0000000000
0000000000
0000000000
0000000000
01c0000000
01c0000000
01c0000000
01c0000000
01c0006000
01c001f000
01c007e000
01c01f8000
01c0fe0000
01c7f80000
01ffe00000
01ff000000
01f8000000
01c0000000
01c0000000
01c0000000
01c0000000
01c0000000
01c0000000
01c0000000
01e0000000
00fffff000
00fffff000
003ffff000
0000000000
0000000000
0000000000
0000000000
0000000000
0000000000
ENDCHAR
STARTCHAR 2553
ENCODING 9555
SWIDTH	-8531 0
DWIDTH	34 0
BBX 34	35 0 -1
BITMAP
0000000000
0000000000
0000000400
0000000e00
0000002700
0380007380
0380003900
0380001c00
0380000800
038000c000
038003e000
03800fc000
03803f0000
0381fc0000
038ff00000
03ffc00000
03fe000000
03f0000000
0380000000
0380000000
0380000000
0380000000
0380000000
0380000000
0380000000
03c0000000
01ffffe000
01ffffe000
007fffe000
0000000000
0000000000
0000000000
0000000000
0000000000
0000000000
ENDCHAR
STARTCHAR 2554
ENCODING 9556
SWIDTH	-8531 0
DWIDTH	34 0
BBX 34	35 0 -1
BITMAP
0000000000
0000000000
0000000e00
0000001f00
0000003180
0380003180
0380003180
0380001f00
0380000e00
038000c000
038003e000
03800fc000
03803f0000
0381fc0000
038ff00000
03ffc00000
03fe000000
03f0000000
0380000000
0380000000
0380000000
0380000000
0380000000
0380000000
0380000000
03c0000000
01ffffe000
01ffffe000
007fffe000
0000000000
0000000000
0000000000
0000000000
0000000000
0000000000
ENDCHAR
STARTCHAR 2555
ENCODING 9557
SWIDTH	-8531 0
DWIDTH	34 0
BBX 34	35 0 -1
BITMAP
0000000000
0000000000
0000000000
0000000000
0000000000
0000000000
0000000000
07fffff000
07fffff800
07fffffc00
0000003800
0000003800
0000007000
0000007000
0000007000
000000e000
000000e000
000000e000
000001c000
000003c000
0000038000
0000070000
00000f0000
00001e0000
00003c0000
0000780000
0001f00000
0007e00000
001f800000
003e000000
0018000000
0000000000
0000000000
0000000000
0000000000
ENDCHAR
STARTCHAR 2556
ENCODING 9558
SWIDTH	-8531 0
DWIDTH	34 0
BBX 34	35 0 -1
BITMAP
0000000000
0000000000
0000000400
0000000e00
0000002700
0000007380
0000003900
1fffffdc00
1fffffe800
1ffffff000
000000e000
000000e000
000001c000
000001c000
000001c000
0000038000
0000038000
0000038000
0000070000
00000f0000
00000e0000
00001c0000
00003c0000
0000780000
0000f00000
0001e00000
0007c00000
001f800000
007e000000
00f8000000
0060000000
0000000000
0000000000
0000000000
0000000000
ENDCHAR
STARTCHAR 2557
ENCODING 9559
SWIDTH	-8531 0
DWIDTH	34 0
BBX 34	35 0 -1
BITMAP
0000000000
0000000000
0000000e00
0000001f00
0000003180
0000003180
0000003180
1fffffdf00
1fffffee00
1ffffff000
000000e000
000000e000
000001c000
000001c000
000001c000
0000038000
0000038000
0000038000
0000070000
00000f0000
00000e0000
00001c0000
00003c0000
0000780000
0000f00000
0001e00000
0007c00000
001f800000
007e000000
00f8000000
0060000000
0000000000
0000000000
0000000000
0000000000
ENDCHAR
STARTCHAR 2558
ENCODING 9560
SWIDTH	-8531 0
DWIDTH	34 0
BBX 34	35 0 -1
BITMAP
0000000000
0000000000
0000000000
0000000000
0000000000
0000000000
0000000000
0000000000
0000000000
0000000000
000f000000
001f800000
003fc00000
0079e00000
00f0f00000
01e0780000
03c03c0000
07801f0000
1f000f8000
3e0003c000
380001e000
100000f000
0000007c00
0000001e00
0000000f00
0000000600
0000000000
0000000000
0000000000
0000000000
0000000000
0000000000
0000000000
0000000000
0000000000
ENDCHAR
STARTCHAR 2559
ENCODING 9561
SWIDTH	-8531 0
DWIDTH	34 0
BBX 34	35 0 -1
BITMAP
0000000000
0000000000
0000000000
0000000000
0000000000
0000000000
0000000000
0000000000
0000000000
0000001000
000f003800
001f809c00
003fc1ce00
0079e0e400
00f0f07000
01e0782000
03c03c0000
07801f0000
1f000f8000
3e0003c000
380001e000
100000f000
0000007c00
0000001e00
0000000f00
0000000600
0000000000
0000000000
0000000000
0000000000
0000000000
0000000000
0000000000
0000000000
0000000000
ENDCHAR
STARTCHAR 255a
ENCODING 9562
SWIDTH	-8531 0
DWIDTH	34 0
BBX 34	35 0 -1
BITMAP
0000000000
0000000000
0000000000
0000000000
0000000000
0000000000
0000000000
0000000000
0000000000
0000007000
000f00f800
001f818c00
003fc18c00
0079e18c00
00f0f0f800
01e0787000
03c03c0000
07801f0000
1f000f8000
3e0003c000
380001e000
100000f000
0000007c00
0000001e00
0000000f00
0000000600
0000000000
0000000000
0000000000
0000000000
0000000000
0000000000
0000000000
0000000000
0000000000
ENDCHAR
STARTCHAR 255b
ENCODING 9563
SWIDTH	-8531 0
DWIDTH	34 0
BBX 34	35 0 -1
BITMAP
0000000000
0000000000
0000000000
0000e00000
0000e00000
0000e00000
0000e00000
0000e00000
0000e00000
0000e00000
07fffffc00
07fffffc00
07fffffc00
0000e00000
0000e00000
0000e00000
0000e00000
0030e18000
0038e3c000
0070e1e000
00f0e0e000
00e0e07000
01c0e07800
03c0e03800
0780e01c00
0f00e01e00
0e00e00e00
0400e00400
0000e00000
0007e00000
0003e00000
0003c00000
0000000000
0000000000
0000000000
ENDCHAR
STARTCHAR 255c
ENCODING 9564
SWIDTH	-8531 0
DWIDTH	34 0
BBX 34	35 0 -1
BITMAP
0000000000
0000000000
0000001000
0000e03800
0000e09c00
0000e1ce00
0000e0e400
0000e07000
0000e02000
0000e00000
07fffffc00
07fffffc00
07fffffc00
0000e00000
0000e00000
0000e00000
0000e00000
0030e18000
0038e3c000
0070e1e000
00f0e0e000
00e0e07000
01c0e07800
03c0e03800
0780e01c00
0f00e01e00
0e00e00e00
0400e00400
0000e00000
0007e00000
0003e00000
0003c00000
0000000000
0000000000
0000000000
ENDCHAR
STARTCHAR 255d
ENCODING 9565
SWIDTH	-8531 0
DWIDTH	34 0
BBX 34	35 0 -1
BITMAP
0000000000
0000000000
0000003800
0000e07c00
0000e0c600
0000e0c600
0000e0c600
0000e07c00
0000e03800
0000e00000
07fffffc00
07fffffc00
07fffffc00
0000e00000
0000e00000
0000e00000
0000e00000
0030e18000
0038e3c000
0070e1e000
00f0e0e000
00e0e07000
01c0e07800
03c0e03800
0780e01c00
0f00e01e00
0e00e00e00
0400e00400
0000e00000
0007e00000
0003e00000
0003c00000
0000000000
0000000000
0000000000
ENDCHAR
STARTCHAR 255e
ENCODING 9566
SWIDTH	-8531 0
DWIDTH	34 0
BBX 34	35 0 -1
BITMAP
0000000000
0000000000
0000000000
0000000000
0000000000
0000000000
0000000000
0000000000
0ffffffc00
0ffffffe00
0ffffffe00
0000001c00
0000003800
0000007800
0000007000
000000e000
000001e000
000003c000
0030078000
00780f0000
003e1e0000
001f7c0000
0007f80000
0003e00000
0001e00000
0000f00000
0000780000
00003c0000
00001c0000
0000080000
0000000000
0000000000
0000000000
0000000000
0000000000
ENDCHAR
STARTCHAR 255f
ENCODING 9567
SWIDTH	-8531 0
DWIDTH	34 0
BBX 34	35 0 -1
BITMAP
0000000000
0000000000
0000000000
0000000000
000c000000
001f800000
001ff00000
0003fc0000
00007f0000
00000f8000
0000038000
0000010000
0000000000
0018000000
003e000000
003fc00000
0007f00000
0001fc0000
00003e0000
00000f0000
0000060000
0000000000
0000000000
00c0000000
01f8000000
01fe000000
003fc00000
0007f00000
0001fc0000
00003f0000
00000f8000
0000038000
0000010000
0000000000
0000000000
ENDCHAR
STARTCHAR 2560
ENCODING 9568
SWIDTH	-8531 0
DWIDTH	34 0
BBX 34	35 0 -1
BITMAP
0000000000
0000000000
0000000000
0000000000
0001c00000
0001c00000
0001c00000
0003800000
0003800000
0003800000
0007000000
0007000000
0007000000
000e000000
000e000000
000e000000
001c000000
001c000000
001c030000
0038078000
0038038000
003801c000
007001e000
007000e000
00e007f000
00e1fff800
01fffff800
1ffff81c00
1ffe001c00
1f00000e00
0000000c00
0000000000
0000000000
0000000000
0000000000
ENDCHAR
STARTCHAR 2561
ENCODING 9569
SWIDTH	-8531 0
DWIDTH	34 0
BBX 34	35 0 -1
BITMAP
0000000000
0000000000
0000000000
0000000000
0000000000
0000003000
0000003800
0000003800
0000007000
0000007000
0000007000
000000e000
000000e000
000401c000
000f01c000
000f838000
0007c78000
0001f70000
0000fe0000
00003c0000
00003e0000
00007f0000
0000f78000
0001e3c000
0003c1e000
000780e000
001f004000
003e000000
00f8000000
03f0000000
0fc0000000
0f00000000
0400000000
0000000000
0000000000
ENDCHAR
STARTCHAR 2562
ENCODING 9570
SWIDTH	-8531 0
DWIDTH	34 0
BBX 34	35 0 -1
BITMAP
0000000000
0000000000
0000000000
0000000000
0000000000
0000000000
0000000000
07ffffc000
07ffffc000
07ffffc000
000e000000
000e000000
000e000000
000e000000
000e000000
000e000000
1ffffffc00
1ffffffc00
1ffffffc00
000e000000
000e000000
000e000000
000e000000
000e000000
000e000000
000e000000
000e000000
000fffe000
0007ffe000
0003ffe000
0000000000
0000000000
0000000000
0000000000
0000000000
ENDCHAR
STARTCHAR 2563
ENCODING 9571
SWIDTH	-8531 0
DWIDTH	34 0
BBX 34	35 0 -1
BITMAP
0000000000
0000000000
0000000000
0000000000
0000000000
0000000000
0000000000
0000000000
0000000000
0000000000
0000000000
0000000000
0000000000
0018000000
0038000000
001c018000
001c0fc000
000e7fc000
000fff8000
003ff38000
01ff870000
01ff070000
01c70e0000
0003860000
0003800000
0003800000
0001c00000
0001c00000
0001c00000
0000e00000
0000e00000
0000c00000
0000000000
0000000000
0000000000
ENDCHAR
STARTCHAR 2564
ENCODING 9572
SWIDTH	-8531 0
DWIDTH	34 0
BBX 34	35 0 -1
BITMAP
0000000000
0000000000
0000000000
0000000000
0030000000
0070000000
0038000000
0038000000
001c000c00
001c007e00
001c07fe00
000e3ffc00
000fffb800
001ff83800
01ffc07000
1fff00f000
1fe380e000
1e0381c000
000383c000
0001c18000
0001c00000
0001c00000
0000e00000
0000e00000
0000e00000
0000e00000
0000700000
0000700000
0000700000
0000380000
0000380000
0000300000
0000000000
0000000000
0000000000
ENDCHAR
STARTCHAR 2565
ENCODING 9573
SWIDTH	-8531 0
DWIDTH	34 0
BBX 34	35 0 -1
BITMAP
0000000000
0000000000
0000000000
0000000000
0000000000
0000000000
0000000000
0000000000
0000000000
0000000000
0000000000
0000000000
0000000000
0000000000
0000000000
0000000000
003ffe0000
003fff0000
003fff0000
00000e0000
00000e0000
00000e0000
00000e0000
00001c0000
00001c0000
00001c0000
00001c0000
03fffff800
03fffff800
03fffff800
0000000000
0000000000
0000000000
0000000000
0000000000
ENDCHAR
STARTCHAR 2566
ENCODING 9574
SWIDTH	-8531 0
DWIDTH	34 0
BBX 34	35 0 -1
BITMAP
0000000000
0000000000
0000000000
0000000000
0000000000
0000000000
0000000000
0000000000
0000000000
00ffff8000
00ffffc000
00ffff8000
0000038000
0000038000
0000038000
0000038000
0000070000
0000070000
0000070000
0000070000
0000070000
00000e0000
00000e0000
00000e0000
1ffffffe00
1ffffffe00
1ffffffe00
0000000000
0000000000
0000000000
0000000000
0000000000
0000000000
0000000000
0000000000
ENDCHAR
STARTCHAR 2567
ENCODING 9575
SWIDTH	-8531 0
DWIDTH	34 0
BBX 34	35 0 -1
BITMAP
0000000000
0000000000
0000000000
0000000000
0000000000
0000000000
0000000000
0000000000
0000000000
0000000000
0000000000
0000000000
0000000000
0000000000
0000000000
0000000000
007fff8000
007fff8000
007fff8000
0000038000
0000038000
0000038000
003fff8000
003fff8000
003fff8000
0000038000
0000038000
0000038000
007fff8000
007fff8000
007fff8000
0000038000
0000000000
0000000000
0000000000
ENDCHAR
STARTCHAR 2568
ENCODING 9576
SWIDTH	-8531 0
DWIDTH	34 0
BBX 34	35 0 -1
BITMAP
0000000000
0000000000
0000000000
0000000000
0000000000
0000000000
0000000000
03ffffe000
03ffffe000
03ffffe000
000000e000
000000e000
000000e000
000000e000
000000e000
000000e000
01ffffe000
01ffffe000
01ffffe000
000000e000
000000e000
000000e000
000000e000
000000e000
000000e000
03ffffe000
03ffffe000
03ffffe000
000000e000
0000000000
0000000000
0000000000
0000000000
0000000000
0000000000
ENDCHAR
STARTCHAR 2569
ENCODING 9577
SWIDTH	-8531 0
DWIDTH	34 0
BBX 34	35 0 -1
BITMAP
0000000000
0000000000
0000000000
0000000000
0000000000
00ffffc000
00ffffc000
00ffffc000
0000000000
0000000000
0000000000
0000000000
0000000000
07ffffe000
07fffff000
07fffff800
0000007000
0000007000
000000e000
000000e000
000001c000
000001c000
0000038000
0000078000
00000f0000
00001e0000
00003c0000
0000f80000
0003f00000
000fc00000
000f000000
0004000000
0000000000
0000000000
0000000000
ENDCHAR
STARTCHAR 256a
ENCODING 9578
SWIDTH	-8531 0
DWIDTH	34 0
BBX 34	35 0 -1
BITMAP
0000000000
0000000000
0000000000
0000000000
007001c000
007001c000
007001c000
007001c000
007001c000
007001c000
007001c000
007001c000
007001c000
007001c000
007001c000
007001c000
007001c000
007001c000
0070038000
0070038000
0000038000
0000038000
0000070000
0000070000
00000f0000
00000e0000
00001c0000
00003c0000
0000780000
0000f00000
0001e00000
0003c00000
0001800000
0000000000
0000000000
ENDCHAR
STARTCHAR 256b
ENCODING 9579
SWIDTH	-8531 0
DWIDTH	34 0
BBX 34	35 0 -1
BITMAP
0000000000
0000000000
0000000000
0000000000
0000000000
0000e00000
00e0e00000
00e0e00000
00e0e00000
00e0e00000
00e0e00000
00e0e00000
00e0e00000
00e0e00000
00e0e00000
00e0e00400
00e0e00e00
00e0e00e00
00e0e01c00
00e0e01c00
00e0e03800
00e0e07000
01c0e0f000
01c0e1e000
01c0e3c000
0380ef8000
0380ff0000
0700fc0000
0f00f80000
0200600000
0000000000
0000000000
0000000000
0000000000
0000000000
ENDCHAR
STARTCHAR 256c
ENCODING 9580
SWIDTH	-8531 0
DWIDTH	34 0
BBX 34	35 0 -1
BITMAP
0000000000
0000000000
0000000000
0000000000
0000000000
0000000000
00e0000000
00e0000000
00e0000000
00e0000000
00e0000000
00e0000000
00e0000000
00e0000000
00e0000000
00e0000000
00e0000000
00e0001000
00e0003800
00e0007800
00e000f000
00e001e000
00e003c000
00e0078000
00e01f0000
00e03e0000
00e0f80000
00e7f00000
00ffc00000
00ff000000
0078000000
0020000000
0000000000
0000000000
0000000000
ENDCHAR
STARTCHAR 256d
ENCODING 9581
SWIDTH	-8531 0
DWIDTH	34 0
BBX 34	35 0 -1
BITMAP
0000000000
0000000000
0000000000
0000000000
0000000000
0000000000
0000000000
0000000000
01fffff000
01fffff000
01fffff000
01c0007000
01c0007000
01c0007000
01c0007000
01c0007000
01c0007000
01c0007000
01c0007000
01c0007000
01c0007000
01c0007000
01c0007000
01c0007000
01fffff000
01fffff000
01fffff000
01c0007000
01c0007000
0000000000
0000000000
0000000000
0000000000
0000000000
0000000000
ENDCHAR
STARTCHAR 256e
ENCODING 9582
SWIDTH	-8531 0
DWIDTH	34 0
BBX 34	35 0 -1
BITMAP
0000000000
0000000000
0000000000
0000000000
0000000000
0000000000
0000000000
0000000000
0000000000
0000000000
0000000000
0000000000
0000000000
0000000000
0000000000
007fffc000
007fffc000
007fffc000
007001c000
007001c000
007001c000
0070038000
0070038000
0000038000
0000070000
0000070000
00000e0000
00001e0000
00003c0000
0000780000
0001f00000
0003e00000
0001800000
0000000000
0000000000
ENDCHAR
STARTCHAR 256f
ENCODING 9583
SWIDTH	-8531 0
DWIDTH	34 0
BBX 34	35 0 -1
BITMAP
0000000000
0000000000
0000000000
0000000000
0000000000
0000000000
0000000000
07ffffe000
07fffff000
07fffff800
0700007000
0700007000
0700007000
0700007000
0700007000
070000e000
070000e000
070000e000
000000e000
000001c000
000001c000
0000038000
0000038000
0000070000
00000f0000
00001e0000
00003c0000
0000780000
0001f00000
0007e00000
000f800000
0006000000
0000000000
0000000000
0000000000
ENDCHAR
STARTCHAR 2570
ENCODING 9584
SWIDTH	-8531 0
DWIDTH	34 0
BBX 34	35 0 -1
BITMAP
0000000000
0000000000
0000000000
0000000000
0000380000
0000380000
0000380000
0000380000
0000380000
0000380000
03fffff800
03fffff800
03fffff800
0070380000
0070380000
0070380000
0070380000
0070380000
0070380000
0070380000
1ffffffe00
1ffffffe00
1ffffffe00
0000380000
0000380000
0000380000
0000380000
0000380000
0000380000
0000380000
0000380000
0000380000
0000000000
0000000000
0000000000
ENDCHAR
STARTCHAR 2571
ENCODING 9585
SWIDTH	-8531 0
DWIDTH	34 0
BBX 34	35 0 -1
BITMAP
0000000000
0000000000
0000000000
0000000000
0000000000
0000000000
0000000000
0000000000
0000000000
03fffff800
03fffffc00
03fffff800
000000f000
000001e000
000003c000
0000ef8000
0000fe0000
0000f80000
0000e00000
0000e00000
0000e00000
0000e00000
0000e00000
0000e00000
0000e00000
1fffffff00
1fffffff00
1fffffff00
0000000000
0000000000
0000000000
0000000000
0000000000
0000000000
0000000000
ENDCHAR
STARTCHAR 2572
ENCODING 9586
SWIDTH	-8531 0
DWIDTH	34 0
BBX 34	35 0 -1
BITMAP
0000000000
0000000000
0000000000
0000000000
0000000000
0000000000
03fffff800
03fffffc00
03fffffc00
0000003800
0000003800
0000003800
0000007000
0000007000
0000007000
00ffffe000
00ffffe000
00ffffe000
000001c000
000003c000
0000038000
0000070000
00000f0000
00001e0000
00003c0000
0000780000
0000f00000
0003e00000
0007c00000
001f000000
001e000000
0008000000
0000000000
0000000000
0000000000
ENDCHAR
STARTCHAR 2573
ENCODING 9587
SWIDTH	-8531 0
DWIDTH	34 0
BBX 34	35 0 -1
BITMAP
0000000000
0000000000
0000000000
0000000000
0000000000
0000000000
0000000000
0300000000
07c0000000
03e0000000
00f8000000
007c000400
001c000e00
0008001e00
0000001c00
0000003800
0000007800
000000f000
000001e000
000003c000
0000078000
00000f0000
00001e0000
00007c0000
0000f80000
0003e00000
000fc00000
003f000000
01fc000000
01f0000000
00c0000000
0000000000
0000000000
0000000000
0000000000
ENDCHAR
STARTCHAR 2574
ENCODING 9588
SWIDTH	-8531 0
DWIDTH	34 0
BBX 34	35 0 -1
BITMAP
0000000000
0000000000
0000000400
0001c00e00
0001c02700
0001c07380
0001c03900
0001c01c00
0001c00800
07fffff000
07fffff000
07fffff000
0700007000
0700007000
0700007000
0700007000
0700007000
070000e000
000000e000
000000e000
000000e000
000001c000
000001c000
0000038000
0000078000
00000f0000
00001e0000
00003c0000
0000f80000
0003f00000
0007c00000
0003000000
0000000000
0000000000
0000000000
ENDCHAR
STARTCHAR 2575
ENCODING 9589
SWIDTH	-8531 0
DWIDTH	34 0
BBX 34	35 0 -1
BITMAP
0000000000
0000000000
0000000000
0000000000
0000000000
0000000000
0000000000
0000000000
0000000000
0000000000
0000000000
0000000000
0001c00000
0001c00000
0001c00000
0001c00000
0001c00000
00ffff8000
00ffff8000
00ffff8000
0001c38000
0001c38000
0003838000
0003838000
0003838000
0007038000
000f038000
001e070000
003c070000
00f87f0000
01f03f0000
00c03e0000
0000000000
0000000000
0000000000
ENDCHAR
STARTCHAR 2576
ENCODING 9590
SWIDTH	-8531 0
DWIDTH	34 0
BBX 34	35 0 -1
BITMAP
0000000000
0000000000
0000000000
0000000000
0000000000
0000000000
0000000000
0000000000
0000000000
0000000000
0000000000
0000000000
0000000000
0006000000
0007000000
000e000000
000e000000
001c000000
003fffe000
003fffe000
007fffe000
00f0380000
01e0380000
03c0380000
0180700000
0000700000
0000700000
0000e00000
0001e00000
0003c00000
0007800000
000f000000
0006000000
0000000000
0000000000
ENDCHAR
STARTCHAR 2621
ENCODING 9761
SWIDTH	-8531 0
DWIDTH	34 0
BBX 34	35 0 -1
BITMAP
0000000000
0000000000
0000000000
0000c00000
0000c00000
0001e00000
0001e00000
0001e00000
0003f00000
0003f00000
0007380000
0007380000
0007380000
000e1c0000
000e1c0000
000e1c0000
001c0e0000
001c0e0000
001c0e0000
0038070000
003fff0000
007fff8000
007fff8000
0070038000
00e001c000
00e001c000
00e001c000
01c000e000
01c000e000
0380007000
0380007000
0780007800
0000000000
0000000000
0000000000
ENDCHAR
STARTCHAR 2622
ENCODING 9762
SWIDTH	-8531 0
DWIDTH	34 0
BBX 34	35 0 -1
BITMAP
0000000000
0000000000
0000000000
0000000000
00fffc0000
00ffff0000
00ffff8000
00e003c000
00e001c000
00e000e000
00e000e000
00e000e000
00e000e000
00e000e000
00e001c000
00e003c000
00ffff8000
00ffff8000
00ffffc000
00e001e000
00e000e000
00e0007000
00e0007000
00e0007000
00e0007000
00e0007000
00e0007000
00e000e000
00e001e000
00ffffc000
00ffff8000
00fffe0000
0000000000
0000000000
0000000000
ENDCHAR
STARTCHAR 2623
ENCODING 9763
SWIDTH	-8531 0
DWIDTH	34 0
BBX 34	35 0 -1
BITMAP
0000000000
0000000000
0000000000
0000000000
00fffff000
00fffff000
00fffff000
00e0000000
00e0000000
00e0000000
00e0000000
00e0000000
00e0000000
00e0000000
00e0000000
00e0000000
00e0000000
00e0000000
00e0000000
00e0000000
00e0000000
00e0000000
00e0000000
00e0000000
00e0000000
00e0000000
00e0000000
00e0000000
00e0000000
00e0000000
00e0000000
00e0000000
0000000000
0000000000
0000000000
ENDCHAR
STARTCHAR 2624
ENCODING 9764
SWIDTH	-8531 0
DWIDTH	34 0
BBX 34	35 0 -1
BITMAP
0000000000
0000000000
0000000000
0000c00000
0000c00000
0001e00000
0001e00000
0001e00000
0003f00000
0003f00000
0007380000
0007380000
0007380000
000e1c0000
000e1c0000
000e1c0000
001c0e0000
001c0e0000
001c0e0000
0038070000
0038070000
0070038000
0070038000
0070038000
00e001c000
00e001c000
00e001c000
01c000e000
01c000e000
03fffff000
03fffff000
07fffff800
0000000000
0000000000
0000000000
ENDCHAR
STARTCHAR 2625
ENCODING 9765
SWIDTH	-8531 0
DWIDTH	34 0
BBX 34	35 0 -1
BITMAP
0000000000
0000000000
0000000000
0000000000
01ffffe000
01ffffe000
01ffffe000
01c0000000
01c0000000
01c0000000
01c0000000
01c0000000
01c0000000
01c0000000
01c0000000
01c0000000
01ffffc000
01ffffc000
01ffffc000
01c0000000
01c0000000
01c0000000
01c0000000
01c0000000
01c0000000
01c0000000
01c0000000
01c0000000
01c0000000
01ffffe000
01ffffe000
01ffffe000
0000000000
0000000000
0000000000
ENDCHAR
STARTCHAR 2626
ENCODING 9766
SWIDTH	-8531 0
DWIDTH	34 0
BBX 34	35 0 -1
BITMAP
0000000000
0000000000
0000000000
0000000000
07fffff000
07fffff000
07fffff000
000001e000
000003c000
0000078000
00000f0000
00000e0000
00001c0000
00003c0000
0000380000
0000700000
0000f00000
0001e00000
0001c00000
0003800000
0007800000
000f000000
001e000000
003c000000
0038000000
0070000000
00f0000000
01e0000000
03c0000000
07fffff000
07fffff000
07fffff000
0000000000
0000000000
0000000000
ENDCHAR
STARTCHAR 2627
ENCODING 9767
SWIDTH	-8531 0
DWIDTH	34 0
BBX 34	35 0 -1
BITMAP
0000000000
0000000000
0000000000
0000000000
01c000e000
01c000e000
01c000e000
01c000e000
01c000e000
01c000e000
01c000e000
01c000e000
01c000e000
01c000e000
01c000e000
01c000e000
01ffffe000
01ffffe000
01ffffe000
01c000e000
01c000e000
01c000e000
01c000e000
01c000e000
01c000e000
01c000e000
01c000e000
01c000e000
01c000e000
01c000e000
01c000e000
01c000e000
0000000000
0000000000
0000000000
ENDCHAR
STARTCHAR 2628
ENCODING 9768
SWIDTH	-8531 0
DWIDTH	34 0
BBX 34	35 0 -1
BITMAP
0000000000
0000000000
0000000000
0000000000
0007f00000
001ffc0000
003ffe0000
00780f0000
00e0038000
00e0038000
01c001c000
01c001c000
01c001c000
038000e000
038000e000
038000e000
039ffce000
039ffce000
039ffce000
038000e000
038000e000
038000e000
038000e000
01c001c000
01c001c000
01c001c000
00e0038000
00e0038000
00780f0000
003ffe0000
001ffc0000
0007f00000
0000000000
0000000000
0000000000
ENDCHAR
STARTCHAR 2629
ENCODING 9769
SWIDTH	-8531 0
DWIDTH	34 0
BBX 34	35 0 -1
BITMAP
0000000000
0000000000
0000000000
0000000000
0001c00000
0001c00000
0001c00000
0001c00000
0001c00000
0001c00000
0001c00000
0001c00000
0001c00000
0001c00000
0001c00000
0001c00000
0001c00000
0001c00000
0001c00000
0001c00000
0001c00000
0001c00000
0001c00000
0001c00000
0001c00000
0001c00000
0001c00000
0001c00000
0001c00000
0001c00000
0001c00000
0001c00000
0000000000
0000000000
0000000000
ENDCHAR
STARTCHAR 262a
ENCODING 9770
SWIDTH	-8531 0
DWIDTH	34 0
BBX 34	35 0 -1
BITMAP
0000000000
0000000000
0000000000
0000000000
01c001e000
01c003c000
01c0078000
01c00f0000
01c01e0000
01c03c0000
01c0780000
01c0f00000
01c1e00000
01c3c00000
01c7800000
01cfc00000
01dfc00000
01fce00000
01f8f00000
01f0700000
01e0380000
01c03c0000
01c01c0000
01c00e0000
01c00f0000
01c0070000
01c0038000
01c003c000
01c001c000
01c000e000
01c000f000
01c0007800
0000000000
0000000000
0000000000
ENDCHAR
STARTCHAR 262b
ENCODING 9771
SWIDTH	-8531 0
DWIDTH	34 0
BBX 34	35 0 -1
BITMAP
0000000000
0000000000
0000000000
0000000000
0000c00000
0000c00000
0001e00000
0001e00000
0001e00000
0003f00000
0003f00000
0007380000
0007380000
0007380000
000e1c0000
000e1c0000
000e1c0000
001c0e0000
001c0e0000
0038070000
0038070000
0038070000
0070038000
0070038000
0070038000
00e001c000
00e001c000
01c000e000
01c000e000
01c000e000
0380007000
0380007000
0000000000
0000000000
0000000000
ENDCHAR
STARTCHAR 262c
ENCODING 9772
SWIDTH	-8531 0
DWIDTH	34 0
BBX 34	35 0 -1
BITMAP
0000000000
0000000000
0000000000
0000000000
0700003800
0780007800
0780007800
07c000f800
07c000f800
07c000f800
07e001f800
07e001f800
077003b800
077003b800
077003b800
0738073800
0738073800
071c0e3800
071c0e3800
071c0e3800
070e1c3800
070e1c3800
0707383800
0707383800
0707383800
0703f03800
0703f03800
0701e03800
0701e03800
0701e03800
0700c03800
0700c03800
0000000000
0000000000
0000000000
ENDCHAR
STARTCHAR 262d
ENCODING 9773
SWIDTH	-8531 0
DWIDTH	34 0
BBX 34	35 0 -1
BITMAP
0000000000
0000000000
0000000000
0000000000
038000e000
03c000e000
03e000e000
03e000e000
03f000e000
03b800e000
03b800e000
039c00e000
039e00e000
038e00e000
038700e000
038700e000
038380e000
0383c0e000
0381c0e000
0380e0e000
0380f0e000
038070e000
038038e000
03803ce000
03801ce000
03800ee000
03800ee000
038007e000
038003e000
038003e000
038001e000
038000e000
0000000000
0000000000
0000000000
ENDCHAR
STARTCHAR 262e
ENCODING 9774
SWIDTH	-8531 0
DWIDTH	34 0
BBX 34	35 0 -1
BITMAP
0000000000
0000000000
0000000000
0000000000
03fffff000
03fffff000
03fffff000
0000000000
0000000000
0000000000
0000000000
0000000000
0000000000
0000000000
0000000000
0000000000
00ffffc000
00ffffc000
00ffffc000
0000000000
0000000000
0000000000
0000000000
0000000000
0000000000
0000000000
0000000000
0000000000
0000000000
07fffff800
07fffff800
07fffff800
0000000000
0000000000
0000000000
ENDCHAR
STARTCHAR 262f
ENCODING 9775
SWIDTH	-8531 0
DWIDTH	34 0
BBX 34	35 0 -1
BITMAP
0000000000
0000000000
0000000000
0000000000
0007f00000
001ffc0000
003ffe0000
00780f0000
00e0038000
00e0038000
01c001c000
01c001c000
01c001c000
038000e000
038000e000
038000e000
038000e000
038000e000
038000e000
038000e000
038000e000
038000e000
038000e000
01c001c000
01c001c000
01c001c000
00e0038000
00e0038000
00780f0000
003ffe0000
001ffc0000
0007f00000
0000000000
0000000000
0000000000
ENDCHAR
STARTCHAR 2630
ENCODING 9776
SWIDTH	-8531 0
DWIDTH	34 0
BBX 34	35 0 -1
BITMAP
0000000000
0000000000
0000000000
0000000000
01ffffe000
01ffffe000
01ffffe000
01c000e000
01c000e000
01c000e000
01c000e000
01c000e000
01c000e000
01c000e000
01c000e000
01c000e000
01c000e000
01c000e000
01c000e000
01c000e000
01c000e000
01c000e000
01c000e000
01c000e000
01c000e000
01c000e000
01c000e000
01c000e000
01c000e000
01c000e000
01c000e000
01c000e000
0000000000
0000000000
0000000000
ENDCHAR
STARTCHAR 2631
ENCODING 9777
SWIDTH	-8531 0
DWIDTH	34 0
BBX 34	35 0 -1
BITMAP
0000000000
0000000000
0000000000
0000000000
007ffc0000
007fff0000
007fff8000
007003c000
007001c000
007000e000
007000e000
007000e000
007000e000
007000e000
007001c000
007003c000
007fff8000
007fff0000
007ffc0000
0070000000
0070000000
0070000000
0070000000
0070000000
0070000000
0070000000
0070000000
0070000000
0070000000
0070000000
0070000000
0070000000
0000000000
0000000000
0000000000
ENDCHAR
STARTCHAR 2632
ENCODING 9778
SWIDTH	-8531 0
DWIDTH	34 0
BBX 34	35 0 -1
BITMAP
0000000000
0000000000
0000000000
0000000000
03ffffe000
03ffffe000
03ffffe000
01e0000000
00f0000000
0078000000
003c000000
001e000000
000f000000
0007800000
0003c00000
0001e00000
0000f00000
0000780000
0000780000
0000f00000
0001e00000
0003c00000
0007800000
000f000000
001e000000
003c000000
0078000000
00f0000000
01e0000000
03ffffe000
03ffffe000
03ffffe000
0000000000
0000000000
0000000000
ENDCHAR
STARTCHAR 2633
ENCODING 9779
SWIDTH	-8531 0
DWIDTH	34 0
BBX 34	35 0 -1
BITMAP
0000000000
0000000000
0000000000
0000000000
0ffffff800
0ffffff800
0ffffff800
0001c00000
0001c00000
0001c00000
0001c00000
0001c00000
0001c00000
0001c00000
0001c00000
0001c00000
0001c00000
0001c00000
0001c00000
0001c00000
0001c00000
0001c00000
0001c00000
0001c00000
0001c00000
0001c00000
0001c00000
0001c00000
0001c00000
0001c00000
0001c00000
0001c00000
0000000000
0000000000
0000000000
ENDCHAR
STARTCHAR 2634
ENCODING 9780
SWIDTH	-8531 0
DWIDTH	34 0
BBX 34	35 0 -1
BITMAP
0000000000
0000000000
0000000000
0000000000
007c07c000
01ff1ff000
03ffbff800
0783f83c00
0701f01c00
0200e00800
0000e00000
0000e00000
0000e00000
0000e00000
0000e00000
0000e00000
0000e00000
0000e00000
0000e00000
0000e00000
0000e00000
0000e00000
0000e00000
0000e00000
0000e00000
0000e00000
0000e00000
0000e00000
0000e00000
0000e00000
0000e00000
0000e00000
0000000000
0000000000
0000000000
ENDCHAR
STARTCHAR 2635
ENCODING 9781
SWIDTH	-8531 0
DWIDTH	34 0
BBX 34	35 0 -1
BITMAP
0000000000
0000000000
0000000000
0000000000
0000e00000
0000e00000
0000e00000
0000e00000
0000e00000
0000e00000
0000e00000
0007fc0000
003fff8000
007fffc000
00f8e3e000
00e0e0e000
01c0e07000
01c0e07000
01c0e07000
01c0e07000
00e0e0e000
00f8e3e000
007fffc000
003fff8000
0007fc0000
0000e00000
0000e00000
0000e00000
0000e00000
0000e00000
0000e00000
0000e00000
0000000000
0000000000
0000000000
ENDCHAR
STARTCHAR 2636
ENCODING 9782
SWIDTH	-8531 0
DWIDTH	34 0
BBX 34	35 0 -1
BITMAP
0000000000
0000000000
0000000000
0000000000
03c0007800
01e000f000
00e000e000
007001c000
007803c000
0038038000
001c070000
001e0f0000
000e0e0000
00071c0000
0007bc0000
0003b80000
0001f00000
0001f00000
0001f00000
0003f80000
0003b80000
00071c0000
000f1e0000
001e0f0000
001c070000
0038038000
007803c000
00f001e000
00e000e000
01c0007000
03c0007800
0780003c00
0000000000
0000000000
0000000000
ENDCHAR
STARTCHAR 2637
ENCODING 9783
SWIDTH	-8531 0
DWIDTH	34 0
BBX 34	35 0 -1
BITMAP
0000000000
0000000000
0000000000
0000000000
01c0e07000
01c0e07000
01c0e07000
01c0e07000
01c0e07000
01c0e07000
01c0e07000
01c0e07000
01c0e07000
01c0e07000
01c0e07000
01c0e07000
01c0e07000
01c0e07000
00e0e0e000
00e0e0e000
0078e3c000
007fffc000
001fff0000
0007fc0000
0000e00000
0000e00000
0000e00000
0000e00000
0000e00000
0000e00000
0000e00000
0000e00000
0000000000
0000000000
0000000000
ENDCHAR
STARTCHAR 2638
ENCODING 9784
SWIDTH	-8531 0
DWIDTH	34 0
BBX 34	35 0 -1
BITMAP
0000000000
0000000000
0000000000
0000000000
0003f80000
000ffe0000
003fff8000
007c07c000
00f001e000
00e000e000
01c0007000
01c0007000
01c0007000
0380003800
0380003800
0380003800
0380003800
0380003800
0380003800
01c0007000
01c0007000
01c0007000
00e000e000
00e000e000
007001c000
007803c000
003c078000
001e0f0000
000e0e0000
01fe0ff000
01fe0ff000
01fe0ff000
0000000000
0000000000
0000000000
ENDCHAR
STARTCHAR 2641
ENCODING 9793
SWIDTH	-8531 0
DWIDTH	34 0
BBX 34	35 0 -1
BITMAP
0000000000
0000000000
0000000000
0000000000
0000000000
0000000000
0000000000
0000000000
0000000000
0000000000
0000000000
0000000000
0000000000
0001f0e000
0007fce000
001fffc000
003e0fc000
0078078000
0070078000
00e0070000
00e0070000
01c0070000
01c00e0000
01c00e0000
01c00e0000
01c01e0000
01c03e0000
01c07e0000
00e0fe0000
00ffefc000
007fcfc000
001f07c000
0000000000
0000000000
0000000000
ENDCHAR
STARTCHAR 2642
ENCODING 9794
SWIDTH	-8531 0
DWIDTH	34 0
BBX 34	35 0 -1
BITMAP
0000000000
0000000000
0000000000
0000000000
0003f00000
000ffc0000
001ffe0000
003c0f0000
0038070000
0070038000
0070038000
0070038000
0070038000
0070070000
0071ff0000
0071fe0000
0071ff0000
0070078000
0070038000
007001c000
007001c000
007001c000
007001c000
007801c000
007c038000
007e078000
007fff0000
0077fe0000
0071f80000
0070000000
0070000000
0070000000
0070000000
0070000000
0000000000
ENDCHAR
STARTCHAR 2643
ENCODING 9795
SWIDTH	-8531 0
DWIDTH	34 0
BBX 34	35 0 -1
BITMAP
0000000000
0000000000
0000000000
0000000000
0000000000
0000000000
0000000000
0000000000
0000000000
0000000000
0000000000
0000000000
0000000000
007c070000
007c070000
007e0e0000
000e0e0000
000e0e0000
00071c0000
00071c0000
00071c0000
0003b80000
0003b80000
0003f80000
0001f00000
0001f00000
0001f00000
0000e00000
0000e00000
0000e00000
0000e00000
0000e00000
0000e00000
0000e00000
0000000000
ENDCHAR
STARTCHAR 2644
ENCODING 9796
SWIDTH	-8531 0
DWIDTH	34 0
BBX 34	35 0 -1
BITMAP
0000000000
0000000000
0000000000
0000000000
003fff8000
003fff8000
003fff8000
001c000000
001e000000
000f000000
0007800000
0003c00000
0001f00000
0001f80000
0007fc0000
001fff0000
001e0f0000
0038038000
0038038000
007001c000
007001c000
007001c000
007001c000
007001c000
007001c000
007001c000
0038038000
0038038000
001e0f0000
001fff0000
0007fc0000
0001f00000
0000000000
0000000000
0000000000
ENDCHAR
STARTCHAR 2645
ENCODING 9797
SWIDTH	-8531 0
DWIDTH	34 0
BBX 34	35 0 -1
BITMAP
0000000000
0000000000
0000000000
0000000000
0000000000
0000000000
0000000000
0000000000
0000000000
0000000000
0000000000
0000000000
0000000000
0003f00000
000ffc0000
001ffe0000
001c0f0000
0038070000
0038020000
0038000000
001c000000
001ff00000
001ff00000
003ff00000
0038000000
0070000000
0070010000
0070038000
0038078000
003fff0000
001ffe0000
0007f80000
0000000000
0000000000
0000000000
ENDCHAR
STARTCHAR 2646
ENCODING 9798
SWIDTH	-8531 0
DWIDTH	34 0
BBX 34	35 0 -1
BITMAP
0000000000
0000000000
0000000000
0000000000
001fff0000
001fff8000
001fff0000
00001e0000
00003c0000
0000780000
0000f00000
0001e00000
0001c00000
0003800000
0007800000
000f000000
000e000000
001c000000
001c000000
0038000000
0038000000
0038000000
0038000000
0038000000
003c000000
001ffc0000
001fff0000
0007ff8000
0000038000
0000038000
0000070000
00000f0000
00001e0000
00000c0000
0000000000
ENDCHAR
STARTCHAR 2647
ENCODING 9799
SWIDTH	-8531 0
DWIDTH	34 0
BBX 34	35 0 -1
BITMAP
0000000000
0000000000
0000000000
0000000000
0000000000
0000000000
0000000000
0000000000
0000000000
0000000000
0000000000
0000000000
0000000000
0071f80000
007bfe0000
007fff0000
003e070000
003c038000
0038038000
0038038000
0038038000
0038038000
0038038000
0038038000
0038038000
0038038000
0038038000
0038038000
0038038000
0000038000
0000038000
0000038000
0000038000
0000038000
0000000000
ENDCHAR
STARTCHAR 2648
ENCODING 9800
SWIDTH	-8531 0
DWIDTH	34 0
BBX 34	35 0 -1
BITMAP
0000000000
0000000000
0000000000
0000000000
0001f00000
0007fc0000
000ffe0000
001e0f0000
001c070000
0038038000
0038038000
0038038000
007001c000
007001c000
007001c000
007001c000
007001c000
007fffc000
007fffc000
007fffc000
007001c000
007001c000
007001c000
007001c000
0038038000
0038038000
0038038000
001c070000
001e0f0000
000ffe0000
0007fc0000
0001f00000
0000000000
0000000000
0000000000
ENDCHAR
STARTCHAR 2649
ENCODING 9801
SWIDTH	-8531 0
DWIDTH	34 0
BBX 34	35 0 -1
BITMAP
0000000000
0000000000
0000000000
0000000000
0000000000
0000000000
0000000000
0000000000
0000000000
0000000000
0000000000
0000000000
0000000000
0001c00000
0001c00000
0001c00000
0001c00000
0001c00000
0001c00000
0001c00000
0001c00000
0001c00000
0001c00000
0001c00000
0001c00000
0001c00000
0001c00000
0001c00000
0001c00000
0001fc0000
0001fc0000
0000fc0000
0000000000
0000000000
0000000000
ENDCHAR
STARTCHAR 264a
ENCODING 9802
SWIDTH	-8531 0
DWIDTH	34 0
BBX 34	35 0 -1
BITMAP
0000000000
0000000000
0000000000
0000000000
0000000000
0000000000
0000000000
0000000000
0000000000
0000000000
0000000000
0000000000
0000000000
0038078000
00380f0000
00381e0000
00383c0000
0038780000
0038f00000
0039e00000
003bc00000
003fe00000
003ff00000
003e700000
003c380000
00383c0000
00381c0000
00380e0000
00380f0000
0038070000
0038038000
003803c000
0000000000
0000000000
0000000000
ENDCHAR
STARTCHAR 264b
ENCODING 9803
SWIDTH	-8531 0
DWIDTH	34 0
BBX 34	35 0 -1
BITMAP
0000000000
0000000000
0000000000
0000000000
001f800000
001fc00000
001fc00000
0001c00000
0001c00000
0000e00000
0000e00000
0000e00000
0001f00000
0001f00000
0001f00000
0003f00000
0003b80000
0003b80000
0007380000
00071c0000
000e1c0000
000e1c0000
000e1c0000
001c0e0000
001c0e0000
00380e0000
0038070000
0038070000
0070070000
007007e000
00e003e000
00e003e000
0000000000
0000000000
0000000000
ENDCHAR
STARTCHAR 264c
ENCODING 9804
SWIDTH	-8531 0
DWIDTH	34 0
BBX 34	35 0 -1
BITMAP
0000000000
0000000000
0000000000
0000000000
0000000000
0000000000
0000000000
0000000000
0000000000
0000000000
0000000000
0000000000
0000000000
0038038000
0038038000
0038038000
0038038000
0038038000
0038038000
0038038000
0038038000
0038038000
0038038000
0038038000
003c038000
003e078000
003fffe000
003ffde000
003bf8e000
0038000000
0038000000
0038000000
0038000000
0038000000
0000000000
ENDCHAR
STARTCHAR 264d
ENCODING 9805
SWIDTH	-8531 0
DWIDTH	34 0
BBX 34	35 0 -1
BITMAP
0000000000
0000000000
0000000000
0000000000
0000000000
0000000000
0000000000
0000000000
0000000000
0000000000
0000000000
0000000000
0000000000
00e0038000
00e0038000
0070070000
0070070000
0070070000
00380e0000
00380e0000
001c1c0000
001c1c0000
001c1c0000
000e380000
000e380000
0007700000
0007700000
0007f00000
0003e00000
0003e00000
0001c00000
0001c00000
0000000000
0000000000
0000000000
ENDCHAR
STARTCHAR 264e
ENCODING 9806
SWIDTH	-8531 0
DWIDTH	34 0
BBX 34	35 0 -1
BITMAP
0000000000
0000000000
0000000000
0000000000
003fff8000
003fff8000
003fff8000
0007800000
000e000000
000e000000
001c000000
001c000000
001c000000
000e000000
000e000000
0007fe0000
0003fe0000
000ffe0000
001f000000
001c000000
0038000000
0038000000
0038000000
0038000000
001c000000
001ff80000
000ffe0000
0003ff0000
0000070000
0000038000
0000038000
0000078000
00000f0000
0000060000
0000000000
ENDCHAR
STARTCHAR 264f
ENCODING 9807
SWIDTH	-8531 0
DWIDTH	34 0
BBX 34	35 0 -1
BITMAP
0000000000
0000000000
0000000000
0000000000
0000000000
0000000000
0000000000
0000000000
0000000000
0000000000
0000000000
0000000000
0000000000
0001e00000
0007f80000
001ffe0000
001e1e0000
0038070000
0038070000
0070038000
0070038000
0070038000
0070038000
0070038000
0070038000
0070038000
0038070000
0038070000
001e1e0000
001ffe0000
0007f80000
0001e00000
0000000000
0000000000
0000000000
ENDCHAR
STARTCHAR 2650
ENCODING 9808
SWIDTH	-8531 0
DWIDTH	34 0
BBX 34	35 0 -1
BITMAP
0000000000
0000000000
0000000000
0000000000
0000000000
0000000000
0000000000
0000000000
0000000000
0000000000
0000000000
0000000000
0000000000
01ffffe000
01ffffe000
01ffffe000
0038070000
0038070000
0038070000
0038070000
0038070000
0038070000
0038070000
0038070000
0038070000
0038070000
0038070000
0038070000
0038070000
003807e000
003807e000
003803e000
0000000000
0000000000
0000000000
ENDCHAR
STARTCHAR 2651
ENCODING 9809
SWIDTH	-8531 0
DWIDTH	34 0
BBX 34	35 0 -1
BITMAP
0000000000
0000000000
0000000000
0000000000
0000000000
0000000000
0000000000
0000000000
0000000000
0000000000
0000000000
0000000000
0000000000
0003f00000
000ffc0000
001ffe0000
003c0f0000
0038070000
0070038000
0070038000
0070038000
0070038000
0070038000
0078038000
007c070000
007e0f0000
007ffe0000
0077fc0000
0071f00000
0070000000
0070000000
0070000000
0070000000
0070000000
0000000000
ENDCHAR
STARTCHAR 2652
ENCODING 9810
SWIDTH	-8531 0
DWIDTH	34 0
BBX 34	35 0 -1
BITMAP
0000000000
0000000000
0000000000
0000000000
0000000000
0000000000
0000000000
0000000000
0000000000
0000000000
0000000000
0000000000
0000000000
0003ffe000
000fffe000
003fffe000
003c1e0000
0070070000
0070070000
00e0038000
00e0038000
00e0038000
00e0038000
00e0038000
00e0038000
00e0038000
0070070000
0070070000
003c1e0000
003ffe0000
000ff80000
0003e00000
0000000000
0000000000
0000000000
ENDCHAR
STARTCHAR 2653
ENCODING 9811
SWIDTH	-8531 0
DWIDTH	34 0
BBX 34	35 0 -1
BITMAP
0000000000
0000000000
0000000000
0000000000
0000000000
0000000000
0000000000
0000000000
0000000000
0000000000
0000000000
0000000000
0000000000
00ffff8000
00ffff8000
00ffff8000
0001c00000
0001c00000
0001c00000
0001c00000
0001c00000
0001c00000
0001c00000
0001c00000
0001c00000
0001c00000
0001c00000
0001c00000
0001c00000
0001fc0000
0000fc0000
00007c0000
0000000000
0000000000
0000000000
ENDCHAR
ENDFONT
